<?xml version="1.0" encoding="UTF-8"?>
<svg id="Layer_1" data-name="Layer 1" xmlns="http://www.w3.org/2000/svg" version="1.1" viewBox="0 0 959 593">
  <defs>
    <style>
      .cls-1 {
        fill: #000;
      }

      .cls-1, .cls-2, .cls-3 {
        stroke: #fff;
      }

      .cls-2 {
        fill: #dbdbdb;
      }

      .cls-3 {
        fill: #e0006e;
      }

      .cls-4 {
        opacity: .5;
      }
    </style>
  </defs>
  <g id="Layer_1-2" data-name="Layer 1-2">
    <g class="cls-4">
      <path class="cls-1" d="M643,467.4l.4-7.3-.9-1.2-1.7-.7-2.5-2.8.5-2.9,48.8-5.1-.7-2.2-1.5-1.5-.5-1.4.6-6.3-2.4-5.7.5-2.6.3-3.7,2.2-3.8-.2-1.1-1.7-1v-3.2l-1.8-1.9-2.9-6.1-12.9-45.8-45.7,4,1.3,2-1.3,67,4.4,33.2.9-.5h1.3c0,.1.6.5.6.5h.8c0-.1,2-3.9,2-3.9v-2.3l1.1-1.1,1.4.5,3.4,6.4v.9l-3.3,2.2,3.5-.4,4.9-1.6,1.1-.6h0Z"/>
      <path class="cls-1" d="M139.6,387.6l3-2.2.8-2.4-1-1.6-1.8-.2-1.1-1.6,1.1-6.9,1.6-.3,2.4-3.2,1.6-7,2.4-3.6,4.8-1.7,1.3-1.3-.4-1.9-2.3-2.5-1.2-5.8-1.4-1.8-1.3-3.4.9-2.1,1.4-3,.5-2.9-.5-4.9,1-13.6,3.5-.6,3.7,1.4,1.2,2.7h2l2.4-2.9,3.4-17.5,46.2,8.2,40,6-17.4,124.1-37.3-5.4-64.2-37.5.5-2.9,2-1.8h2.2Z"/>
      <path class="cls-1" d="M584.2,367l.9-2.2,1.2.5.7-1-.8-.7.3-1.5-1.1-.9.6-1v-1.5h-1.2c0-.1.8-.9.8-.9l1.3.8.3-1.4-.4-1.1v-.7l2.1.6-.4-1.5,1.6-1.3-.5-.9h-1.1c0,.1-.6-.8-.6-.8l.9-.9,1.6-.2.5-.8,1.4-.2v-.8l-1-.9v-.5h1.5l.4-.7-1.4-1v-.6l-11.3.8,2.8-5.1,1.7-1.5v-2.2l-1.6-2.5-39.8,2-39.1.7,4.1,24.4-.7,39,2.6,2.3,2.8-1.3,3.2.8.2,11.9,52.3-1.3,1.2-1.5.5-3-1.5-2.3-.5-2.2.9-.7v-.8l-1.7-1.1v-.7l1.5-.9-1.2-1.1,1.7-7.1,3.4-1.6v-.8l-1.1-1.4,2.9-5.4h1.9l1.5-1.2-.3-5.2,3.1-4.5,1.8-.6-.5-3.1,1.6-.7h0Z"/>
      <path class="cls-1" d="M374.6,323.3l-16.5-1-51.7-4.8-52.6-6.5,11.5-88.3,44.9,5.7,37.5,3.4,33.1,2.4-1.4,22.1-4.8,67Z"/>
      <path class="cls-1" d="M873.5,178.9l.4-1.1-3.2-12.3v-.3l-15,3.4v.7l-.9.3-.5-.7-10.5,2.4,2.8,16.3,1.8,1.5-3.5,3.4,1.7,2.2,5.4-4.5,1.7-1.3h.8l2.4-3.1h1.4c0,.1,2.9-1,2.9-1h2.1l5.3-2.7,2.8-.9,1-1,1.5.5-.4-1.8h0Z"/>
      <path class="cls-1" d="M822.2,226.6l-1.6.3-1.5,1.1-1.2,2.1,7.6,27.1,10.9-2.3-2.2-7.6-1.1.5-3.3-2.6-.5-1.7-1.8-1-.2-3.7-2.1-2.2-1.1-.8-1.2-1.1-.4-3.2.3-2.1,1-2.2-1.6-.6h0Z"/>
      <path class="cls-1" d="M751.7,445.1l-4-.7-1.7-.9-2.2,1.4v2.5l1.4,2.1-.5,4.3-2.1.6-1-1.1-.6-3.2-50.1,3.3-3.3-6-48.8,5.1-.5,2.9,2.5,2.8,1.7.7.9,1.2-.4,7.3-1.1.6.5.4,1-.3.7-.8,10.5-2.7,9.2-.5,8.1,1.9,8.5,5,2.4.8,2.2,2v2.7h2.3l1.9-1h2.5c0,.1,2-.7,2-.7l2.9-2,3.1-2.9,1.1-.4.6.5h1.4l.5-.8-.5-1.2-.6-.6.2-.8,2-1.1,5-.4.8,1h1c0,.1,2.3,1.1,2.3,1.1l3,1.8,1.2,1.7,1.1,1.2,2.8,1.4v2.4l2.8,1.9h1c0,.1,1.6,1.5,1.6,1.5l.7,1.6,1,.2.8,2.1.7.6,1-1.1h2.9c0,.1.5,1.5.5,1.5l1.1.9v1.3l2.9,2.2.2,9.6-1.8,5.8,1,1.2-.2,3.4-.8,1.4.7,1.2,2.3,2.3.3,1.5.8,1-.4-1.9,1.3-.6.8-3.6-3-1.2v-.6l2.7-.4.9,2.6,1.1.6v-2l1.2.3.6.8v.7l-3,4.2-.2,1.1-1.7,1.9v1.1l3.7,3.8,5.3,7.9,1.8,2.1v1.8l2.8,4.6,2.3.6.7-1.2-2.1.3-3-4.5.2-1.4,1.5-.8v-1.5l-.6-1.3.9-.9.4.9.7.5v4l-1.2-.6-.8.9,1.4,1.6,1,2.6,1.2-.6,2.3,1.2,2.1,2.2,1.6,5.1,3.1,4.8.8-1.3,2.8-.5,3.2,1.3.3,1.7,3.3,3.8v1.1l2.3,2.7-.7.5v2.7l2.7,1.4h1.5l2.7-1.8,1.5.3,1.1.4,2.3-1.7.2-.7,1.2.3,2.4-1.7,1.3-2.3-.7-3.2-.2-1.3,1.1-4,.6-.2.6,1.6.8-1.8-.8-7.2-.4-10.5-1-6.8-.7-1.7-6.6-11.1-5.2-9.1-2.2-3.3-1.3-3.6-.2-3.4.9-.3v-.9l-1.1-2.2-4-4-7.6-9.7-5.7-10.4-4.3-10.7-.6-3.7-1.2-1-.5-3.8-3.6.3h0ZM760.9,579.6h1.7l-.7-1.1-1,1.1ZM768.2,578.5v-.7l1.6-.2,3.7-3.3,1.5-.6,2.4-.9.3,1.3,1.7.8-2.6,1.2h-2.4l-3.9,2.5h-2.3ZM785.4,570.9l-3,1.4-1,1.3h1.1l2.9-2.7ZM789.2,568l-1.1.3-1.4,2,1.1-.2,1.5-1.6v-.5h0ZM797.5,552.3l-1.7,5.6-.8,1-1,2.6-1.2,1.6-.7,1.7-1.9,2.2v.9l2.7-2.8,2.4-3.5.6-2,2.1-4.9-.5-2.4h0Z"/>
      <path class="cls-1" d="M165.3,183.1l-24.4-5.4,8.5-37.3,2.9-5.8.4-2.1.8-.9-.9-2-2.9-1.2.2-4.2,4-5.8,2.5-.8,1.6-2.3v-1.6c-.1,0,1.7-1.6,1.7-1.6l3.2-5.5,4.2-4.8-.5-3.2-3.5-3.1-1.6-3.6,1.1-4.3-.7-4,12.7-56.1,14.2,3-4.8,22,3.7,7.4-1.6,4.8,3.6,4.8,1.9.7,3.9,8.3v2.1l2.3,3h.9l1.4,2.1h3.2v1.6l-7.1,17-.5,4.1,1.4.5,1.6,2.6,2.8-1.4,3.6-2.4,1.9,1.9.5,2.5-.5,3.2,2.5,9.7,2.6,3.5,2.3,1.4.4,3v4.1l2.3,2.3,1.6-2.3,6.9,1.6,2.1-1.2,9,1.7,2.8-3.3,1.8-.6,1.2,1.8,1.6,4.1h.9c0,.1-8.5,54.9-8.5,54.9l-47.9-8.2-23.3-4.7h0Z"/>
      <path class="cls-1" d="M629.2,214.8l-5.1,2.3-4.7-1.4,4.1,50.2-1,5.2v2l2.4,3.5v.7l-.3.9.9,1.9-.3,2.4-1.6,1.8-1.3,4.2-3.8,5.3v7h-1.1l.9,1.9,1.1.8.6-1-.7-1.7,4.6-.5.2,1.2,1.1.2.4-.9-.6-1.3.3-.8,1.3.8,1.7-.4,1.7.6,3.4,2.1,1.8-2.8,3.5-2.2,3,3.3,1.6-2.1.3-2.7,3.8-2.3.2,1.3,1.9,1.2,3-.2,1.2-.7v-3.4l2.6-3.7,4.6-4.4v-1.7l1.1-3.8,2.2,1,6.7-4.5-.4-1.7-1.5-2.1,1-1.9-6.6-57.2v-1.4l-32.5,3.4-1.7,1.6h0Z"/>
      <path class="cls-1" d="M556.9,183l2.1,1.6.6,1.1-1.6,3.3v2.5l1.9,5.5,2.7,1.5,3.3.7,1.3,2.8-.5.6,2.5,1.3,1.7,1.7-.2,1.6.9,1.1h1.2l2.8,3.5v2.6l-1.2,3.2-1.1,1.3v2.4l-1.8,2.2-4.2,1.8h-2.4l-3,.8-1,4,1.1,1.6,1,.3.9,1.4v3.5l-.6.5-1.7,2.4v2.4l-1,1.2-.9.3-1.8.6-1,1.5.7.9v2.3l-.8.7-1.5-.8-1.1-1.1-.6-1.6-1.7-1.3-14.3.8-27.2,1.2h-25.9c0-.1-1.8-4.5-1.8-4.5l.7-2.2-.8-3.3.2-2.9-1.3-.7-.4-6.1-2.8-5-.2-3.7-2.2-4.3-1.3-3.7v-1.4l-.6-1.7v-2.3l-.5-.9-.7-1.7-.3-1.3-1.3-1.2,1-4.3,1.7-5.1-.7-2-1.3-.4-.4-1.6,1-.5v-1.1c.1,0-1.2-1.5-1.2-1.5v-1.6c.1,0,2.3.1,2.3.1h28.2l36.3-.9,18.6-.7.2,2.6h0Z"/>
      <path class="cls-1" d="M459.1,259.5l-43.7-1.2-36-2-4.8,67,67.7,2.9h62c0,.1-.5-48-.5-48l-3.2-.7-2.6-4.7-2.5-2.5.5-2.3,2.7-2.6v-1.2c.1,0-1.4-2.1-1.4-2.1l-.9,1-2-.6-2.9-3h-32.4Z"/>
      <path class="cls-1" d="M692.1,322.5l-20.5,1.4-5.2.8-17.4,1-2.6.8-22.6,2-.7-.6h-3.7l1.2,3.2-.6.9-23.3,1.5,1-2.7,1.4.9.7-.4,1.2-4.1-1-1,1-2,.2-.9-1.3-.8-.3-1.8,4-3.7,6.9,3,1.5-.3.4-2.4-1.7-1.8.4-3.3,1-.5,1.2.6.6-1.2,3.7-.6v-.9l-1.4-2.2v-1.1l2.1-2.7v-.9l1.1.8.6-1-.7-1.7,4.6-.5.2,1.2,1.1.2.4-.9-.6-1.3.3-.8,1.3.8,1.7-.4,1.7.6,3.4,2.1,1.8-2.8,3.5-2.2,3,3.3,1.6-2.1.3-2.7,3.8-2.3.2,1.3,1.9,1.2,3-.2,1.2-.7v-3.4l2.6-3.7,4.6-4.4v-1.7l1.1-3.8,2.2,1,6.7-4.5-.4-1.7-1.5-2.1,1-1.9,1.3.5h2.2c0,.1,1.9-.7,1.9-.7l2.9,1.2,2.2,3.4v1l4.1.7,2.3-.2,1.9,2.1,2.2.2v-1l1.9-.8,3,.8,1.2.8,1.3-.7h.9l.6-1.7,3.4-1.8.5.8.8,2.9,3.5,1.4,1.2,2.1v1.1l.5,1-.6,3.6,1.9,1.6.8,1.1,1,.6v.9l4.3,5.6h1.4l1.5,1.8,1.2.3h1.4c0-.1-4.9,6.5-4.9,6.5l-2.9,1-3,3-.4,2.2-2.1,1.3v1.7l-1.5,1.4-1.8.5-.5,1.9-1,.4-6.9,4.2-5.6,1.4h0ZM594.1,333.8l-.7-.7.2-1h1.1l.7.7-.3,1h-1Z"/>
      <path class="cls-1" d="M602.5,472.8l-1.2-1.8.3-1.3-4.8-6.8.9-4.6,1-1.4v-1.4l-35.9,2,1.7-11.9,2.4-4.8,6-8.4-1.8-2.5h2v-3.3l-2.4-2.5.5-1.7-1.2-1-1.6-7.1.6-1.4-52.3,1.3.5,19.9.7,3.4,2.6,2.8.7,5.4,3.8,4.6.8,4.3h1v7.3l-3.4,6.4,1.3,2.3-1.3,1.5.7,3v4.3l-2.3,3.5v.8l-1.8,1.2,1,1.8,1.2,1.1,1.6-1.3,5.3-.9h6.1c0-.1,9.6,3.7,9.6,3.7l8,1,1.5-1.4,1.8-.2,4.8,2.2,1.6-.4,1.1-1.5-4.2-1.8-2.2,1-1.1-.2-1.4-2,3.3-2.2h1.6c0-.1,0,1.6,0,1.6h1.5c0-.1,3.4-.4,3.4-.4l.4,2.3,1.1.4.6,1.9,4.8,1,1.7,1.6v.7h-1.2l-1.5,1.7,1.7,1.2,5.4,1,2.7,2.8,4.4-1-3.7.2v-.6l2.7-.7.2-1.8,1.2-.3v-1.4h1.1v1.7h2.5c0,.1.8-1.8.8-1.8l.9.3.2,2.5,1.2.2-1.8,2,2.6-.9,2-1.1,2.9-3.3h-.7l-1.3,1.2h-.4c0-.1-.5-.9-.5-.9l.9-1.2v-2.3l1.1-.8.7.7,1-.8h1c0-.1.6,1.2.6,1.2l-.6,1.9h2.4l5.1,1.7.5,1.3,1.6,1.4h2.8c0,.1,1.3.8,1.3.8l1.8-1,.9-1.7v-1.7h-1.4l-1.2-1.4-1.1-1.1-3.2-.9-2.6.2-4.2-2.4v-2.3l1.3-1,2.4.6-3.1-1.6.2-.8h3.6l2.6-3.5-2.6-1.8.8-1.5-1.2-.8h-.8l-2,2.1v2.1l-.6.7h-1.1c0-.1-1.6-1.5-1.6-1.5h-1.3v-1.5l.6-.7.8.7,1.7-1.6.7-1.6.8-.3-.6-.7h0ZM592.2,470.1l1.9,1,.8,1.1h2.5c0,.1,1.5.9,1.5.9l.2,1.4-.4.6-.9-1.5-1.4,1.2-.9,1.4-2.8.8h-1.6c0,.1-3.7-.9-3.7-.9v-1.7l2.1-2,1.1-2.4h1.6ZM587.5,471.3v1.1l-1.8,2h-1.2v-2.2l1.6-1.5,1.4.6Z"/>
      <path class="cls-1" d="M875,128.7l.6,4,3.2,2,.8,2.2,2.3,1.4,1.4-.3,1-3-.8-2.9,1.6-.9.5-2.8-.6-1.3,3.3-1.9-2.2-2.3.9-2.4,1.4-2.2.5,3.2,1.6-2,1.3.9,1.2-.8v-1.7l3.2-1.3.3-2.9,2.5-.2,2.7-3.7v-.7l-.9-.5v-3.3l.5-1.1.2,1.6,1-.5-.2-3.2-.9.3v1.2l-1.3-1.4.9-1.4h.6l1.1-.3.5,2.8,2-.3,2.9.7v-1l-1.1-1.2h1.3v-2.2l.6.8.3,1.9,2.1,1.5.2-1,.9-.2-.3-.8.8-.6v-1.6l-1.7-.2-2,.7,1.4-1.6.7-.8,1.3-.2.4,1.3,1.7,1.6.4-2.1,2.3-1.2-.9-1.3v-1.7l1.2.5h.7l1.7-1.4.4-2.3,2.2.3v-.7l.3-1.6.5,1.4,1.5-1,2.3-4.1v-2.2l-1.5-2-3-3.2h-1.9l-.8,2.2-2.9-3,.3-.8v-1.5l-1.6-4.5-.8-.2-.7.4h-4.8l-.3-3.6-8.1-26-7.3-3.7h-2.9l-6.7,6.5-2.7-1-1-3.9h-2.7l-6.9,19.5.7,6.2-1.7,2.4-.4,4.6,1.3,3.7.8.2v1.6l-1.6,4.5-1.5,1.4-1.3,2.2-.4,7.8-2.4-1-1.5.4,11.9,36.8h.1ZM909.6,104l-1,.8v1.3l.7-.8.9.8.4-.5,1.1.2-1-.8.4-.8-1.5-.2h0ZM907.9,106.6l-1,1.1.5.4v1h1v-1.8l-.5-.7ZM904.9,105l.9,1.3,1,.5.3-1v-1.8l-1.3-.7-.4,1.2-.5.5ZM903.9,110l-1.7-1.7,1.6-2.4.8.3.2,1.1,1,.8v1.1l-1,1-.9-.2h0Z"/>
      <path class="cls-1" d="M822.9,269.3v-1.7h-.8v1.8h.8ZM834.7,265.4l1.2-2.2v-2.5l-.5-.6-.7.9-.2,2.1-.8,1.4-.3,1.1-4.6,1.6-.7.8-1.3.2-.4.9-1.3.6-.3-2.5.4-.7-.8-.5.2-1.5-1.6,1v-2l1.2-.3-1.9-.4-.7-.8.4-1.3-.8-.6-.7,1.6.5.8-.7.6-1.1.5-2-1-.2-1.2-1-1.1-1.4-1.7,1.5-.8-1-.6v-.9l.6-1,1.7-.3-1.4-.6v-.7h-1.4c0-.1-.4,1-.4,1l-.6.3v-3.4l1.1-1,.8.7v-1.6l-.9-.9-.9,1.1-1,1.4-.6-1,.2-2.4.9-1,.9.9,1.2-.7-.4-1.7-1,1-.9-2.1-.2-1.7,1.1-2.4,1.1-1.4,1.4-.2-.5-.8.5-.6-.3-.7.2-2.1-1.5.4-.8,1.1,1,1.3-2.6,3.6-.9-.4-.7.9-.6,2.2-1.8.5,1.3.6,1.3,1.3-.2.7.9,1.2-1.1,1,.5.3-.5,1.3v2.1l-.5,1.3.9,1.1.7,3.4,1.3,1.4,1.6,1.4.4,2.8,1.6,2,.4,1.4v1h-.7l-1.5-1.2-.4.2-1.2-.2-1.7-1.4-1.4-.3-1,.5-1.2-.3-.4.2-1.7-.8-1-1-1-1.3-.6-.2-.8.7-1.6,1.3-1.1-.8-.4-2.3.8-2.1-.3-.5.3-.4-.7-1h1c0-.1,1-1,1-1l.4-1.8,1.7-2.6-2.6-1.8-1,1.7-.6-.6h-1.6c0-.1-.4-.5-.4-.5v-.5l-1.6-.6-.8.3h-1.2c0-.1-.7-.8-.7-.8l-.5-.2-.2-.7.6-.8v-.9l-1.2-.2-1-.9h-.9c0,.1-1.6-.2-1.6-.2l-.9-.4.2-1.6-1-.5-.2-.7h-.7l-.8-1.2.2-1-2.6.4-2.2-1.6-1.4.3-.9,1.4h-1.3l-1.7,2.9-3.3.4-1.9-1-2.6,3.8-2.2-.3-3.1,3.9-.9,1.6-1.8,1.6-1.7-11.4,60.5-11.8,7.6,27.1,10.9-2.3v8.4l-1.1,1.8-.6.3h0ZM821.3,263.6l-1.3.9.8,1.8,1.7.8-.4-1.6-.8-1.9h0Z"/>
      <path class="cls-1" d="M899.9,174.2h3.4l.9-.6v-1.3l-1.8-1.8.4,1-1.5,1.5h-2.3v.8l.9.4h0ZM890.9,176l-1.2-.6,1-.8.6-2.1,1.2-1,.8-.2.6.9,1.1.2.6-.6.5,1.9-1.3.3-2.8.7-1.1,1.3h0ZM856,152.6l18.4-3.8,1-1.5.3-1.7,1.9-.6.5-1.1,1.7-1.1,1.3.3,1.7,3.3,1,.4,1.1-1.3.8,1.3v1.1l-3,2.4.2.8-.9,1,.4.8-1.3.3.9,1.2-.8.7.6,1,.9-.2.3-.8,1.1.6h1.8l2.5,2.6.2,2.6h1.8c0,.1.8,1.2.8,1.2l.6,2,1,.7h3.8c0-.1.8-1,.8-1l1.6-1.2,1.1-.3-1.2-2.1-.3.9-1.5-3.6h-.8l-.4.9-1.2-1,1.3-1.1,1.8.4,2.3,2.1,1.3,2.7,1.2,3.3-1,2.8v-1.8l-.7-1-3.5,2.3-.9-.3-1.6,1v1.2l-2.3,1.2-2,2.1-2,1.9h-1.2l3.3-3.3.5-1.9-.5-.6-.3-1.3h-.9c0-.1,0,1.2,0,1.2l-1,1.2h-1.2l-.3,1.1.4,1.2-1.2,1.1-1.1-.2-.4,1-1.4-3-1.3-1.1-2.6-1.3-.6-2.2h-.8l-.7-2.6-6.5,2v-.3l-15,3.4v.7l-.9.3-.5-.7-10.5,2.4-.7-1,.5-15,12.4-2.7h0Z"/>
      <path class="cls-1" d="M663.3,209.8v1.4l21.5-3.5.5-1.2,3.9-5.9v-4.3l.8-2.1,2.2-.8,2-7.8,1-.5,1,.6-.2.6-1.1.8.3.9.8.4,1.9-1.4.4-9.8-1.6-2.3-1.2-3.7v-2.5l-2.3-4.4v-1.8l-1.2-3.3-2.3-3-2.9-1-4.8,3-2.5,4.6-.2.9-3,3.5-1.5-.2-2.9-2.8v-3.4l1.4-1.9,2-.2,1.2-1.7.2-4,.8-.8h1.1c0-.1.9-1.8.9-1.8l-.2-9.6-.3-1.3-1.2-1.2-1.7-1v-1.8l.6-.6,1.8.8-.3-1.7-1.9-2.7-.7-1.6-1.1-1.1h-2.2l-8.1-2.9-1.4-1.7-3.1-.3-1.2.3-4.4-2.3h-1.4l.5,1h-2.7v.5l.6.6-2.5,2.1v1.8l1.6,2.3,1.5.2v.6l-1.5.5h-2.1c0-.1-2.8,2.4-2.8,2.4v2.5l.5,5.8-2.2,3.4.8-4.5-.8-.6-.9,5.3-1-2.3.5-2.3-.5-1,.6-1.3-.6-1.1,1-1v-1.2l-1.3.6-1.3,3.1-.7.7-1.3,2.4-1.7-.2v1.2h-1.7l.2,1.5.2,2-3,1.2v1.3l1.1,1.7v5.2l-1.4,4.4-1.7,2.5,1.2,1.4.8,3.5-1,2.5-.2,2.1,1.7,3.4,2.5,4.9,1.2,1.9,1.6,6.9v8.8l-1,3.9-2,3.2-.9,3.7-2,3-1.2,1,32.4-3.4h.1ZM567.5,113l3,3.8,17,3.8,1.4,1,4,.8.7.5,2.8-.2,4.9.8,1.4,1.5-1,1,.8.8,3.8.7,1.2,1.2v4.4l-1.2,2.8h2c0,.1,1-.7,1-.7l.9.8-1.1,3.1,1,1.6,1.2.3.8-1.8,2.9-4.6,1.6-6,2.3-2-.5-1.6.5-.9,1,1.6-.3,2.2,2.9-2.2.2-2.3,2.1.6.8-1.6.7.6-.7,1.5-1,.5-1,2,1.4,1.8,1.1-.5-.5-.7,1-1.5,1.9-1.7h.8l.2-2.6,2-1.8,7.9-.5,1.9-3.1,3.8-.3,3.8,1.2,4.2,2.7.7-.2-.2-3.5.7-.2,4.5,1.1,1.5-.2,2.9-.7,1.7.4h1.8v-1l-.7-.9-1.5-.2-1.1-.8.5-1.4-.8-.3h-2.6v-.9l1.1-.8.6.8.5-1.8-.7-.7.7-.2-1.4-1.3.3-1.3v-1.9h-1.2l-1.5,1h-1.9l-.5,1.9-1.9.2-.3-1.2h-2.2l-1,1.3h-.7l-.2-.9-2.6.4v-4.8l.9-2h-.7l-1.8,1h-2.2l-3.8,2.7-6.2.3-4.1.8-1.9,1.5-1.4,1.3-2.5,1.7-.3.8-.6-1.7-1.3-.6v.6l.7.7v1.3l-1.5-.6h-.6l-.3,1.2-2-1.9-1.3-.2-1.3,1.5h-3.2l-.5-1.5-2-1.9-1.3-1.6v-.7l-1.1-1.4-2.6-1.2h-3.3l-1.1-1h-1.4l-.7.4-2.2,2.2-.7,1.1-1-.7.2-1,.8-2.1,3.2-5,.8-.2,1.7-1.9.7-1.6,3-.6.8-.6v-1l-.6-.5-4.5.2-2,.5-2.6,1.2-1.2,1.2-1.7,2.2-1.8,1-3.3,3.4-.4,1.6-7.4,4.6-4,.5-1.8.4-2.3,3-1.8.7-4.4,2.3,1.9.7h-.1ZM668.2,116.8h3.8l.6-.4-.2-2-1.7-1.8h-1.9v.6l1.1.4-1.6.8-.3,1-.6-.6-.4.8,1.3,1.2h0ZM593.1,74.9l-2.3.2-2.7,1.9-7.1,5.3.8,1,1.8.3,2.8-2-1.1-.5,2.3-1.6h1l3-1.9v-.9l1.5-1.8ZM634.2,137.7v1l2.1,1.6-.2-2.4-1.9-.2h0ZM633.5,140.5h1.1v1h-1v-1h0ZM654.9,119.2v.9l.8-.2v-.5s-.8-.2-.8-.2ZM659.6,122.3v-1.1l-1.7-.2-.6-.4h-.9l-.4.3.9.4,1.1,1.1h1.6ZM641.6,123.5v1.1l-.4.7.2,2.2.4.3h.7l.5-.8v-1.6l-.2-.6v-1.1l-1.2-.2Z"/>
      <path class="cls-1" d="M464.7,68.6l-1.1,2.8.8,1.4-.3,5.1-.5,1.1,2.7,9.1,1.3,2.5.7,14,1,2.7-.4,5.8,2.9,7.4.3,5.8v2.1c-.1,0-.2,2.2-.2,2.2l-.9,2-3.1,1.9-.3,1.2,1.7,2.5.4,1.8,2.6.6,1.5,1.9-.2,39.5h28.2l36.3-.9,18.6-.7-1.1-4.5-.2-3-2.2-3-2.8-.7-5.2-3.6-.6-3.3-6.3-3.1-.2-1.3h-3.3l-2.2-2.6-2-1.3.7-5.1-.9-1.6.5-5.4,1-1.8-.3-2.7-1.2-1.3-1.8-.3v-1.7l2.8-5.8,5.9-3.9-.4-13,.9.4.6-.5v-1.1l1-.6,1.4,1.2h.7l-1.2-2.3,4.3-3.1,3.1-3.7,1.6-.8,4.7-5.9,6.3-5.8,3.9-2.1,6.3-2.7,7.6-4.5-.6-.4-3.7.7h-2.8l-1-1.5-1.4-.9-9.8,1.2-1-2.8h-1.6l-1.7.7-3.7,3.1h-4.1l-2.1-1-.3-1.7-3.9-.8-.6-1.6-.7-1.3-1,.9h-2.6l-9.9-5.4h-2.9l-.8-.7-3.1,1.3-.8,1.3-3.3.8-1.3-.2v-1.7l-.7-.9h-5.9l-.4-1.4h-2.6l-1.1.4-2.4-1.7.3-1.4-.6-2.4-.7-1.1-.2-3-1-3.1-2.1-1.6h-2.9v8c.1,0-30.8-.4-30.8-.4l2.4,7.3h0Z"/>
      <path class="cls-1" d="M623.8,468.6h-5c0,.1-2.4-1.4-2.4-1.4l-7.9,2.5-.9-.7-.5.2v1.6h-.7c0,.1-2.6,2.8-2.6,2.8h-.7c0-.1-.6-.8-.6-.8l-1.2-1.8.3-1.3-4.8-6.8.9-4.6,1-1.4v-1.4l-35.9,2,1.7-11.9,2.4-4.8,6-8.4-1.8-2.5h2v-3.3l-2.4-2.5.5-1.7-1.2-1-1.6-7.1.6-1.4,1.2-1.5.5-3-1.5-2.3-.5-2.2.9-.7v-.8l-1.7-1.1v-.7l1.5-.9-1.2-1.1,1.7-7.1,3.4-1.6v-.8l-1.1-1.4,2.9-5.4h1.9l1.5-1.2-.3-5.2,3.1-4.5,1.8-.6-.5-3.1,38.3-2.6,1.3,2-1.3,67,4.4,33.2-1.5,1.3h0Z"/>
      <path class="cls-1" d="M555.3,248.9l-1.1-1.1-.6-1.6-1.7-1.3-14.3.8-27.2,1.2h-25.9c0-.1,1.3,1.2,1.3,1.2l-.3,1.4,2.1,3.7,3.9,6.3,2.9,3,2,.6.9-1,1.5,2.1v1.2c-.1,0-2.8,2.6-2.8,2.6l-.5,2.3,2.5,2.5,2.6,4.7,3.2.7.5,48.1.2,10.8,39.1-.7,39.8-2,1.6,2.5v2.2l-1.7,1.5-2.8,5.1,11.2-.8,1-2,1.2-.5v-.7l-1.2-1.1-.6-1,1.7.2.8-.7-1.4-1.5,1.4-.5v-1l-.5-1v-1.3l-.7-.7.2-1h1.1l.7.7-.3,1,.8.7.8-1,1-2.7,1.4.9.7-.4,1.2-4.1-1-1,1-2,.2-.9-1.3-.8h-2.8l-1.4-1.5-1.8-3.8v-1.9l.8-.6v-1.3l-1.6-1.9-.9-2.5-2.7-4.1-4.8-1.3-7.4-7.1-.4-2.4,2.8-7.6-.4-1.9,1.2-1.1v-1.3l-2.8-1.5-3-.7-3.4,1.2-1.3-2.3.6-1.9-.7-2.4-8.6-8.4-2.2-1.5-2.5-5.9-1.2-5.4,1.4-3.7-1.5-.8h0Z"/>
      <path class="cls-1" d="M247,130.5l57.3,7.9,51,5.3,2-20.7,5.2-66.7-53.5-5.6-54.3-7.7-65.9-12.5-4.8,22,3.7,7.4-1.6,4.8,3.6,4.8,1.9.7,3.9,8.3v2.1l2.3,3h.9l1.4,2.1h3.2v1.6l-7.1,17-.5,4.1,1.4.5,1.6,2.6,2.8-1.4,3.6-2.4,1.9,1.9.5,2.5-.5,3.2,2.5,9.7,2.6,3.5,2.3,1.4.4,3v4.1l2.3,2.3,1.6-2.3,6.9,1.6,2.1-1.2,9,1.7,2.8-3.3,1.8-.6,1.2,1.8,1.6,4.1h.9c0,.1,2-10.6,2-10.6h0Z"/>
      <path class="cls-1" d="M402.5,191.1l38,1.6,3.4,3.2,1.7.2,2.1,2h1.8c0-.1,1.8-2.1,1.8-2.1l1.5.6,1-.7.7.5.9-.4.7.4.9-.4,1,.5,1.4-.6,2,.6.6,1.1,6.1,2.2,1.2,1.3.9,2.6,1.8.7,1.5-.2.5.9v2.3l.6,1.7v1.4l1.3,3.7,2.2,4.3.2,3.7,2.8,5,.4,6.1,1.3.7-.2,2.9.8,3.3-.7,2.2,1.8,4.4,1.3,1.3-.3,1.4,2.1,3.7,3.9,6.3h-32.4l-43.7-1.2-36-2,1.4-22.1-33.1-2.4,3.7-44.2,51.1,3.5h0Z"/>
      <path class="cls-1" d="M167.6,296.8l-3.4,17.5-2.4,2.9h-2l-1.2-2.7-3.7-1.4-3.5.6-1,13.6.5,4.9-.5,2.9-1.4,3-70.4-105-1.1-3.5,16.4-63.1,47,11.2,24.4,5.4,23.3,4.7-21,109h0Z"/>
      <path class="cls-1" d="M862.6,93.6h-1.3l-1-1-1.9,1.4-.5,6.1,1.2,2.3-1.1,3.5,2.1,2.8-.4,1.7v1.3l-1,2.1-1.4.4-.6,1.3-2.1,1-.7,1.5,1.4,3.4-.5,2.5.5,1.5-1,1.9.4,1.9-1.3,1.9.2,2.2-.7,1.1.7,4.5.7,1.5-.5,2.6.9,1.8-.2,2.5-.5,1.3v1.4l2,2.6,18.4-3.8,1-1.5.3-1.7,1.9-.6.5-1.1,1.7-1.1,1.3.3.8-4.8-2.3-1.4-.8-2.2-3.2-2-.6-4-11.9-36.8-.5,1.7h0Z"/>
      <path class="cls-1" d="M842.5,195.4l-14.6-4.9-1.8,2.5v2.2l-2.9,5.4,1.5,1.8-.7,2-1,1,.5,3.6,2.7.9,1,2.8,2.1,1.1,4.2,3.2-3.3,2.6-1.6,2.3-1.8,3-1.6.6-1.4,1.7-1,2.2-.3,2.1.8.9.4,2.3,1.2.6,2.4,1.5,1.8.8,1.6.8v1.1h.9c0,.1,1.1-1.1,1.1-1.1l.8.4,2.1.2-.2,2.9.2,2.5,1.8-.7,1.5-3.9,1.6-4.8,2.9-2.8.6-3.5-.6-1.2,1.7-2.9v-1.2l-.7-1.1,1.2-2.7-.3-3.6-.6-8.2-1.2-1.4v1.4l.5.6h-1.1l-.6-.4-1.3-.2-.9.6-1.2-1.6.7-1.7v-1l1.7-.7.8-2.1.4-5.9h0Z"/>
      <path class="cls-1" d="M357.5,332.9h-.8l-7.9,99.3-31.8-2.6-34.4-3.6-.3,3,2,2.2-30.8-4.1-1.4,10.2-15.7-2.2,17.4-124.1,52.6,6.5,51.7,4.8-.6,10.6h0Z"/>
      <path class="cls-1" d="M872.9,181.6h-1.3c0,.1-.5,1.1-.5,1.1l1.8-1.1ZM842.3,204.3l.7.6,1.3-.3,1.1.3.9-1.3h1.9l2.4-.9,5.1-2.1-.5-.5-1.9.8-2,.9.2-.8,2.6-1.1.8-1h1.2c0,.1,4.1-2.2,4.1-2.2v.7l-4.2,3,4.5-2.8,1.7-2.2h1.5c0-.1,4.5-3.2,4.5-3.2l3.2-3.1,3-2.3,1-1.2h-1.7c0-.1-1,1.1-1,1.1l-.2.7-.9.7-.8-1.1-1.7,1v.9l-1-.2.5-.9-1.2-.7-.6.9.9.3.2.5-.3.5-1.4,2.6h-1.9l.9-1.8.9-.6.3-1.7,1.4-1.6.9-.8,1.5-.7-1.2-.2-.7.9h-.7l-1.1.8-.2,1-2.2,2.1-.4.9-1.4.9-7.7,1.9.2.9-.9.7-2,.3-1-.6-.2,1.1-1.1-.4v1h-1.1c0-.1-1.2.4-1.2.4l-.2,1.1h-1l.2,1h-.7l.2,1-1.8.4-1.5,2.3-.2,2.1h0ZM841.5,203.9l-1.6.4v1l-.7,1.6.6.7,2.4-2.3v-.9l-.7-.5ZM831.4,108.7l-.6,1.9,1.4.9-.4,1.5.5,3.2,2.2,2.3-.4,2.2.6,2-.4,1-.3,3.8,3.1,6.7-.8,1.8.9,2.2.9-1.6,1.9,1.5,3,14.2-.5,2,1.1,1-.5,15,.7,1,2.8,16.3,1.8,1.5-3.5,3.4,1.7,2.2-1.3,3.3-1.5,1.7-1.5,2.3-.2-.7.4-5.9-14.6-4.9-1.6-1.1-1.9.3-3-2.2-3-5.8h-2l-.4-1.5-1.7-1.1-70.5,13.9-.8-6,4.3-3.9.6-1.7,3.9-2.5.6-2.4,2.3-2,.8-1.1-1.7-3.3-1.7-.5-1.8-3-.2-3.2,7.6-3.9,8.2-1.6h4.4l3.2,1.6h.9c0-.1,1.8-1.7,1.8-1.7l3.4-.7h3l2.6-1.3,2.5-2.6,2.4-3.1,1.9-.4,1.1-.5.4-3.2-1.4-2.7-1.2-.7,2-1.3v-1.8h-1.6l-2.3-1.4v-3.1l6.1-6.1.7-2.4,3.7-6.3,5.9-6.4,2.1-1.7h2.5l20.6-5.1s.8,1.7.8,1.7Z"/>
      <path class="cls-1" d="M829,300.1l-29.1,6.1-39.4,7.3-29.4,3.5v5.2h-1.5c0-.1-1.4,1.1-1.4,1.1l-2.4,5.2-2.6-1.1-3.5,2.5-.7,2.1-1.5,1.2-.8-.8v-1.5l-.9-.2-4,3.3-.6,3.4-4.7,2.4-.5,1.2-3.2,2.6-3.6.5-4.6,3-.8,4.1-1.3.9h-1.5c0-.1-1.4,1.2-1.4,1.2v4.9l21.3-3,4.4-1.9h1.3c0-.1,7.3-4.4,7.3-4.4l23.2-2.2.4.5-.2,1.4.7.3,1.2-1.5,3.3,3v2.6l19.8-2.8,24.5,17.1,4-2.2,3-.7h1.7l1.1,1.1.8-2,.6-5,1.7-3.9,5.4-6.1,4.1-3.5,5.4-2.3,2.5-.4,1.3.4.7,1.1,3.3-6.6,3.3-5.3-.7-.3-4.4,6.8-.5-.8,2-2.2-.4-1.5-2-.5,1,1.3h-1.2c0,.1-1.2-1.7-1.2-1.7l-1.2,2-1.6.2,1-2.7.7-1.7-.2-2.9h-2.2c0-.1.9-1,.9-1l1.1.3h2.7c0,.1.8-.4.8-.4h2.3l2-1.9.2-3.2,1.3-1.4,1.2-.2,1.3-1-.5-3.7-2.2-3.8-2.7-.2-.9,1.6-.5-1-2.7.2-1.2.4-1.9,1.2-.3-.4h-.9l-1.8,1.2-2.6.5v-1.3l.8-1,1,.7h1l1.7-2.1,3.7-1.7,2-2.2h2.4l.8,1.3,1.7.8-.5-1.5-.3-1.6-2.8-3.1-.3-1.4-.4,1-.9-1.3-1.3-1.6h0ZM836,331.1l2.7-2.5,4.6-3.3v-3.7l-.4-3.1-1.7-4.2,1.5,1.4,1,3.2.4,7.6-1.7.4-3.1,2.4-3.2,3.2v-1.4h0ZM837.9,311.8l-.9-.2v1l2.5,2.2-.2-1.4-1.4-1.6h0ZM840.8,313.9l-1.4-2.8-2.2-3.4-2.4-3-2.2-4.3-.8-.7,2.2,4.3.3,1.3,3.4,5.5,1.8,2.1,1.3,1h0Z"/>
      <path class="cls-1" d="M464.7,68.6l-1.1,2.8.8,1.4-.3,5.1-.5,1.1,2.7,9.1,1.3,2.5.7,14,1,2.7-.4,5.8,2.9,7.4.3,5.8v2.1c-.1,0-29.6-.4-29.6-.4l-46-2.1-39.2-2.9,5.2-66.7,44.5,3.4,55.3,1.6,2.4,7.3h0Z"/>
      <path class="cls-1" d="M685.7,208.8l1.9-.4,3,1.3,2.1.6.7.9h1l1-1.5,1.3.8h1.5v1l-3.2.5-2,1.1,1.9.8,1.6-1.5,2.4-.4,2.2,1.5h1.5c0-.1,2.5-1.8,2.5-1.8l3.6-2.1,5.2-.3,4.9-5.9,3.8-3.1,9.3-5.1,4.9,29.9-2.2,1.2,1.4,2.1v2.2l.5,2-1.1,3.4v5.4l-1.1,3.6.5,1.1-.4,2.2-1.1.5-2,3.3-1.8,2h-.6l-1.8,1.7-1.3-1.2-1.5,1.8-.3,1.2h-1.3l-1.3,2.2v2.1l-.9.5,1.4,1.1v1.9l-1,.2-.7.8-1,.5-.6-2.1-1.6-.5-1,2.3-.3,2.2-1.1,1.3,1.3,3.6-1.5.8-.4,3.5h-1.5l-3.2,1.4-1.2-2.1-3.5-1.4-.8-2.9-.5-.8-3.4,1.8-.6,1.7h-.9l-1.3.7-1.2-.8-3-.8-1.9.8v1l-2.2-.2-1.9-2.1-2.3.2-4.1-.7v-1l-2.2-3.4-2.9-1.2-1.9.8h-2.2c0-.1-1.3-.6-1.3-.6l-6.6-57.2,21.4-3.5.9,1.1h0Z"/>
      <path class="cls-1" d="M501.5,398.6l-4.6-3.8-2.2-.9-.5,1.6-5.1.3-.6-1.5-5,2.5-1.6-.7-3.7.3-.6,1.7-3.6.9-1.3-1.2h-1.2c0,.1-2-1.7-2-1.7l-2.1.7-2-.5-1.8-2-2.5,4.2-1.2.8-1-1.8.3-2-1.2-.7-2.3,2.5-1.7-1.2v-1.5c-.1,0-1.4.5-1.4.5l-2.6-1.7-3,2.6-2.3-1.1.7-2.1h-2.3c0,.1-1.9-2.9-1.9-2.9l-3.5-1.1-2,2.3-2.3-2.2-1.4.4h-2c0,.1-3.5-1.8-3.5-1.8h-2.3c0,.1-1.2-.6-1.2-.6l-.5-2.9-2.3-1.7-1.1,1.5-1.4-1-1.2-.4-1.1,1-1.5-.3-2.5-3-2.7-1.3,1.4-42.7-52.6-3.2.6-10.6,16.5,1,67.7,2.9h62c0,.1.2,10.9.2,10.9l4.1,24.4-.7,39-6.4-1.9h0Z"/>
      <path class="cls-1" d="M93.9,166.5l47,11.2,8.5-37.3,2.9-5.8.4-2.1.8-.9-.9-2-2.9-1.2.2-4.2,4-5.8,2.5-.8,1.6-2.3v-1.6c-.1,0,1.7-1.6,1.7-1.6l3.2-5.5,4.2-4.8-.5-3.2-3.5-3.1-1.6-3.6-30.3-7.3-2.8,1-5.4-.9-1.8-.9-1.5,1.2-3.3-.4-4.5.5-.9.7-4.2-.4-.8-1.6-1.2-.2-4.4,1.3-1.6-1.1-2.2.8-.2-1.8-2.3-1.2-1.5-.2-1-1.1-3,.3-1.2-.8h-1.2l-1.2.9-5.5.7-6.6-4.2,1.1-5.6-.4-4.1-3.2-3.7h-3.7l-.4-1,.4-1.2-.7-.8h-1l-1.1,1.4-1.5-.2-.5-1.1h-1l-.7.5-2-1.9v4.3l-1.3,1.3-1.1,3.5v2.3l-4.6,12.3-13.2,31.3-3.2,4.6h-1.6v2l-5.2,7.1-.3,3.3,1,1.3v2.4c.1,0-1.1,1.1-1.1,1.1l-1.2,3v5.7c.1,0,1.3,2.9,1.3,2.9l66.1,18.6h.1Z"/>
      <path class="cls-1" d="M826.3,189.4l-1.9.3-3-2.2-3-5.8h-2l-.4-1.5-1.7-1.1-70.5,13.9-.8-6-4.2,3.4h-.9c0,.1-2.7,3.1-2.7,3.1l-3.3,1.7,4.9,29.9,3.2,19.7,17.4-2.9,60.5-11.8,1.2-2.1,1.5-1.1,1.6-.3,1.6.6,1.4-1.7,1.6-.6,1.8-3,1.6-2.3,3.3-2.6-4.2-3.2-2.1-1.1-1-2.8-2.7-.9-.5-3.6,1-1,.7-2-1.5-1.8,3-5.4v-2.2l1.7-2.5-1.6-1.1h0Z"/>
      <path class="cls-1" d="M883.2,170.7l-1.3-1.1-2.6-1.3-.6-2.2h-.8l-.7-2.6-6.5,2,3.2,12.3-.4,1.1.4,1.8,5.6-3.6v-3l-.7-.8.4-.6v-1.3l-1-.7,1.2-.4-.9-1.6,1.8.7.3,1.4.7,1.2-1.4-.8,1.1,1.7-.3,1.2-.6-1.1v2.5l.6-.9.4.9,1.3-1.5-.2-2.5,1.4,3.1,1-.9-1.4-3h0ZM878.5,182.9h.9l.5-.6-.8-1.3-.7.7v1.2h0Z"/>
      <path class="cls-1" d="M772.3,350.2l-19.7,2.8v-2.6l-3.4-3-1.2,1.5-.7-.3.2-1.4-.4-.5-23.2,2.2-7.3,4.3h-1.3c0,.1-4.4,2-4.4,2v1.9l-2,1-1.4,3.2.2,1.3,6.1,3.8,2.6-.3,3.1,4,.4,1.7,4.2,5.1,2.6,1.7,1.4.2,2.2,1.6,1.1,2.2,2,1.6,1.8.5,2.7,2.7v1.4l2.7,2.8,5,2.3,3.6,6.7.3,2.7,3.9,2.1,2.5,4.8.8,3.1,4.2.4.8-1.5h.6l1.8-1.5.5-2,3.2-2.1.3-2.4-1.2-.9.8-.7.8.4,1.3-.4,1.8-2.1,3.8-1.8,1.6-2.4v-.7l4.9-4.4v-.5l-1-.8,1.1-1.5h.8l.4.5.7-.8h1.3l.6-1.5,2.3-2.1-.3-5.4.8-2.3,3.6-6.2,2.4-2.2,2.2-1.1-24.5-17.1h0Z"/>
      <path class="cls-1" d="M396.5,125.9l46,2.1,29.5.4v2.2c-.1,0-1,2-1,2l-3.1,1.9-.3,1.2,1.7,2.5.4,1.8,2.6.6,1.5,1.9-.2,39.5h-2.2c0-.1-.1,1.5-.1,1.5l1.3,1.5v1.1c-.1,0-1.1.5-1.1.5l.4,1.6,1.3.4.7,2-1.7,5.1-1,4.3,1.3,1.2.3,1.3.7,1.7-1.5.2-1.8-.7-.9-2.6-1.2-1.3-6.1-2.2-.6-1.1-2-.6-1.4.6-1-.5-.9.4-.7-.4-.9.4-.7-.5-1,.7-1.5-.6-1.8,2h-1.8c0,.1-2.1-1.9-2.1-1.9l-1.7-.2-3.4-3.2-38-1.6-51.1-3.5,3.9-43.9,2-20.7,39.2,2.9h0Z"/>
      <path class="cls-1" d="M620.9,365.1l45.7-4,22.9-2.9v-4.9l1.5-1.3h1.5c0,.1,1.3-.8,1.3-.8l.8-4.1,4.6-3,3.6-.5,3.2-2.6.5-1.2,4.7-2.4.6-3.4,4-3.3.8.2v1.5l.9.8,1.5-1.2.7-2.1,3.5-2.5,2.6,1.1,2.4-5.2,1.4-1.2h1.5c0,.1,0-5.1,0-5.1l.3-.7-4.6.5-.2,1-28.9,3.3-5.6,1.4-20.5,1.4-5.2.8-17.4,1-2.6.8-22.6,2-.7-.6h-3.7l1.2,3.2-.6.9-23.3,1.5-.8,1-.8-.7h-1v1.3l.6,1v1l-1.5.5,1.4,1.5-.8.7-1.7-.2.6,1,1.2,1.1v.7l-1.2.5-1,2v.6l1.5,1-.4.7h-1.5v.5l.9.9v.8l-1.3.2-.5.8-1.6.2-.9.9.6.9h1.1c0-.1.5.8.5.8l-1.6,1.3.4,1.5-2-.6v.7l.3,1.1-.3,1.4-1.3-.8-.8.8h1.1v1.6l-.6,1,1.1.9-.3,1.5.8.7-.7,1-1.2-.5-.9,2.2-1.6.7,38.3-2.6h0Z"/>
      <path class="cls-1" d="M859.1,102.4l-1.1,3.5,2.1,2.8-.4,1.7v1.3l-1,2.1-1.4.4-.6,1.3-2.1,1-.7,1.5,1.4,3.4-.5,2.5.5,1.5-1,1.9.4,1.9-1.3,1.9.2,2.2-.7,1.1.7,4.5.7,1.5-.5,2.6.9,1.8-.2,2.5-.5,1.3v1.4l2,2.6-12.4,2.7-1.1-1,.5-2-3-14.2-1.9-1.5-.9,1.6-.9-2.2.8-1.8-3.1-6.7.3-3.8.4-1-.6-2,.4-2.2-2.2-2.3-.5-3.2.4-1.5-1.4-.9.6-1.9-.8-1.7,27.3-6.9,1.2,2.3h0Z"/>
      <path class="cls-1" d="M834.7,265.4l-1.1,2.8.5,1.1.4-1.1.8-3.1-.6.3h0ZM800.1,258.4l-.7-1h1c0-.1,1-1,1-1l.4-1.8-.2-.5v-.5l-.2-.7-.6-.5h-.4c0-.1-.5-.5-.5-.5l-.6-.6h-1.6c0-.1-.4-.5-.4-.5v-.5l-1.6-.6-.8.3h-1.2c0-.1-.7-.8-.7-.8l-.5-.2-.2-.7.6-.8v-.9l-1.2-.2-1-.9h-.9c0,.1-1.6-.2-1.6-.2l-.4.7-.4,1.6-.5,2.3-10-5.2-.2.9.9,1.6-.8,2.3v2.9l-1.1.8-.5,2.1-.9.8-1.4,1.8-.9.8-1,2.5-2.4-1.1-2.3,8.5-1.3,1.6-2.8-.5-1.3-1.9-2.3-.7v4.7l-1.5,1.7.4,1.5-2.1,2.2.4,1.9-3.7,6.3-1,3.3,1.5,1.2-1.5,1.9v1.4l-2.2,2-.7-1.1-4.3,3.1-1.5-1-.6,1.4.8.5-.5.9-5.5,2.4-3-1.8-.8,1.7-1.9,1.8h-2.3c0,.1-4.4-2.2-4.4-2.2v-1.5l-1.6-.7.8-1.2-.7-.6-4.9,6.6-2.9,1-3,3-.4,2.2-2.1,1.3v1.7l-1.5,1.4-1.8.5-.5,1.9-1,.4-6.9,4.2,28.9-3.3.2-1,4.6-.5-.3.7,29.4-3.5,39.4-7.3,29.1-6.1-.6-1.2h.4c0-.1.9.8.9.8v-1.4l-.4-1.9,1.6,1.2.9,2.1v-1.3l-3.4-5.5v-1.2l-.7-.8-1.3.7.5,1.4h-.8l-.4-1-.6.9-.9-1.1h-2.1c0-.1-.2.6-.2.6l1.5,2.1-1.4-.7-.5-1-.4.8h-.8c0,.1-1.5,1.8-1.5,1.8l.3-1.6v-1.4l-1.5-.7-1.8-.5-.2-1.7-.6-1.3-.6,1.1-1.7-1-2,.3.2-.9,1.5-.2.9.5,1.7-.8.9.4.5,1v.7l1.9.4.3.9.9.4.9,1.2,1.4-1.6h.6v-2.1l-1.4,1-.6-.9,1.5-.2-1.2-.9-1.2.6v-1.7l-1.8.2-2.2-1.1-1.8-2.2,3.6,2.2.9.3,1.7-.8-1.7-.9.6-.6-1-.5.8-.2-.3-.9,1.1.9.4-.8.4,1.3,1.2.8.6-.5-.5-.6v-2.5h-1.2c0-.1-1.6-.9-1.6-.9l.9-1.1h-2c0-.1-.4-.6-.4-.6l-1.4.6-1.4-.8-.5-1.2-2.1-1.2-2.1-1.8-2.2-1.9,3,1.3.9,1.2,2.1.7,2.3,2.5.2-1.7.6,1.3,2.3.5v-4l-.8-1.1,1.1.4v-1.6l-3-1.4-1.6-.2-1.3-.2.3-1.2-1.5-.3v-.6h-1.9l-.2.8-.7-1h-2.7l-1-.4-.2-1-1.2-.6-.4-1.5-.6-.4-.7,1.1-.9.2-.9.7h-1.5l-.9-1.3.4-3.1.5-2.4.6.5.3-.4h0ZM822,270h.9v-.7h-.8v.7h-.1ZM829.5,284.2l-1,2.7,1.2-1.3-.2-1.4h0ZM827.7,268.9l.7.3-.2,1.9-.5-.5-1.3,1,1,.4-1.8,4.4v8.1l2,3.1.5-1.5.4-2.7-.3-2.3.7-.9-.2-1.4,1.2-.6-.6-.5.5-.7.8,1.1-.2,1.1-.4,3.9,1.1-2.2.4-3.1v-3l-.2-2,.6-2.3,1.1-1.8v-2.2l.4-.9-4.6,1.6-.7.8-.4.9h0Z"/>
      <path class="cls-1" d="M161.9,83.6l.7,4-1.1,4.3-30.3-7.3-2.8,1-5.4-.9-1.8-.9-1.5,1.2-3.3-.4-4.5.5-.9.7-4.2-.4-.8-1.6-1.2-.2-4.4,1.3-1.6-1.1-2.2.8-.2-1.8-2.3-1.2-1.5-.2-1-1.1-3,.3-1.2-.8h-1.2l-1.2.9-5.5.7-6.6-4.2,1.1-5.6-.4-4.1-3.2-3.7h-3.7l-.4-1,.4-1.2-.7-.8h-1l-2.1-1.4-1.2.4h-2l-.7-1.6-1.6-.3,2.5-7.5-.7,6,.5.5v-2l.8-.2,1.1,2.3-.5-2.2,1.2-4.2,1.8.4-1.1-2-1,.3-1.5-.4.2-4.2.2,1.5.9.5.6-1.6h3.2l-2.2-1.2-1.7-1.9-1.4,1.6,1.2-3.1-.3-4.6-.2-3.6.9-6.1-.5-2-1.4-2.1v-4l.5-2.7,2-2.3-.7-1.4.2-.6h.9c0,.1,7.8,7.7,7.8,7.7l4.7,1.9,5.1,2.5h3.2c0-.1.2,2.9.2,2.9l1-1.6h.7l.6,2.7.5-2.6,1.4-.2.5.7-1.1.6v1.6l.8-1.5h1.1l-.4,2.6-1.1-.8.4,1.4v1.5l-.9.7-2.5,2.9,1.2-3.4-1.6.4-.4,2.1-3.8,2.8-.4,1-2.1,2.2v1h2.1l2.4-.2.5-.9-3.9.5v-.6l2.6-2.8,1.8-.8,1.9-.2,1-1.6,3-2.3v-1.4h1.1v4h-1.4l-.6.8-1.1-.9.3,1.1v1.7l-.7.7-.3-1.6-.8.8.7.6-.9,1.1h1.3l.7-.5v2l-.9,1.9-.9,1v1.8l-1.1-.2-.2-1.4.9-1.1-.8-.5-.8.7-.7,2.2-.8.9v-2l.7-1.1-.2-1.1-1.2,1.2v2.2l-.5.4-2.1-.4-1.3,1.2,2.2-.6-.2,2.2,1-1.8.4,1.4.5-1,.7,1.8h.7l.7-.8h.6l2-2,.2-1.2.8.6.3.9.7-.3v-1.2h1.4l.2-2.9v-2.7l.8.3-.7-2.1,1.4-.8.2-2.4,2.3-2.2h1c0,.1.3-1.3.3-1.3l-1.2-1.4v-3.5l-.9.9.7,2.9h-.6c0,.1-.6-1.8-.6-1.8l-.6-.5.3-2.3h1.8c0-.1.3.6.3.6l.3-1.6-1.6-1.7-.6-1.6-.2,2,.9,1.1-.7.4-1-.8-1.8,1.3,1.5.5.2,2.4-.3,1.8.9-1.3,1.4,2.3-.4,1.9h-1.5v-1.2l-1.5-1.2.5-3-1.9-2.6,2.7-3,.6-4.1h.9l1.4,3.2v-2.6l1.2.3v-3.3l-.9-.8-1.2,2.5-1-3h1.3c0-.1-1.5-5-1.5-5l1.9-.6,25.4,7.5,31.7,8,23.6,5.5s-12.7,56.1-12.7,56.1ZM83.2,44.2h.5v.8l-.4.3v.6l-.6.4-.2-.9.5-.4s.2-.8.2-.8ZM88.2,39.9l-1.2,1.9v.8l.3.2.5-.6h1.1s-.7-2.3-.7-2.3ZM87.8,18.3l.5.6,1.3-.3.2-1,1.2-1.8-1-.4-.7,1.6v-1.6l-1.2.2-.7,1.4s.4,1.3.4,1.3ZM91,12.8l.7,1.5-.9.2-.8.4-.2-2.4s1.2.3,1.2.3ZM88.3,11.2l-1.1-.2.5,1.4.6-1.2ZM87.3,13.7l.8.4-.4,1.1,1.7-.5-.2-2.2-.9-.2-1,1.4ZM84.6,13.3l.3,2.7,1.6,1.3.6-1.9-1.1-2.2h-1.4ZM86.5,12.2l-1.1-1h-.9c0,.1,1.8,1.6,1.8,1.6l.2-.6ZM89.7,5.2h-1.2v.8l1.2.6v-1.4ZM88.8,37.7l.4-2.7h-1.1l-.2,1.9s.9.8.9.8Z"/>
      <path class="cls-1" d="M723.4,297.5l-.8,1.2,1.5.7v1.5l4.5,2.3h2.3c0-.1,1.9-1.9,1.9-1.9l.8-1.7,3,1.8,5.5-2.4.5-.9-.8-.5.6-1.4,1.5,1,4.3-3.1.7,1.1,2.3-2v-1.4l1.4-1.9-1.5-1.2,1-3.3,3.7-6.3-.4-1.9,2.1-2.2-.4-1.5,1.4-1.7v-4.7l2.4.7,1.3,1.9,2.8.5,1.3-1.6,2.3-8.5,2.4,1.1,1-2.5.9-.8,1.4-1.8.9-.8.5-2.1,1.2-.8v-2.9l.7-2.3-.9-1.6.2-.9,10,5.2.5-2.3.4-1.6.4-.7-.9-.4.2-1.6-1-.5-.2-.7h-.7l-.8-1.2.2-1-2.6.4-2.2-1.6-1.4.3-.9,1.4h-1.3l-1.7,2.9-3.3.4-1.9-1-2.6,3.8-2.2-.3-3.1,3.9-.9,1.6-1.8,1.6-1.7-11.4-17.4,2.9-3.2-19.7-2.2,1.2,1.4,2.1v2.2l.5,2-1.1,3.4v5.4l-1.1,3.6.5,1.1-.4,2.2-1.1.5-2,3.3-1.8,2h-.6l-1.8,1.7-1.3-1.2-1.5,1.8-.3,1.2h-1.3l-1.3,2.2v2.1l-.9.5,1.4,1.1v1.9l-1,.2-.7.8-1,.5-.6-2.1-1.6-.5-1,2.3-.3,2.2-1.1,1.3,1.3,3.6-1.5.8-.4,3.5h-1.5l-3.2,1.4v1.1l.5,1-.6,3.6,1.9,1.6.8,1.1,1,.6v.9l4.3,5.6h1.4l1.5,1.8,1.2.3h1.4c0-.1.7.5.7.5h0Z"/>
      <path class="cls-1" d="M355.3,143.7l-51-5.3-57.3-7.9-2,10.7-8.5,54.8-3.3,21.9,32.1,4.8,44.9,5.7,37.5,3.4,3.7-44.2,3.9-43.9h0Z"/>
      <path class="cls-1" d="M803.5,252l-2.6-1.8-1,1.7.5.4h.4c0,.1.6.6.6.6l.3.7v1l1.8-2.6h0Z"/>
      <g>
        <path class="cls-1" d="M687.6,447.4l-48.8,5.1-.5,2.9,2.5,2.8,1.7.7.9,1.2-.4,7.3-1.1.6"/>
        <path class="cls-1" d="M666.6,361.1l12.9,45.8,2.9,6.1,1.8,1.9v3.2l1.7,1,.2,1.1-2.2,3.8-.3,3.7-.5,2.6,2.4,5.7-.6,6.3.5,1.4,1.5,1.5.7,2.2"/>
        <path class="cls-1" d="M620.9,365.1l1.3,2-1.3,67,4.4,33.2"/>
        <path class="cls-1" d="M620.9,365.1l45.7-4"/>
        <path class="cls-1" d="M516.7,414.2l52.3-1.3"/>
        <path class="cls-1" d="M591.7,344.9l-11.2.8,2.8-5.1,1.7-1.5v-2.2l-1.6-2.5-39.8,2-39.1.7"/>
        <path class="cls-1" d="M569,412.9l1.2-1.5.5-3-1.5-2.3-.5-2.2.9-.7v-.8l-1.7-1.1v-.7l1.5-.9-1.2-1.1,1.7-7.1,3.4-1.6v-.8l-1.1-1.4,2.9-5.4h1.9l1.5-1.2-.3-5.2,3.1-4.5,1.8-.6-.5-3.1"/>
        <path class="cls-1" d="M507.9,400.5l.7-39-4.1-24.4"/>
        <path class="cls-1" d="M582.6,367.7l1.6-.7.9-2.2,1.2.5.7-1-.8-.7.3-1.5-1.1-.9.6-1v-1.5h-1.2c0-.1.8-.9.8-.9l1.3.8.3-1.4-.4-1.1v-.7l2.1.6-.4-1.5,1.6-1.3-.5-.9h-1.1c0,.1-.6-.8-.6-.8l.9-.9,1.6-.2.5-.8,1.4-.2v-.8l-1-.9v-.5h1.5l.4-.7-1.4-1v-.6"/>
        <path class="cls-1" d="M507.9,400.5l2.6,2.3,2.8-1.3,3.2.8.2,11.9"/>
        <path class="cls-1" d="M149,338.1l-.9,2.1,1.3,3.4,1.4,1.8,1.2,5.8,2.3,2.5.4,1.9-1.3,1.3-4.8,1.7-2.4,3.6-1.6,7-2.4,3.2-1.6.3-1.1,6.9,1.1,1.6,1.8.2,1,1.6-.8,2.4-3,2.2h-2.2"/>
        <path class="cls-1" d="M253.8,311l-17.4,124.1"/>
        <path class="cls-1" d="M167.6,296.8l-3.4,17.5-2.4,2.9h-2l-1.2-2.7-3.7-1.4-3.5.6-1,13.6.5,4.9-.5,2.9-1.4,3"/>
        <path class="cls-1" d="M167.6,296.8l46.2,8.2,40,6"/>
        <path class="cls-1" d="M93.9,166.5l-16.4,63.1,1.1,3.5,70.4,105"/>
        <path class="cls-1" d="M27.8,147.9l66.1,18.6"/>
        <path class="cls-1" d="M379.4,256.3l-4.8,67"/>
        <path class="cls-1" d="M347.7,231.8l33.1,2.4-1.4,22.1"/>
        <path class="cls-1" d="M253.8,311l52.6,6.5,51.7,4.8"/>
        <path class="cls-1" d="M358.1,322.3l16.5,1"/>
        <path class="cls-1" d="M265.3,222.7l-11.5,88.3"/>
        <path class="cls-1" d="M265.3,222.7l44.9,5.7,37.5,3.4"/>
        <path class="cls-1" d="M843.8,171.3l10.5-2.4.5.7.9-.3v-.7l14.9-3.4v.3"/>
        <path class="cls-1" d="M846.6,194.7l-1.7-2.2,3.5-3.4-1.8-1.5-2.8-16.3"/>
        <path class="cls-1" d="M870.7,165.5l3.2,12.3-.4,1.1.4,1.8"/>
        <path class="cls-1" d="M801.8,254.6l1.7-2.6-2.6-1.8-1,1.7"/>
        <path class="cls-1" d="M799.9,251.9l.5.4h.4c0,.1.6.6.6.6l.3.7v1"/>
        <path class="cls-1" d="M817.9,230.1l7.6,27.1,10.9-2.3"/>
        <path class="cls-1" d="M823.8,227.2l-1,2.2-.3,2.1"/>
        <path class="cls-1" d="M817.9,230.1l1.2-2.1,1.5-1.1,1.6-.3,1.6.6"/>
        <path class="cls-1" d="M687.6,447.4l3.3,6,50.1-3.3.6,3.2,1,1.1,2.1-.6.5-4.3-1.4-2.1v-2.5l2.2-1.4,1.7.9,4,.7,3.6-.3"/>
        <path class="cls-1" d="M689.5,358.2l21.4-3"/>
        <path class="cls-1" d="M710.9,355.2v1.9l-2,1-1.4,3.2.2,1.3,6.1,3.8,2.6-.3,3.1,4,.4,1.7,4.2,5.1,2.6,1.7,1.4.2,2.2,1.6,1.1,2.2,2,1.6,1.8.5,2.7,2.7v1.4l2.7,2.8,5,2.3,3.6,6.7.3,2.7,3.9,2.1,2.5,4.8.8,3.1,4.2.4"/>
        <path class="cls-1" d="M666.6,361.1l22.9-2.9"/>
        <path class="cls-1" d="M556.8,249.7l.7-.7v-2.3l-.6-.9,1-1.5,1.8-.6.9-.3,1-1.2v-2.4l1.7-2.4.5-.5v-3.5l-.8-1.4-1-.3-1.1-1.6,1-4,3-.8h2.4l4.2-1.8,1.7-2.2v-2.4l1.2-1.3,1.3-3.2v-2.6l-2.9-3.5h-1.2l-.9-1.1.2-1.6-1.7-1.7-2.5-1.3.5-.6"/>
        <path class="cls-1" d="M473.6,182h28.2l36.3-.9,18.6-.7"/>
        <path class="cls-1" d="M484.5,246.8h25.9c0,.1,27.2-1.1,27.2-1.1l14.3-.8,1.7,1.3.6,1.6,1.1,1.1,1.5.8"/>
        <path class="cls-1" d="M484.5,246.8l-1.8-4.4.7-2.2-.8-3.3.2-2.9-1.3-.7-.4-6.1-2.8-5-.2-3.7-2.2-4.3-1.3-3.7v-1.4l-.6-1.7v-2.3l-.5-.9"/>
        <path class="cls-1" d="M473.5,204.2l-.7-1.7-.3-1.3-1.3-1.2,1-4.3,1.7-5.1-.7-2-1.3-.4-.4-1.6,1-.5v-1.1c.1,0-1.2-1.5-1.2-1.5v-1.6c.1,0,2.3.1,2.3.1"/>
        <path class="cls-1" d="M567.2,202l-1.3-2.8-3.3-.7-2.7-1.5-2-5.5v-2.5l1.7-3.3-.6-1.1-2.1-1.6-.2-2.6"/>
        <path class="cls-1" d="M188.8,30.5l-4.8,22,3.7,7.4-1.6,4.8,3.6,4.8,1.9.7,3.9,8.3v2.1l2.3,3h.9l1.4,2.1h3.2v1.6l-7.1,17-.5,4.1,1.4.5,1.6,2.6,2.8-1.4,3.6-2.4,1.9,1.9.5,2.5-.5,3.2,2.5,9.7,2.6,3.5,2.3,1.4.4,3v4.1l2.3,2.3,1.6-2.3,6.9,1.6,2.1-1.2,9,1.7,2.8-3.3,1.8-.6,1.2,1.8,1.6,4.1h.9"/>
        <path class="cls-1" d="M140.9,177.7l24.4,5.4,23.3,4.7"/>
        <path class="cls-1" d="M140.9,177.7l8.5-37.3,2.9-5.8.4-2.1.8-.9-.9-2-2.9-1.2.2-4.2,4-5.8,2.5-.8,1.6-2.3v-1.6c-.1,0,1.7-1.6,1.7-1.6l3.2-5.5,4.2-4.8-.5-3.2-3.5-3.1-1.6-3.6"/>
        <path class="cls-1" d="M236.5,196l-47.9-8.2"/>
        <path class="cls-1" d="M174.6,27.5l-12.7,56.1.7,4-1.1,4.3"/>
        <path class="cls-1" d="M245,141.2l-8.5,54.8"/>
        <path class="cls-1" d="M619.4,215.7l4.1,50.2-1,5.2v2l2.4,3.5v.7l-.3.9.9,1.9-.3,2.4-1.6,1.8-1.3,4.2-3.8,5.3v7h-1.1l.9,1.9"/>
        <path class="cls-1" d="M599.9,322.5l-.3-1.8,4-3.7,6.9,3,1.5-.3.4-2.4-1.7-1.8.4-3.3,1-.5,1.2.6.6-1.2,3.7-.6v-.9l-1.4-2.2v-1.1l2.1-2.7v-.9"/>
        <path class="cls-1" d="M599.9,322.5h-2.8l-1.4-1.5-1.8-3.8v-1.9l.8-.6v-1.3l-1.6-1.9-.9-2.5-2.7-4.1-4.8-1.3-7.4-7.1-.4-2.4,2.8-7.6-.4-1.9,1.2-1.1v-1.3l-2.8-1.5-3-.7-3.4,1.2-1.3-2.3.6-1.9-.7-2.4-8.6-8.4-2.2-1.5-2.5-5.9-1.2-5.4,1.4-3.7"/>
        <path class="cls-1" d="M567.2,202l45.9-2.8"/>
        <path class="cls-1" d="M618.3,302.7l1.1.8.6-1-.7-1.7,4.6-.5.2,1.2,1.1.2.4-.9-.6-1.3.3-.8,1.3.8,1.7-.4,1.7.6,3.4,2.1,1.8-2.8,3.5-2.2,3,3.3,1.6-2.1.3-2.7,3.8-2.3.2,1.3,1.9,1.2,3-.2,1.2-.7v-3.4l2.6-3.7,4.6-4.4v-1.7l1.1-3.8,2.2,1,6.7-4.5-.4-1.7-1.5-2.1,1-1.9"/>
        <path class="cls-1" d="M630.9,213.2l32.4-3.4v1.4"/>
        <path class="cls-1" d="M670,268.4l-6.6-57.2"/>
        <path class="cls-1" d="M504.3,326.3l-.5-48.1-3.2-.7-2.6-4.7-2.5-2.5.5-2.3,2.7-2.6v-1.2c.1,0-1.4-2.1-1.4-2.1l-.9,1-2-.6-2.9-3"/>
        <path class="cls-1" d="M379.4,256.3l36,2,43.7,1.2h32.4"/>
        <path class="cls-1" d="M374.6,323.3l67.7,2.9h62"/>
        <path class="cls-1" d="M596.7,333.5l1-2.7,1.4.9.7-.4,1.2-4.1-1-1,1-2,.2-.9-1.3-.8M594.1,333.8l-.7-.7.2-1h1.1l.7.7-.3,1"/>
        <path class="cls-1" d="M670,268.4l1.3.5h2.2c0,.1,1.9-.7,1.9-.7l2.9,1.2,2.2,3.4v1l4.1.7,2.3-.2,1.9,2.1,2.2.2v-1l1.9-.8,3,.8,1.2.8,1.3-.7h.9l.6-1.7,3.4-1.8.5.8.8,2.9,3.5,1.4,1.2,2.1"/>
        <path class="cls-1" d="M596.7,333.5l23.3-1.5.6-.9-1.2-3.2h3.7l.7.6,22.6-2,2.6-.8,17.4-1,5.2-.8,20.5-1.4,5.6-1.4M594.1,333.8h1"/>
        <path class="cls-1" d="M697.7,321.1l6.9-4.2,1-.4.5-1.9,1.8-.5,1.4-1.4v-1.7l2.2-1.3.4-2.2,3-3,2.9-1,4.9-6.6"/>
        <path class="cls-1" d="M709.3,279.4v1.1l.5,1-.6,3.6,1.9,1.6.8,1.1,1,.6v.9l4.3,5.6h1.4l1.5,1.8,1.2.3h1.4"/>
        <path class="cls-1" d="M569,412.9l-.6,1.4,1.6,7.1,1.2,1-.5,1.7,2.4,2.5v3.3h-2l1.8,2.5-6,8.4-2.4,4.8-1.7,11.9,36-2v1.4l-1.1,1.4-.9,4.6,4.8,6.8-.3,1.3,1.2,1.8.6.7"/>
        <path class="cls-1" d="M516.7,414.2l.5,19.9.7,3.4,2.6,2.8.7,5.4,3.8,4.6.8,4.3h1v7.3l-3.4,6.4,1.3,2.3-1.3,1.5.7,3v4.3l-2.3,3.5v.8l-1.8,1.2,1,1.8,1.2,1.1"/>
        <path class="cls-1" d="M856,152.6l18.4-3.8,1-1.5.3-1.7,1.9-.6.5-1.1,1.7-1.1,1.3.3"/>
        <path class="cls-1" d="M843.8,171.3l-.7-1,.5-15"/>
        <path class="cls-1" d="M870.7,165.5l6.5-2,.7,2.6h.8l.6,2.2,2.6,1.3,1.3,1.1,1.4,3"/>
        <path class="cls-1" d="M843.6,155.3l12.4-2.7"/>
        <path class="cls-1" d="M757.4,241.9l60.5-11.8"/>
        <path class="cls-1" d="M822.9,269.3h-.8M835.3,265.1l-.6.3M833.4,265.6l-4.6,1.6-.7.8M799.9,251.9l-.6-.6h-1.6c0-.1-.4-.5-.4-.5v-.5l-1.6-.6-.8.3h-1.2c0-.1-.7-.8-.7-.8l-.5-.2-.2-.7.6-.8v-.9l-1.2-.2-1-.9h-.9c0,.1-1.6-.2-1.6-.2M799.8,258.8l.3-.4-.7-1h1c0-.1,1-1,1-1l.4-1.8"/>
        <path class="cls-1" d="M757.4,241.9l1.7,11.4,1.8-1.6.9-1.6,3.1-3.9,2.2.3,2.6-3.8,1.9,1,3.3-.4,1.7-2.9h1.3l.9-1.4,1.4-.3,2.2,1.6,2.6-.4-.2,1,.8,1.2h.7l.2.7,1,.5-.2,1.6.9.4"/>
        <path class="cls-1" d="M881.9,138.3l-2.3-1.4-.8-2.2-3.2-2-.6-4-11.9-36.8"/>
        <path class="cls-1" d="M663.4,211.2l21.4-3.5"/>
        <path class="cls-1" d="M565.6,112.3l1.9.7,3,3.8,17,3.8,1.4,1,4,.8.7.5,2.8-.2,4.9.8,1.4,1.5-1,1,.8.8,3.8.7,1.2,1.2v4.4l-1.2,2.8h2c0,.1,1-.7,1-.7l.9.8-1.1,3.1,1,1.6,1.2.3"/>
        <path class="cls-1" d="M462.3,61.3l2.4,7.3-1.1,2.8.8,1.4-.3,5.1-.5,1.1,2.7,9.1,1.3,2.5.7,14,1,2.7-.4,5.8,2.9,7.4.3,5.8v2.1"/>
        <path class="cls-1" d="M473.6,182l.2-39.5-1.5-1.9-2.6-.6-.4-1.8-1.7-2.5.3-1.2,3.1-1.9.9-2v-2.2"/>
        <path class="cls-1" d="M556.7,180.4l-1.1-4.5-.2-3-2.2-3-2.8-.7-5.2-3.6-.6-3.3-6.3-3.1-.2-1.3h-3.3l-2.2-2.6-2-1.3.7-5.1-.9-1.6.5-5.4,1-1.8-.3-2.7-1.2-1.3-1.8-.3v-1.7l2.8-5.8,5.9-3.9-.4-13,.9.4.6-.5v-1.1l1-.6,1.4,1.2h.7"/>
        <path class="cls-1" d="M491.5,259.5l-3.9-6.3-2.1-3.7.3-1.4-1.3-1.3"/>
        <path class="cls-1" d="M504.3,326.3l.2,10.8"/>
        <path class="cls-1" d="M591.7,344.9l1-2,1.2-.5v-.7l-1.2-1.1-.6-1,1.7.2.8-.7-1.4-1.5,1.4-.5v-1l-.5-1v-1.3M595.1,333.8l.8.7.8-1"/>
        <path class="cls-1" d="M582.6,367.7l38.3-2.6"/>
        <path class="cls-1" d="M362.5,56.3l-5.2,66.7"/>
        <path class="cls-1" d="M357.3,123l-2,20.7"/>
        <path class="cls-1" d="M355.3,143.7l-51-5.3-57.3-7.9-2,10.7"/>
        <path class="cls-1" d="M710.9,355.2l4.4-1.9h1.3c0-.1,7.3-4.4,7.3-4.4l23.2-2.2.4.5-.2,1.4.7.3,1.2-1.5,3.3,3v2.6l19.8-2.8,24.5,17.1"/>
        <path class="cls-1" d="M731.1,317v5.2h-1.5c0-.1-1.4,1.1-1.4,1.1l-2.4,5.2-2.6-1.1-3.5,2.5-.7,2.1-1.5,1.2-.8-.8v-1.5l-.9-.2-4,3.3-.6,3.4-4.7,2.4-.5,1.2-3.2,2.6-3.6.5-4.6,3-.8,4.1-1.3.9h-1.5c0-.1-1.4,1.2-1.4,1.2v4.9"/>
        <path class="cls-1" d="M731.1,317l29.4-3.5,39.4-7.3,29.1-6.1"/>
        <path class="cls-1" d="M357.3,123l39.2,2.9,46,2.1,29.5.4"/>
        <path class="cls-1" d="M351.4,187.6l51.1,3.5,38,1.6,3.4,3.2,1.7.2,2.1,2h1.8c0-.1,1.8-2.1,1.8-2.1l1.5.6,1-.7.7.5.9-.4.7.4.9-.4,1,.5,1.4-.6,2,.6.6,1.1,6.1,2.2,1.2,1.3.9,2.6,1.8.7,1.5-.2"/>
        <path class="cls-1" d="M347.7,231.8l3.7-44.2"/>
        <path class="cls-1" d="M857.9,100.1l1.2,2.3-1.1,3.5,2.1,2.8-.4,1.7v1.3l-1,2.1-1.4.4-.6,1.3-2.1,1-.7,1.5,1.4,3.4-.5,2.5.5,1.5-1,1.9.4,1.9-1.3,1.9.2,2.2-.7,1.1.7,4.5.7,1.5-.5,2.6.9,1.8-.2,2.5-.5,1.3v1.4l2,2.6"/>
        <path class="cls-1" d="M827.9,190.5l14.6,4.9-.4,5.9"/>
        <path class="cls-1" d="M823.8,227.2l1.4-1.7,1.6-.6,1.8-3,1.6-2.3,3.3-2.6-4.2-3.2-2.1-1.1-1-2.8-2.7-.9-.5-3.6,1-1,.7-2-1.5-1.8,3-5.4v-2.2l1.7-2.5"/>
        <path class="cls-1" d="M358.1,322.3l-.6,10.6"/>
        <path class="cls-1" d="M284.3,431.2l-2-2.2.3-3,34.4,3.6,31.8,2.6,7.9-99.3h.8"/>
        <path class="cls-1" d="M93.9,166.5l47,11.2"/>
        <path class="cls-1" d="M188.6,187.8l-21,109"/>
        <path class="cls-1" d="M827.9,190.5l-1.6-1.1-1.9.3-3-2.2-3-5.8h-2l-.4-1.5-1.7-1.1-70.5,13.9-.8-6"/>
        <path class="cls-1" d="M843.6,155.3l-1.1-1,.5-2-3-14.2-1.9-1.5-.9,1.6-.9-2.2.8-1.8-3.1-6.7.3-3.8.4-1-.6-2,.4-2.2-2.2-2.3-.5-3.2.4-1.5-1.4-.9.6-1.9-.8-1.7"/>
        <path class="cls-1" d="M736.8,225.1l-4.9-29.9"/>
        <path class="cls-1" d="M709.3,279.4l3.2-1.4h1.5l.4-3.5,1.5-.8-1.3-3.6,1.1-1.3.3-2.2,1-2.3,1.6.5.6,2.1,1-.5.7-.8,1-.2v-1.9l-1.4-1.1,1-.5v-2.1l1.2-2.2h1.3l.3-1.2,1.5-1.8,1.3,1.2,1.8-1.7h.6l1.8-2,2-3.3,1.1-.5.4-2.2-.5-1.1,1-3.6v-5.4l1.2-3.4-.6-2v-2.2l-1.3-2.1,2.2-1.2"/>
        <path class="cls-1" d="M357.5,332.9l52.6,3.2-1.4,42.7,2.7,1.3,2.5,3,1.5.3,1.1-1,1.2.4,1.4,1,1.1-1.5,2.3,1.7.5,2.9,1.2.7h2.3c0-.1,3.5,1.8,3.5,1.8h2c0-.1,1.4-.5,1.4-.5l2.3,2.2,2-2.3,3.5,1.1,1.9,3h2.3c0-.1-.7,2-.7,2l2.3,1.1,3-2.6,2.6,1.7,1.3-.5v1.5c.1,0,1.8,1.2,1.8,1.2l2.3-2.5,1.2.7-.3,2,1,1.8,1.2-.8,2.5-4.2,1.8,2,2,.5,2.1-.7,2,1.8h1.2c0-.1,1.3,1.1,1.3,1.1l3.6-.9.6-1.7,3.7-.3,1.6.7,5-2.5.6,1.5,5.1-.3.5-1.6,2.2.9,4.6,3.8,6.4,1.9"/>
        <path class="cls-1" d="M161.5,91.9l-30.3-7.3-2.8,1-5.4-.9-1.8-.9-1.5,1.2-3.3-.4-4.5.5-.9.7-4.2-.4-.8-1.6-1.2-.2-4.4,1.3-1.6-1.1-2.2.8-.2-1.8-2.3-1.2-1.5-.2-1-1.1-3,.3-1.2-.8h-1.2l-1.2.9-5.5.7-6.6-4.2,1.1-5.6-.4-4.1-3.2-3.7h-3.7l-.4-1,.4-1.2-.7-.8h-1"/>
        <path class="cls-1" d="M736.8,225.1l3.2,19.7,17.4-2.9"/>
        <path class="cls-1" d="M351.4,187.6l3.9-43.9"/>
        <path class="cls-1" d="M697.7,321.1l28.9-3.3.2-1,4.6-.5-.3.7"/>
        <path class="cls-1" d="M236.5,196l-3.3,21.9,32.1,4.8"/>
        <path class="cls-1" d="M722.7,296.9l.7.6-.8,1.2,1.5.7v1.5l4.5,2.3h2.3c0-.1,1.9-1.9,1.9-1.9l.8-1.7,3,1.8,5.5-2.4.5-.9-.8-.5.6-1.4,1.5,1,4.3-3.1.7,1.1,2.3-2v-1.4l1.4-1.9-1.5-1.2,1-3.3,3.7-6.3-.4-1.9,2.1-2.2-.4-1.5,1.4-1.7v-4.7l2.4.7,1.3,1.9,2.8.5,1.3-1.6,2.3-8.5,2.4,1.1,1-2.5.9-.8,1.4-1.8.9-.8.5-2.1,1.2-.8v-2.9l.7-2.3-.9-1.6.2-.9,10,5.2.5-2.3.4-1.6.4-.7"/>
      </g>
      <circle class="cls-1" cx="801.6" cy="252.1" r="5"/>
    </g>
  </g>
  <g id="Layer_2" data-name="Layer 2">
    <path class="cls-2" d="M69.4,365.6l3.4,5.2h-1.4c0,.1-1.8-1.8-1.8-1.8l-.2-3.4h0ZM71.3,355.8l1.8,4.1,2.6,1,.7-.6-1.3-2.5-2.6-2.4-1.2.4ZM51.4,336.8v2.4l2,1.2,4.4-.2,1-1-3.1-.2-4.3-2.2h0ZM45.5,336.9l3.3.5,1.4,2.2h-3.8l-.9-2.7ZM93.4,382.4l-1-3,.2-3-.4-7.9-1.8-4.8-1.2-1.4-.6-1.5-7-8.6h-3.6c0,.1-2-1.8-2-1.8l1.1-1.8-.7-3.7-2.2-1.2-3.9-.6-2.8-1.3-1.5-1.9-4.5-6.6-2.7-2.2-3.7-.5-3.1-2.3-4.7-1.5-2.8-.3-2.5-2.5.2-2.8.8-4.8,1.8-5.1-1.4-1.6-4-9.4-2.7-3.7-.4-3-1.6-2.3.2-2.5-2-5-2.9-2.7.6-7.1,2.4-.8,1.8-3.1-.4-3.2-1-.9h-2.5l-2.5-3.3-1.5-3.5v-7.5l1.2-4.2.2-2.1,2.5.2v1.6c-.1,0-.9.7-.9.7v2.5l3.7,3.2v-4.7l-1.4-3.4.5-1.1-1-1.7,2.8-1.5-1.9-3-1.4.5-1.5,3.8.5,1.3-.8,1h-.9c0-.1-5.4-6.2-5.4-6.2l.7-5.6-1.1-3.9-6.5-12.8.8-10.7,2.3-3.6.2-6.4-5.5-11.1.3-5.2,6.9-7.5,1.7-2.4v-1.4c-.1,0,3.9-9.2,3.9-9.2v-8.4c.1,0,1-2.5,1-2.5l66.1,18.6-16.4,63.1,1.1,3.5,70.4,105-.9,2.1,1.3,3.4,1.4,1.8,1.2,5.8,2.3,2.5.4,1.9-1.3,1.3-4.8,1.7-2.4,3.6-1.6,7-2.4,3.2-1.6.3-1.1,6.9,1.1,1.6,1.8.2,1,1.6-.8,2.4-3,2.2h-2.2c0-.1-44-5.2-44-5.2h0Z"/>
    <path class="cls-2" d="M761.8,414.1v1.4l-4.2,6.2-1.2.2,1.5.5v2l-.9,1.1-.6,6-2.3,6.2.5,2,.7,5.1-3.6.3-4-.7-1.7-.9-2.2,1.4v2.5l1.4,2.1-.5,4.3-2.1.6-1-1.1-.6-3.2-50.1,3.3-3.3-6-.7-2.2-1.5-1.5-.5-1.4.6-6.3-2.4-5.7.5-2.6.3-3.7,2.2-3.8-.2-1.1-1.7-1v-3.2l-1.8-1.9-2.9-6.1-12.9-45.8,22.9-2.9,21.4-3v1.9l-2,1-1.4,3.2.2,1.3,6.1,3.8,2.6-.3,3.1,4,.4,1.7,4.2,5.1,2.6,1.7,1.4.2,2.2,1.6,1.1,2.2,2,1.6,1.8.5,2.7,2.7v1.4l2.7,2.8,5,2.3,3.6,6.7.3,2.7,3.9,2.1,2.5,4.8.8,3.1,4.2.4.9.4h0Z"/>
    <path class="cls-2" d="M623.5,265.9l-1,5.2v2l2.4,3.5v.7l-.3.9.9,1.9-.3,2.4-1.6,1.8-1.3,4.2-3.8,5.3v7h-1.1l.9,1.9v.9l-2.2,2.7v1.1l1.6,2.2v.9l-3.8.6-.6,1.2-1.2-.6-1,.5-.4,3.3,1.7,1.8-.4,2.4-1.5.3-6.9-3-4,3.7.3,1.8h-2.8l-1.4-1.5-1.8-3.8v-1.9l.8-.6v-1.3l-1.6-1.9-.9-2.5-2.7-4.1-4.8-1.3-7.4-7.1-.4-2.4,2.8-7.6-.4-1.9,1.2-1.1v-1.3l-2.8-1.5-3-.7-3.4,1.2-1.3-2.3.6-1.9-.7-2.4-8.6-8.4-2.2-1.5-2.5-5.9-1.2-5.4,1.4-3.7.7-.7v-2.3l-.6-.9,1-1.5,1.8-.6.9-.3,1-1.2v-2.4l1.7-2.4.5-.5v-3.5l-.8-1.4-1-.3-1.1-1.6,1-4,3-.8h2.4l4.2-1.8,1.7-2.2v-2.4l1.2-1.3,1.3-3.2v-2.6l-2.9-3.5h-1.2l-.9-1.1.2-1.6-1.7-1.7-2.5-1.3.5-.6,45.9-2.8v4.6l3.5,4.6,1.2,4.1,1.6,3.2,4.1,50.2h0Z"/>
    <path class="cls-2" d="M282.3,429l.3-3,34.4,3.6,31.8,2.6,7.9-99.3h.8l52.6,3.2-1.4,42.7,2.7,1.3,2.5,3,1.5.3,1.1-1,1.2.4,1.4,1,1.1-1.5,2.3,1.7.5,2.9,1.2.7h2.3c0-.1,3.5,1.8,3.5,1.8h2c0-.1,1.4-.5,1.4-.5l2.3,2.2,2-2.3,3.5,1.1,1.9,3h2.3c0-.1-.7,2-.7,2l2.3,1.1,3-2.6,2.6,1.7,1.3-.5v1.5c.1,0,1.8,1.2,1.8,1.2l2.3-2.5,1.2.7-.3,2,1,1.8,1.2-.8,2.5-4.2,1.8,2,2,.5,2.1-.7,2,1.8h1.2c0-.1,1.3,1.1,1.3,1.1l3.6-.9.6-1.7,3.7-.3,1.6.7,5-2.5.6,1.5,5.1-.3.5-1.6,2.2.9,4.6,3.8,6.4,1.9,2.6,2.3,2.8-1.3,3.2.8.2,11.9.5,19.9.7,3.4,2.6,2.8.7,5.4,3.8,4.6.8,4.3h1v7.3l-3.4,6.4,1.3,2.3-1.3,1.5.7,3v4.3l-2.3,3.5v.8l-1.8,1.2,1,1.8,1.2,1.1-3.5.3-8.4,3.9-3.5,1.4-1.8,1.8-.7-.5,2.1-2.3,1.8-.7.5-.9h-2.9c0-.1-.7-.9-.7-.9l.8-2-.9-1.8h-.6l-2.4,1.3-1.9,2.6.3,1.7,3.3,3.4,1.3.3v.8l-2.3,1.6-4.9,4-4,3.9-3.2,1.4-5,3-3.7,2-4.5,1.9-4.1,2.5,3.2-3v-1.1l.6-.8-.2-1.8h-1.5c0-.1-1.1,1.4-1.1,1.4l-2.6,1.3-1.8-1.2-.3-1.7h-1.5l.8,2.2,1.4.7,1.2.9,1.8,1.6-.7.8-3.9,1.7h-1.7l-1.2-1.1-.5,2.1.5,1.1-2.7,2-1.5.2-.8.7-.4,1.7-1.8,3.3-1.6.7-1.6-.6-1.8,1.1.3,1.4,1.3.8,1,.8-1.8,3.5-.3,2.8-1,1.7-1.4,1-2.9.4,1.8.6,1.9-.6-.4,3.2h-1.1l.2,1.1.3,1.4-1.3.9v3.1l1.6,1.4.6,3.1-.4,2.2-1,.4.4,1.5,1.1.4.8,1.7v2.6l1.1,2.1,2.2,2.6v.7c-.1,0-2.3-.2-2.3-.2l-1.6,1.4.2,1.4-.9-.3-1.4-.2-3.4-3.7-2.3-.6h-7.1l-2.8-.8-3.6-3-1.7-1h-2.1l-3.2-2.5-5.4-1.6v-1.3l-1.4-1.8-.9-4.7-1.1-1.7-1.7-1.4v-1.6l-1.4-.6.6-2.6-.3-2.2-1.3-1.4.7-3-.8-3.2-1.7-1.4h-1.1l-4-3.5v-1.9c.1,0-.7-1.7-.7-1.7l-.8-.2-.9-2.4-2-1.6-2.9-2.5-.2-2.1-1-.7.2-1.6.5-.7-1.4-1.5v-.7c.1,0-1.9-2.2-1.9-2.2v-2.1c.1,0-2.6-4.9-2.6-4.9v-1.7c-.1,0-1.9-3.1-1.9-3.1l-5.1-4.8v-1.1l-3.3-1.7v-1.8c-.1,0-1.3-.4-1.3-.4v-.7l-.8-.2-2.1-2.8h-.8l-.7-.6-1.3,1.1h-2.2l-2.6-1.1h-4.6l-4.2-2.1-1.3,1.9-2.2-.6-3.3,1.2-1.7,2.8-2,3.2-1.1,4.4-1.4,1.2h-1.1c0,.1-.9,1.7-.9,1.7l-1.3.6v1.8c-.1,0-3,.1-3,.1l-1.8-1.5h-1l-2-2.9-3.6-.5-1.7-2.3-1.3-.2-2.1-.8-3.4-3.4.2-.8-1.6-1.2h-1c0-.1-3.4-3.2-3.4-3.2v-2c-.1,0-2.4-4-2.4-4l.2-1.6-.7-1.3.8-1.5v-2.4c-.1,0-2.7-4.1-2.7-4.1l-.6-4.2-1.6-1.6v-1l-1.2-.2-.7-1.1-2.4-1.7h-.9c0-.1-1.9-1.7-1.9-1.7v-1.1l-2.9-1.8-.6-2.1-2.6-2.3-3.2-4.4-3-1.3-2.1-1.8.2-1.2-1.3-1.4-1.7-3.7-2.4-1-2-2.2h0ZM457.2,567.3h.8l-.6-4.7-3.5-12.3-.2-8.1,4.9-10.5,6.1-8.2,7.2-5.1v-.7h-.8l-2.6,1-3.6,2.3-.7,1.5-8.2,11.6-2.8,7.9v8.8l3.6,12,.4,4.5h0Z"/>
    <path class="cls-2" d="M233.2,217.9l3.3-21.9-47.9-8.2-21,109,46.2,8.2,40,6,11.5-88.3-32.1-4.8h0Z"/>
    <path class="cls-2" d="M611,144l-2.9.8.2,2.3-2.4,3.4-.2,3.1.6.7.8-.7.5-1.6,2-1.1,1.6-4.2,3.5-1.1.8-3.3.7-.9.4-2.1,1.8-1.1v-1.5l1-.9h1.4v2.1h-1c0,.1.5,1.3.5,1.3l-.7,2.2h-.6c0,.1-1.2,4.6-1.2,4.6l-.7.5-2.8,7.2-.3,4.2.6,2v1.3l-2.3,1.9.3,1.9-.9,3.1.3,1.6.4,3.7-1.1,4.1-1.5,5,1,1.5-.3.3.8,1.7-.5,1.1,1.1.9v2.7l1.3,1.5-.4,3,.3,4-45.9,2.8-1.3-2.8-3.3-.7-2.7-1.5-2-5.5v-2.5l1.7-3.3-.6-1.1-2.1-1.6-.2-2.6-1.1-4.5-.2-3-2.2-3-2.8-.7-5.2-3.6-.6-3.3-6.3-3.1-.2-1.3h-3.3l-2.2-2.6-2-1.3.7-5.1-.9-1.6.5-5.4,1-1.8-.3-2.7-1.2-1.3-1.8-.3v-1.7l2.8-5.8,5.9-3.9-.4-13,.9.4.6-.5v-1.1l1-.6,1.4,1.2h3.3l6.8-2.6.3-1h1.2l.7-1.2.4.8,1.8-.9,1.8-1.7.3.5,1-1,2.2,1.6-.8,1.6-1.2,1.4.5,1.5-1.4,1.6.4.9,2.3-1.1v-1.4l3.3,1.9,1.9.7,1.9.7,3,3.8,17,3.8,1.4,1,4,.8.7.5,2.8-.2,4.9.8,1.4,1.5-1,1,.8.8,3.8.7,1.2,1.2v4.4l-1.2,2.8h2c0,.1,1-.7,1-.7l.9.8-1.1,3.1,1,1.6,1.2.3-.3,3h0ZM561.5,106.7h-.5l-1.5,1.7.2.5,1.5-.6v-.6l.9-.3-.6-.7h0ZM563.1,105.6l-1,.3-.2.7h.9l.3-1ZM561.8,104l-.2.9h1.7l.6-.4v-1l-2.1.5ZM564.6,101l-.3,1.9,1.2-.5v-1.4h-.9ZM622.9,132.9l-2,.3-.4,1.3,1.3,1.7,1.1-3.3h0Z"/>
  </g>
  <g id="Layer_5" data-name="Layer 5">
    <polygon class="cls-3" points="87.9 347.2 73 373.1 102.8 373.1 87.9 347.2"/>
    <polygon class="cls-3" points="221.5 224.4 206.6 250.2 236.4 250.2 221.5 224.4"/>
    <polygon class="cls-3" points="445.6 476.3 430.7 502.1 460.5 502.1 445.6 476.3"/>
    <polygon class="cls-3" points="603.1 159.2 588.2 185 618 185 603.1 159.2"/>
    <polygon class="cls-3" points="453.2 406.5 438.3 432.3 468.1 432.3 453.2 406.5"/>
    <polygon class="cls-3" points="613.1 218.9 598.2 244.7 628 244.7 613.1 218.9"/>
    <polygon class="cls-3" points="755.4 414.4 740.5 440.2 770.3 440.2 755.4 414.4"/>
  </g>
</svg>