<?xml version="1.0" encoding="UTF-8"?>
<svg xmlns="http://www.w3.org/2000/svg" version="1.1" viewBox="0 0 1558 192">
  <title>Robert Ferguson</title>
  <g id="outer" fill="#195370">
    <g>
      <path
        d="M106.5,174.2c-4.6,0-8.9-1.1-12.9-3.1-4.3-2.2-7.9-5.6-10.5-10l-8.1-13.1c-.3,6.8-2.9,13-7.6,17.9-5.1,5.3-12.1,8.2-19.7,8.2s-14.2-2.8-19.4-8c-5.1-5.1-8-12-8-19.4V50.8c0-7.6,2.9-14.6,8.2-19.7,5.2-5,11.8-7.7,19.2-7.7h25.5c10.4,0,20,2.3,28.4,6.9,8.7,4.7,15.6,11.3,20.5,19.7,4.9,8.3,7.4,17.8,7.4,28.3s-2.5,19.4-7.6,27.6c-1.5,2.4-3.1,4.7-4.9,6.8l12.2,19.6c5.4,8.7,6,18.7,1.5,27.4-4.6,9.1-13.7,14.5-24.2,14.5ZM75,77.7c.1,0,.2,0,.3,0,0-.2,0-.3,0-.3,0,0,0,0,0,0,0,0,0,0-.1,0v.5Z" />
      <path
        d="M181.2,175.7c-10.9,0-21.1-1.9-30.3-5.6-9.4-3.8-17.7-9.3-24.6-16.3-6.8-7-12.2-15.3-15.9-24.7-3.7-9.3-5.5-19.4-5.5-30.3s1.9-21,5.5-30.2c3.7-9.4,9.1-17.6,15.9-24.6,6.9-7,15.2-12.5,24.6-16.3,9.3-3.7,19.5-5.6,30.3-5.6s21.1,1.9,30.3,5.7c9.3,3.8,17.6,9.3,24.5,16.2,6.9,7,12.3,15.3,16,24.6,3.7,9.2,5.5,19.4,5.5,30.2s-1.9,21-5.5,30.3c-3.7,9.5-9.1,17.8-16,24.8-6.9,7-15.1,12.4-24.5,16.2-9.2,3.8-19.4,5.7-30.3,5.7ZM181.2,75.3c-3.4,0-6.5.6-9.2,1.7-2.7,1.1-4.8,2.6-6.6,4.5-2,2.1-3.4,4.4-4.6,7.4-1.2,2.9-1.7,6.3-1.7,9.9s.6,6.9,1.7,9.9c1.2,2.9,2.6,5.3,4.6,7.4,1.9,2,4.1,3.5,6.8,4.6,2.7,1.1,5.6,1.7,9.1,1.7s6.4-.6,9-1.7c2.8-1.2,5-2.7,6.9-4.7,1.9-2,3.4-4.3,4.5-7.1,1.1-3,1.7-6.3,1.7-10s-.6-7-1.7-10c-1.1-2.8-2.5-5.1-4.5-7.1-1.9-2-4.1-3.5-6.8-4.6-2.7-1.1-5.7-1.7-9.2-1.7Z" />
      <path
        d="M268,174.2c-7.4,0-14.2-2.8-19.4-8-5.1-5.1-8-12-8-19.4V50.8c0-7.6,2.9-14.6,8.2-19.7,5.2-5,11.8-7.7,19.2-7.7h33.9c9.6,0,18.4,2,26.1,6,8.1,4.2,14.6,10.1,19.3,17.6,4.8,7.7,7.3,16.4,7.3,26s-1.2,12.1-3.7,17.5c6.9,8.1,10.4,18.3,10.4,30.3s-2.5,19.6-7.6,27.8c-5,8.1-11.9,14.5-20.6,19.1-8.4,4.4-17.8,6.6-28.2,6.6h-36.9Z" />
      <path
        d="M370.7,174.2c-7.4,0-14.2-2.8-19.4-8-5.1-5.1-8-12-8-19.4V50.8c0-7.6,2.9-14.6,8.2-19.7,5.2-5,11.8-7.7,19.2-7.7h64.2c7.4,0,14,2.6,19.1,7.5,5.2,5,8.1,11.9,8.1,19.4s-3,14.5-8.4,19.5c-4.9,4.5-11.1,7-18.1,7.2.8.6,1.6,1.3,2.3,2,5.2,5,8.1,11.9,8.1,19.3s-2.9,14.3-8.1,19.3c-1.2,1.1-2.4,2.1-3.7,3h.6c7.3,0,13.8,2.5,18.8,7.2,5.4,5,8.4,11.9,8.4,19.5s-2.9,14.4-8.1,19.4c-5.1,4.9-11.7,7.5-19.1,7.5h-64.2Z" />
      <path
        d="M528.9,174.2c-4.6,0-8.9-1.1-12.9-3.1-4.3-2.2-7.9-5.6-10.5-9.9l-8.1-13.1c-.3,6.8-2.9,13-7.6,17.9-5.1,5.3-12.1,8.2-19.7,8.2s-14.2-2.8-19.4-8c-5.1-5.1-8-12-8-19.4V50.8c0-7.6,2.9-14.6,8.2-19.7,5.2-5,11.8-7.7,19.2-7.7h25.5c10.4,0,20,2.3,28.4,6.9,8.7,4.7,15.6,11.3,20.5,19.7,4.9,8.3,7.4,17.8,7.4,28.3s-2.5,19.4-7.6,27.6c-1.5,2.4-3.1,4.7-4.9,6.8l12.2,19.6c5.4,8.7,6,18.7,1.5,27.4-4.6,9.1-13.7,14.5-24.2,14.5ZM497.4,77.7c.1,0,.2,0,.3,0,0-.2,0-.3,0-.3,0,0,0,0,0,0,0,0,0,0-.1,0v.5Z" />
      <path
        d="M585.1,174.2c-7.4,0-14.2-2.8-19.4-8-5.1-5.1-8-12-8-19.4v-69.8h-10.7c-7.3,0-14-2.8-19-7.8-5-5-7.8-11.8-7.8-19s2.8-14,7.8-19c5-5,11.8-7.8,19-7.8h75.9c7.3,0,14,2.8,19,7.8,5,5,7.8,11.8,7.8,19s-2.8,14-7.8,19c-5,5-11.8,7.8-19,7.8h-10.5v69.8c0,7.4-2.8,14.2-8,19.4-5.1,5.2-12,8-19.4,8Z" />
      <path
        d="M686.2,174.2c-7.4,0-14.2-2.8-19.4-8-5.1-5.1-8-12-8-19.4V50.8c0-7.6,2.9-14.6,8.2-19.7,5.2-5,11.8-7.7,19.2-7.7h64.2c7.4,0,14,2.6,19.1,7.5,5.2,5,8.1,11.9,8.1,19.4s-3,14.5-8.4,19.5c-4.9,4.5-11.1,7-18.1,7.2.8.6,1.6,1.3,2.3,2,5.2,5,8.1,11.9,8.1,19.3s-2.9,14.3-8.1,19.3c-5.1,4.9-11.7,7.5-19.1,7.5h-20.7v21.7c0,7.4-2.8,14.2-8,19.4-5.2,5.2-12,8-19.4,8Z" />
      <path
        d="M783.8,174.2c-7.4,0-14.2-2.8-19.4-8-5.1-5.1-8-12-8-19.4V50.8c0-7.6,2.9-14.6,8.2-19.7,5.2-5,11.8-7.7,19.2-7.7h64.2c7.4,0,14,2.6,19.1,7.5,5.2,5,8.1,11.9,8.1,19.4s-3,14.5-8.4,19.5c-4.9,4.5-11.1,7-18.1,7.2.8.6,1.6,1.3,2.3,2,5.2,5,8.1,11.9,8.1,19.3s-2.9,14.3-8.1,19.3c-1.2,1.1-2.4,2.1-3.7,3h.6c7.3,0,13.8,2.5,18.8,7.2,5.4,5,8.4,11.9,8.4,19.5s-2.9,14.4-8.1,19.4c-5.1,4.9-11.7,7.5-19.1,7.5h-64.2Z" />
      <path
        d="M942.1,174.2c-4.6,0-8.9-1.1-12.9-3.1-4.3-2.2-7.9-5.6-10.5-9.9l-8.1-13.1c-.3,6.8-2.9,13-7.6,17.9-5.1,5.3-12.1,8.2-19.7,8.2s-14.2-2.8-19.4-8c-5.1-5.1-8-12-8-19.4V50.8c0-7.6,2.9-14.6,8.2-19.7,5.2-5,11.8-7.7,19.2-7.7h25.5c10.4,0,20,2.3,28.4,6.9,8.7,4.7,15.6,11.3,20.5,19.7,4.9,8.3,7.4,17.8,7.4,28.3s-2.5,19.4-7.6,27.6c-1.5,2.4-3.1,4.7-4.9,6.8l12.2,19.6c5.4,8.7,6,18.7,1.5,27.4-4.6,9.1-13.7,14.5-24.2,14.5ZM910.6,77.7c.1,0,.2,0,.3,0,0-.2,0-.3,0-.3,0,0,0,0,0,0,0,0,0,0-.1,0v.5Z" />
      <path
        d="M1015.2,175.7c-10.4,0-20.3-2-29.4-6-9.1-3.9-17.1-9.5-23.9-16.5-6.7-7-12-15.2-15.8-24.5-3.7-9.3-5.6-19.3-5.6-29.9s1.9-20.5,5.7-29.8c3.7-9.2,9-17.4,15.8-24.4,6.8-7,14.7-12.6,23.7-16.5,9.2-4.1,19.1-6.1,29.7-6.1s18.2,1.4,25.6,4c7.3,2.6,14.5,6.8,21.5,12.5,2.3,1.8,4.2,3.8,5.8,6,1.9,2.7,3.2,5.7,3.9,8.7.5,2.1.7,4.3.7,6.7,0,7.2-2.9,14-8.1,19-1.1,1.1-2.3,2-3.5,2.9,1.3.9,2.5,1.9,3.6,3.1,5,5.2,7.6,11.8,7.6,19.2v33.9c0,3.3-.6,6.5-1.7,9.7-1.5,4-3.9,7.6-7.3,10.5l-.5.4c-6.8,5.7-14.4,10-22.5,12.8-8,2.8-16.4,4.2-25,4.2ZM1015.2,75.3c-2.7,0-5.1.5-7.4,1.6-2.6,1.2-4.8,2.8-6.8,4.9-1,1-1.8,2.1-2.5,3.2.5-.5,1-1,1.6-1.5,5.1-4.4,11.4-6.7,18.4-6.7h5c-.5-.2-.9-.5-1.4-.7,0,0-1.9-.8-6.9-.8Z" />
      <path
        d="M1122.2,176.5c-12.1,0-23.1-2.4-32.8-7-10.3-4.9-18.5-12-24.5-21-6.1-9.3-9.2-19.8-9.2-31.4V50.8c0-7.6,2.9-14.6,8.2-19.7,5.2-5,11.8-7.7,19.2-7.7s14.3,2.8,19.5,7.9c5.2,5.2,7.9,11.9,7.9,19.5v66.3c0,1.5.4,2,.5,2.2.4.6,1.2,1.5,3.2,2.4,2.1,1,4.8,1.5,8,1.5s5.3-.5,7.1-1.3c1.7-.8,2.4-1.7,2.8-2.3.2-.3.6-.9.6-2.5V50.8c0-7.6,2.9-14.6,8.2-19.7,5.2-5,11.8-7.7,19.2-7.7s14.5,2.9,19.6,8.2c5,5.2,7.6,11.8,7.6,19.2v66.3c0,11.5-3,22-8.9,31.3-5.8,9-13.9,16.1-24,21.1-9.6,4.7-20.4,7.1-32.3,7.1Z" />
      <path
        d="M1230.9,175.7c-8.2,0-16.3-1.3-23.8-3.9-7.8-2.7-14.7-6.6-20.7-11.5-6.4-5.4-11.2-11.7-14.4-19-3.6-7.8-3.2-16.5,1.1-23.8,3.3-5.6,8.4-9.7,14.7-11.8-9.5-9.3-14.5-21.1-14.5-34.3s3.3-20.5,9.7-28.4c5.7-7.1,13.4-12.6,22.8-16.1,8.2-3.1,17.4-4.7,27.2-4.7s15.6,1.2,22.1,3.7c6.6,2.5,12.5,6,17.5,10.4,4.7,4.1,8.8,9,12.1,14.5,3.8,6,5.3,12.5,4.5,19-1,7.7-5.2,14.3-11.7,18.6,0,0-.2.1-.2.1,8.9,9.3,13.6,21.3,13.6,35.1s-2,16.8-5.9,23.8c-3.6,6.5-8.6,12.1-14.7,16.5-5.7,4.1-12.1,7.1-19.1,9.1-6.5,1.8-13.3,2.7-20.2,2.7Z" />
      <path
        d="M1344.6,175.7c-10.9,0-21.1-1.9-30.3-5.6-9.4-3.8-17.7-9.3-24.6-16.3-6.8-7-12.2-15.3-15.9-24.7-3.7-9.3-5.5-19.4-5.5-30.3s1.9-21,5.5-30.2c3.7-9.4,9.1-17.6,15.9-24.6,6.9-7,15.2-12.5,24.6-16.3,9.3-3.7,19.5-5.6,30.3-5.6s21.1,1.9,30.3,5.7c9.3,3.8,17.6,9.3,24.5,16.2,6.9,7,12.3,15.3,16,24.6,3.7,9.2,5.5,19.4,5.5,30.2s-1.9,21-5.5,30.3c-3.7,9.5-9.1,17.8-16,24.8-6.9,7-15.1,12.4-24.5,16.2-9.2,3.8-19.4,5.7-30.3,5.7ZM1344.6,75.3c-3.4,0-6.5.6-9.2,1.7-2.7,1.1-4.8,2.6-6.6,4.5-2,2.1-3.4,4.4-4.6,7.4-1.2,2.9-1.7,6.3-1.7,9.9s.6,6.9,1.7,9.9c1.2,2.9,2.6,5.3,4.6,7.4,1.9,2,4.1,3.5,6.8,4.6,2.7,1.1,5.6,1.7,9.1,1.7s6.4-.6,9-1.7c2.8-1.2,5-2.7,6.9-4.7,2-2,3.4-4.3,4.5-7.1,1.1-3,1.7-6.3,1.7-10s-.6-7-1.7-10c-1.1-2.8-2.5-5.1-4.5-7.1-1.9-2-4.1-3.5-6.8-4.6-2.7-1.1-5.7-1.7-9.2-1.7Z" />
      <path
        d="M1506.3,174.2c-3.5,0-6.9-.7-10.3-2-4.5-1.8-8.2-4.5-11.1-8.3l-26.1-34.7v17.6c0,7.3-2.7,13.9-7.7,19.1-5.1,5.3-12.1,8.2-19.7,8.2s-14.4-2.9-19.6-8.2c-4.9-5.1-7.7-11.9-7.7-19.1V50.8c0-7.4,2.8-14.4,7.9-19.5,5.1-5.1,12-7.9,19.3-7.9s15.6,3.5,21,9.8l.4.4,26.2,34.9v-17.7c0-7.6,2.9-14.6,8.2-19.7,5.2-5,11.8-7.7,19.2-7.7s14.5,2.9,19.6,8.2c5,5.2,7.6,11.8,7.6,19.2v96.1c0,7.2-2.5,13.7-7.4,18.9-5.1,5.5-12.2,8.5-19.9,8.5Z" />
    </g>
  </g>
  <g id="middle" fill="#1fa7cc">
    <g>
      <path
        d="M106.5,164.2c-3,0-5.7-.7-8.3-2-2.7-1.4-4.9-3.5-6.7-6.3l-21.4-34.4h-5.3v25.3c0,4.7-1.7,8.9-4.9,12.2-3.3,3.4-7.6,5.2-12.5,5.2s-9-1.7-12.3-5.1c-3.3-3.3-5.1-7.6-5.1-12.3V50.8c0-4.9,1.8-9.2,5.2-12.5,3.3-3.2,7.5-4.9,12.2-4.9h25.5c8.7,0,16.7,1.9,23.6,5.7,7.1,3.8,12.7,9.2,16.7,16,4,6.7,6,14.6,6,23.3s-2,15.8-6.1,22.4c-2.5,4-5.5,7.5-9.1,10.5l16.4,26.4c3.6,5.7,4,12,1.1,17.5-2.9,5.8-8.5,9.1-15.3,9.1ZM73.2,87.9c2.8,0,5.1-.5,7-1.4,1.7-.8,2.9-1.9,3.8-3.4.9-1.4,1.3-2.9,1.3-4.8s-.5-4.3-1.5-6c-1-1.7-2.2-2.9-4-3.8-1.8-1-4-1.5-6.7-1.5h-8.2v20.9h8.2Z" />
      <path
        d="M181.2,165.7c-9.6,0-18.5-1.7-26.6-4.9-8.2-3.3-15.3-8-21.2-14-5.9-6-10.5-13.2-13.7-21.4-3.2-8.1-4.8-17-4.8-26.6s1.6-18.5,4.8-26.5c3.2-8.1,7.8-15.3,13.7-21.3,5.9-6,13-10.8,21.2-14,8.1-3.3,17-4.9,26.6-4.9s18.5,1.7,26.5,4.9c8.1,3.3,15.2,8,21.1,14,5.9,6,10.6,13.2,13.8,21.3,3.2,8.1,4.8,17,4.8,26.5s-1.6,18.5-4.8,26.6c-3.2,8.2-7.9,15.4-13.8,21.4-6,6-13.1,10.7-21.1,14-8,3.3-17,4.9-26.5,4.9ZM181.2,65.3c-4.8,0-9.2.8-13.1,2.5-3.9,1.7-7.2,3.9-10,6.8-2.9,3-5,6.5-6.7,10.6-1.6,4.1-2.4,8.7-2.4,13.5s.8,9.4,2.4,13.5c1.6,4.1,3.8,7.6,6.7,10.6,2.8,3,6.1,5.2,10.1,6.9,3.9,1.7,8.2,2.5,13,2.5s9.1-.8,13-2.5c4-1.7,7.3-4,10.2-7,2.9-3,5-6.4,6.6-10.5,1.6-4.1,2.4-8.7,2.4-13.6s-.8-9.5-2.4-13.6c-1.6-4.1-3.7-7.5-6.6-10.5-2.9-3-6.2-5.2-10.1-6.9-3.9-1.6-8.3-2.5-13.1-2.5Z" />
      <path
        d="M268,164.2c-4.8,0-9-1.7-12.3-5.1-3.3-3.3-5.1-7.6-5.1-12.3V50.8c0-4.9,1.8-9.2,5.2-12.5,3.3-3.2,7.5-4.9,12.2-4.9h33.9c8,0,15.2,1.6,21.5,4.9,6.5,3.3,11.6,8,15.4,14,3.8,6.1,5.7,13,5.7,20.6s-1.8,12.7-5.5,18.1c-.2.4-.5.7-.7,1.1,1.7,1.4,3.3,3,4.8,4.7,5.4,6.3,8.1,14.3,8.1,23.9s-2,16-6.1,22.5c-4,6.5-9.6,11.8-16.7,15.5-6.9,3.6-14.8,5.5-23.5,5.5h-36.9ZM304.9,130.6c2.9,0,5.4-.5,7.3-1.4,1.6-.7,2.7-1.7,3.6-3,.8-1.3,1.2-3.1,1.2-5.5s-.3-3.4-1-4.3c-.8-1.1-1.9-1.9-3.5-2.6-2.1-.9-4.7-1.3-7.7-1.3h-19.5v18h19.5ZM302,79c3.2,0,5.5-.6,7.2-1.9.3-.3,1.3-1,1.3-4.1s-.9-3.8-1.2-4c-1.7-1.3-4.1-1.9-7.2-1.9h-16.5v11.9h16.5Z" />
      <path
        d="M370.7,164.2c-4.8,0-9-1.8-12.3-5.1-3.3-3.3-5.1-7.6-5.1-12.3V50.8c0-4.9,1.8-9.2,5.2-12.5,3.3-3.2,7.5-4.9,12.2-4.9h64.2c4.8,0,9,1.6,12.2,4.7,3.3,3.2,5,7.4,5,12.2s-1.8,9.1-5.2,12.2c-3.2,3-7.4,4.5-12.1,4.5h-46.8v14.5h30.7c4.8,0,9,1.6,12.2,4.7,3.3,3.2,5.1,7.4,5.1,12.1s-1.7,8.9-5,12.1c-3.2,3.1-7.4,4.7-12.2,4.7h-30.7v15.5h46.8c4.7,0,8.9,1.6,12.1,4.5,3.4,3.2,5.2,7.4,5.2,12.2s-1.7,9.1-5,12.2c-3.2,3.1-7.4,4.7-12.2,4.7h-64.2Z" />
      <path
        d="M528.9,164.2c-3,0-5.7-.7-8.3-2-2.7-1.4-4.9-3.5-6.7-6.3l-21.4-34.4h-5.3v25.3c0,4.7-1.7,8.9-4.9,12.2-3.3,3.4-7.6,5.2-12.5,5.2s-9-1.8-12.3-5.1c-3.3-3.3-5.1-7.6-5.1-12.3V50.8c0-4.9,1.8-9.2,5.2-12.5,3.3-3.2,7.5-4.9,12.2-4.9h25.5c8.7,0,16.7,1.9,23.6,5.7,7.1,3.8,12.7,9.2,16.7,16,4,6.7,6,14.6,6,23.3s-2,15.8-6.1,22.4c-2.5,4-5.5,7.5-9.1,10.5l16.4,26.4c3.6,5.7,4,12,1.1,17.5-2.9,5.8-8.5,9.1-15.3,9.1ZM495.6,87.9c2.8,0,5.1-.5,7-1.4,1.7-.8,2.9-1.9,3.8-3.4.9-1.4,1.3-2.9,1.3-4.8s-.5-4.3-1.5-6c-1-1.7-2.2-2.9-4-3.8-1.8-1-4-1.5-6.7-1.5h-8.2v20.9h8.2Z" />
      <path
        d="M585.1,164.2c-4.8,0-9-1.8-12.3-5.1-3.3-3.3-5.1-7.6-5.1-12.3v-79.8h-20.7c-4.7,0-8.8-1.7-12-4.8-3.2-3.2-4.8-7.3-4.8-12s1.7-8.8,4.8-12c3.2-3.2,7.3-4.8,12-4.8h75.9c4.7,0,8.8,1.7,12,4.8,3.2,3.2,4.8,7.3,4.8,12s-1.7,8.8-4.8,12c-3.2,3.2-7.3,4.8-12,4.8h-20.5v79.8c0,4.8-1.7,9-5.1,12.3-3.3,3.3-7.6,5.1-12.3,5.1Z" />
      <path
        d="M686.2,164.2c-4.8,0-9-1.8-12.3-5.1-3.3-3.3-5.1-7.6-5.1-12.3V50.8c0-4.9,1.8-9.2,5.2-12.5,3.3-3.2,7.5-4.9,12.2-4.9h64.2c4.8,0,9,1.6,12.2,4.7,3.3,3.2,5,7.4,5,12.2s-1.8,9.1-5.2,12.2c-3.2,3-7.4,4.5-12.1,4.5h-46.8v14.5h30.7c4.8,0,9,1.6,12.2,4.7,3.3,3.2,5.1,7.4,5.1,12.1s-1.7,8.9-5,12.1c-3.2,3.1-7.4,4.7-12.2,4.7h-30.7v31.7c0,4.8-1.7,9-5.1,12.3-3.3,3.3-7.6,5.1-12.3,5.1Z" />
      <path
        d="M783.8,164.2c-4.8,0-9-1.8-12.3-5.1-3.3-3.3-5.1-7.6-5.1-12.3V50.8c0-4.9,1.8-9.2,5.2-12.5,3.3-3.2,7.5-4.9,12.2-4.9h64.2c4.8,0,9,1.6,12.2,4.7,3.3,3.2,5,7.4,5,12.2s-1.8,9.1-5.2,12.2c-3.2,3-7.4,4.5-12.1,4.5h-46.8v14.5h30.7c4.8,0,9,1.6,12.2,4.7,3.3,3.2,5,7.4,5,12.1s-1.7,8.9-5,12.1c-3.2,3.1-7.4,4.7-12.2,4.7h-30.7v15.5h46.8c4.7,0,8.9,1.6,12.1,4.5,3.4,3.2,5.2,7.4,5.2,12.2s-1.7,9.1-5,12.2c-3.2,3.1-7.4,4.7-12.2,4.7h-64.2Z" />
      <path
        d="M942.1,164.2c-3,0-5.7-.7-8.3-2-2.7-1.4-4.9-3.5-6.7-6.3l-21.4-34.4h-5.3v25.3c0,4.7-1.7,8.9-4.9,12.2-3.3,3.4-7.6,5.2-12.5,5.2s-9-1.8-12.3-5.1c-3.3-3.3-5.1-7.6-5.1-12.3V50.8c0-4.9,1.8-9.2,5.2-12.5,3.3-3.2,7.5-4.9,12.2-4.9h25.5c8.7,0,16.7,1.9,23.6,5.7,7.1,3.8,12.7,9.2,16.7,16,4,6.7,6,14.6,6,23.3s-2,15.8-6.1,22.4c-2.5,4-5.5,7.5-9.1,10.5l16.4,26.4c3.6,5.7,4,12,1.1,17.5-2.9,5.8-8.5,9.1-15.3,9.1ZM908.7,87.9c2.8,0,5.1-.5,7-1.4,1.7-.8,2.9-1.9,3.8-3.4.9-1.4,1.3-2.9,1.3-4.8s-.5-4.3-1.5-6c-1-1.7-2.2-2.9-4-3.8-1.8-1-4-1.5-6.7-1.5h-8.2v20.9h8.2Z" />
      <path
        d="M1015.2,165.7c-9,0-17.6-1.7-25.5-5.2-7.9-3.4-14.8-8.2-20.7-14.3-5.8-6.1-10.5-13.2-13.7-21.3-3.3-8.1-4.9-16.9-4.9-26.2s1.7-18,4.9-26c3.3-8,7.9-15.1,13.7-21.2,5.8-6.1,12.8-10.9,20.5-14.3,7.9-3.5,16.5-5.3,25.6-5.3s15.9,1.2,22.2,3.4c6.3,2.3,12.5,5.9,18.6,10.9,1.5,1.2,2.8,2.5,3.8,3.9,1.2,1.7,2,3.4,2.4,5.3.3,1.4.5,2.8.5,4.5,0,4.6-1.7,8.6-5,11.8-3,2.9-6.9,4.6-11.1,4.8-.3,0-.6,0-.9,0-4,0-7.9-1.4-11.2-4.1l-.2-.2c-2.7-2.3-5.5-4.1-8.3-5.3-1.7-.7-5-1.6-10.9-1.6s-7.9.8-11.6,2.5c-3.8,1.7-7,4.1-9.9,7.1-2.9,3.1-5.1,6.6-6.7,10.7-1.6,4.1-2.4,8.5-2.4,13.1s.8,9.2,2.4,13.3c1.6,4.1,3.8,7.6,6.7,10.7,2.9,3,6.1,5.3,9.8,7,3.6,1.6,7.5,2.4,11.6,2.4s6.9-.6,10.1-1.8c.9-.4,1.8-.7,2.7-1.2v-9.4h-9.6c-4.5,0-8.6-1.5-11.8-4.3-3.6-3.1-5.6-7.5-5.6-12.2s2-9.1,5.6-12.2c3.2-2.8,7.3-4.3,11.8-4.3h26.5c4.9,0,9.2,1.8,12.4,5.1,3.1,3.3,4.8,7.5,4.8,12.3v33.9c0,2.1-.4,4.2-1.1,6.2-.9,2.5-2.4,4.7-4.5,6.5l-.3.2c-5.9,4.9-12.5,8.6-19.4,11-6.9,2.4-14.2,3.6-21.7,3.6Z" />
      <path
        d="M1122.2,166.5c-10.5,0-20.1-2-28.5-6-8.6-4.1-15.5-10-20.4-17.5-5-7.6-7.5-16.3-7.5-25.9V50.8c0-4.9,1.8-9.2,5.2-12.5,3.3-3.2,7.5-4.9,12.2-4.9s9.1,1.7,12.4,5c3.3,3.3,5,7.6,5,12.4v66.3c0,3.1.7,5.7,2.3,7.9,1.7,2.4,4,4.4,7.2,5.8,3.4,1.6,7.5,2.4,12.2,2.4s8.3-.8,11.5-2.3c3-1.4,5.2-3.3,6.8-5.8,1.5-2.3,2.2-4.9,2.2-8V50.8c0-4.9,1.8-9.2,5.2-12.5,3.3-3.2,7.5-4.9,12.2-4.9s9.2,1.8,12.4,5.1c3.1,3.3,4.8,7.5,4.8,12.3v66.3c0,9.6-2.5,18.3-7.3,25.8-4.8,7.5-11.5,13.4-20,17.5-8.2,4-17.5,6.1-27.8,6.1Z" />
      <path
        d="M1230.9,165.7c-7.1,0-14.1-1.1-20.6-3.4-6.6-2.3-12.5-5.6-17.5-9.7-5.2-4.4-9.1-9.5-11.6-15.4-2.3-4.9-2.1-10.1.6-14.7,1.7-2.9,5.1-6.7,11.6-8,1.2-.3,2.4-.4,3.6-.4,2.9,0,5.7.7,8.3,2.2,3.5,1.9,6.3,4.9,8,8.6.4.9,1.3,1.9,2.6,2.9,1.7,1.3,3.9,2.4,6.5,3.3,2.7.9,5.5,1.3,8.5,1.3s6.4-.5,9.1-1.5c2.3-.8,4-2,5.3-3.4.5-.6,1.1-1.5,1.1-3.4s-.3-3.8-3-6.5c-1.3-1.3-4.7-3.6-13.3-4.5-13.7-1.3-24.9-5.6-33.1-12.7-8.9-7.6-13.6-17.7-13.6-29s2.5-16,7.5-22.2c4.6-5.7,10.8-10.1,18.5-13,7.1-2.7,15.1-4.1,23.6-4.1s13.2,1,18.6,3c5.4,2,10.3,4.9,14.4,8.5,3.9,3.5,7.4,7.6,10.2,12.3,2.6,4.1,3.6,8.2,3.1,12.4-.6,4.8-3.2,8.8-7.3,11.5h0c-2.7,1.8-5.8,2.7-8.9,2.7s-3.5-.3-5.3-.8c-4.4-1.4-8-4.3-10.3-8.2v-.2c-1.1-1.7-2.1-3.1-3.4-4.2-1.3-1.1-2.8-2-4.6-2.6-1.8-.7-4.1-1-6.9-1h-.7c-4.9,0-8.9.9-11.9,2.6-1.4.8-2,1.5-2,3.7s.3,2.1.9,3.2c0,.1.7,1.2,3.7,2.6,2,.9,5.9,2.2,13.6,3,13.4,1.3,24.2,5.7,32,12.8,8.4,7.7,12.7,17.8,12.7,30s-1.6,13.5-4.6,18.9c-2.9,5.2-6.9,9.7-11.8,13.2-4.7,3.4-10.1,5.9-16,7.6-5.6,1.6-11.5,2.4-17.5,2.4Z" />
      <path
        d="M1344.6,165.7c-9.6,0-18.5-1.7-26.6-4.9-8.2-3.3-15.3-8-21.2-14-5.9-6-10.5-13.2-13.7-21.4-3.2-8.1-4.8-17-4.8-26.6s1.6-18.5,4.8-26.5c3.2-8.1,7.8-15.3,13.7-21.3,5.9-6,13-10.8,21.2-14,8.1-3.3,17-4.9,26.6-4.9s18.5,1.7,26.5,4.9c8.1,3.3,15.2,8,21.1,14,5.9,6,10.6,13.2,13.8,21.3,3.2,8.1,4.8,17,4.8,26.5s-1.6,18.5-4.8,26.6c-3.2,8.2-7.9,15.4-13.8,21.4-6,6-13.1,10.7-21.1,14-8,3.3-17,4.9-26.5,4.9ZM1344.6,65.3c-4.8,0-9.2.8-13.1,2.5-3.9,1.7-7.2,3.9-10,6.8-2.9,3-5,6.5-6.7,10.6-1.6,4.1-2.4,8.7-2.4,13.5s.8,9.4,2.4,13.5c1.6,4.1,3.8,7.6,6.7,10.6,2.8,3,6.1,5.2,10.1,6.9,3.9,1.7,8.2,2.5,13,2.5s9.1-.8,13-2.5c4-1.7,7.3-4,10.2-7,2.9-3,5-6.4,6.6-10.5,1.6-4.1,2.4-8.7,2.4-13.6s-.8-9.5-2.4-13.6c-1.6-4.1-3.7-7.5-6.6-10.5-2.9-3-6.2-5.2-10.1-6.9-3.9-1.6-8.3-2.5-13.1-2.5Z" />
      <path
        d="M1506.3,164.2c-2.2,0-4.5-.4-6.7-1.3-2.8-1.1-5.1-2.8-6.9-5.1l-44-58.5v47.6c0,4.7-1.7,8.9-4.9,12.2-3.3,3.4-7.6,5.2-12.5,5.2s-9.1-1.8-12.4-5.2c-3.2-3.3-4.9-7.5-4.9-12.2V50.8c0-4.8,1.7-9.1,5-12.4,3.3-3.3,7.5-5,12.3-5s9.9,2.2,13.3,6.3l.2.2,44.1,58.6v-47.7c0-4.9,1.8-9.2,5.2-12.5,3.3-3.2,7.5-4.9,12.2-4.9s9.2,1.8,12.4,5.1c3.1,3.3,4.8,7.5,4.8,12.3v96.1c0,4.6-1.6,8.8-4.7,12.1-3.2,3.5-7.6,5.3-12.6,5.3Z" />
    </g>
  </g>
  <g id="inner" fill="#fff">
    <g>
      <path
        d="M90.5,108c.5-.2,1-.5,1.5-.7,5.5-2.8,9.8-6.8,12.8-11.8,3.1-5,4.6-10.7,4.6-17.2s-1.5-13-4.6-18.2c-3.1-5.2-7.4-9.3-12.8-12.3-5.5-3-11.8-4.5-18.9-4.5h-25.5c-2.1,0-3.8.7-5.3,2.1-1.4,1.4-2.1,3.1-2.1,5.3v96.1c0,2.1.7,3.8,2.1,5.3,1.4,1.4,3.2,2.1,5.3,2.1s3.9-.7,5.3-2.1c1.4-1.4,2.1-3.2,2.1-5.3v-35.3h18.2c.9,0,1.8,0,2.6,0l24.4,39.2c.8,1.2,1.7,2.1,2.8,2.7,1.1.6,2.3.9,3.6.9,3,0,5.2-1.2,6.4-3.6,1.2-2.4,1-5-.7-7.7l-21.7-34.9ZM84.7,95.4c-3.3,1.7-7.1,2.5-11.5,2.5h-18.2v-40.9h18.2c4.4,0,8.2.9,11.5,2.7,3.3,1.8,5.9,4.3,7.8,7.5,1.9,3.2,2.8,6.9,2.8,11.1s-.9,7.2-2.8,10.1c-1.9,3-4.5,5.3-7.8,7Z" />
      <path
        d="M221.8,57.9c-5-5.1-11-9-17.8-11.8-6.9-2.8-14.5-4.2-22.8-4.2s-15.9,1.4-22.9,4.2c-6.9,2.8-12.8,6.7-17.8,11.8-5,5.1-8.8,11-11.6,18-2.7,6.9-4.1,14.5-4.1,22.9s1.4,16,4.1,22.9c2.7,7,6.6,13,11.6,18,5,5.1,10.9,9,17.8,11.8,6.9,2.8,14.5,4.2,22.9,4.2s15.9-1.4,22.8-4.2c6.9-2.8,12.8-6.7,17.8-11.8,5-5.1,8.9-11.1,11.6-18,2.7-7,4.1-14.6,4.1-22.9s-1.4-15.9-4.1-22.9c-2.7-6.9-6.6-12.9-11.6-18ZM220.3,115.9c-2,5.3-4.9,9.9-8.7,13.8-3.8,3.9-8.3,7-13.4,9.2-5.2,2.2-10.8,3.3-17,3.3s-11.8-1.1-17-3.3c-5.2-2.2-9.6-5.3-13.3-9.2-3.7-3.9-6.6-8.5-8.7-13.8-2.1-5.3-3.1-11-3.1-17.2s1-11.9,3.1-17.2c2.1-5.3,5-9.9,8.7-13.8,3.7-3.9,8.2-7,13.3-9.2,5.2-2.2,10.8-3.3,17-3.3s11.8,1.1,17,3.3c5.2,2.2,9.6,5.2,13.4,9.2,3.8,3.9,6.7,8.5,8.7,13.8,2,5.3,3.1,11,3.1,17.2s-1,11.9-3.1,17.2Z" />
      <path
        d="M320.6,94.3c4.4-2.2,7.8-5.1,10.3-8.9,2.5-3.7,3.8-7.9,3.8-12.6s-1.4-10.9-4.2-15.3c-2.8-4.4-6.6-7.9-11.5-10.4-4.9-2.5-10.5-3.8-17-3.8h-33.9c-2.1,0-3.8.7-5.3,2.1-1.4,1.4-2.1,3.1-2.1,5.3v96.1c0,2.1.7,3.8,2.1,5.3,1.4,1.4,3.2,2.1,5.3,2.1h36.9c7.1,0,13.4-1.4,18.9-4.3,5.5-2.9,9.8-6.8,12.8-11.9,3.1-5,4.6-10.8,4.6-17.3s-1.9-13-5.7-17.5c-3.8-4.4-8.8-7.4-15-8.9ZM275.4,57h26.5c5.4,0,9.8,1.3,13.3,3.9,3.5,2.6,5.2,6.6,5.2,12s-1.7,9.4-5.2,12.1c-3.5,2.7-7.9,4-13.3,4h-26.5v-31.9ZM324.2,131.7c-1.9,2.9-4.5,5.2-7.8,6.7-3.3,1.5-7.1,2.3-11.5,2.3h-29.5v-38h29.5c4.4,0,8.2.7,11.5,2.1,3.3,1.4,5.9,3.4,7.8,6,1.9,2.7,2.8,6,2.8,10.1s-.9,8-2.8,10.9Z" />
      <path
        d="M434.8,57c2.2,0,3.9-.6,5.3-1.8,1.3-1.2,2-2.8,2-4.8s-.7-3.8-2-5c-1.3-1.3-3.1-1.9-5.3-1.9h-64.2c-2.1,0-3.8.7-5.3,2.1-1.4,1.4-2.1,3.1-2.1,5.3v96.1c0,2.1.7,3.8,2.1,5.3,1.4,1.4,3.2,2.1,5.3,2.1h64.2c2.2,0,3.9-.6,5.3-1.9,1.3-1.3,2-3,2-5s-.7-3.6-2-4.8c-1.3-1.2-3.1-1.8-5.3-1.8h-56.8v-35.5h40.7c2.2,0,3.9-.6,5.3-1.9,1.3-1.3,2-2.9,2-4.9s-.7-3.6-2-4.9c-1.3-1.3-3.1-1.9-5.3-1.9h-40.7v-34.5h56.8Z" />
      <path
        d="M512.9,108c.5-.2,1-.5,1.5-.7,5.5-2.8,9.8-6.8,12.8-11.8,3.1-5,4.6-10.7,4.6-17.2s-1.5-13-4.6-18.2c-3.1-5.2-7.4-9.3-12.8-12.3-5.5-3-11.8-4.5-18.9-4.5h-25.5c-2.1,0-3.8.7-5.3,2.1-1.4,1.4-2.1,3.1-2.1,5.3v96.1c0,2.1.7,3.8,2.1,5.3,1.4,1.4,3.2,2.1,5.3,2.1s3.9-.7,5.3-2.1c1.4-1.4,2.1-3.2,2.1-5.3v-35.3h18.2c.9,0,1.8,0,2.6,0l24.4,39.2c.8,1.2,1.7,2.1,2.8,2.7,1.1.6,2.3.9,3.6.9,3,0,5.2-1.2,6.4-3.6,1.2-2.4,1-5-.7-7.7l-21.7-34.9ZM507.1,95.4c-3.3,1.7-7.1,2.5-11.5,2.5h-18.2v-40.9h18.2c4.4,0,8.2.9,11.5,2.7,3.3,1.8,5.9,4.3,7.8,7.5,1.9,3.2,2.8,6.9,2.8,11.1s-.9,7.2-2.8,10.1c-1.9,3-4.5,5.3-7.8,7Z" />
      <path
        d="M623,43.4h-75.9c-2,0-3.6.6-4.9,1.9-1.3,1.3-1.9,2.9-1.9,4.9s.6,3.6,1.9,4.9c1.3,1.3,2.9,1.9,4.9,1.9h30.7v89.8c0,2.1.7,3.8,2.1,5.3,1.4,1.4,3.2,2.1,5.3,2.1s3.8-.7,5.3-2.1c1.4-1.4,2.1-3.2,2.1-5.3V57h30.5c2,0,3.6-.6,4.9-1.9,1.3-1.3,1.9-2.9,1.9-4.9s-.6-3.6-1.9-4.9c-1.3-1.3-2.9-1.9-4.9-1.9Z" />
      <path
        d="M750.3,43.4h-64.2c-2.1,0-3.8.7-5.3,2.1-1.4,1.4-2.1,3.1-2.1,5.3v96.1c0,2.1.7,3.8,2.1,5.3,1.4,1.4,3.2,2.1,5.3,2.1s3.8-.7,5.3-2.1,2.1-3.2,2.1-5.3v-41.7h40.7c2.2,0,3.9-.6,5.3-1.9,1.3-1.3,2-2.9,2-4.9s-.7-3.6-2-4.9c-1.3-1.3-3.1-1.9-5.3-1.9h-40.7v-34.5h56.8c2.2,0,3.9-.6,5.3-1.8,1.3-1.2,2-2.8,2-4.8s-.7-3.8-2-5c-1.3-1.3-3.1-1.9-5.3-1.9Z" />
      <path
        d="M848,57c2.2,0,3.9-.6,5.3-1.8,1.3-1.2,2-2.8,2-4.8s-.7-3.8-2-5c-1.3-1.3-3.1-1.9-5.3-1.9h-64.2c-2.1,0-3.8.7-5.3,2.1-1.4,1.4-2.1,3.1-2.1,5.3v96.1c0,2.1.7,3.8,2.1,5.3,1.4,1.4,3.2,2.1,5.3,2.1h64.2c2.2,0,3.9-.6,5.3-1.9,1.3-1.3,2-3,2-5s-.7-3.6-2-4.8c-1.3-1.2-3.1-1.8-5.3-1.8h-56.8v-35.5h40.7c2.2,0,3.9-.6,5.3-1.9,1.3-1.3,2-2.9,2-4.9s-.7-3.6-2-4.9c-1.3-1.3-3.1-1.9-5.3-1.9h-40.7v-34.5h56.8Z" />
      <path
        d="M926.1,108c.5-.2,1-.5,1.5-.7,5.5-2.8,9.8-6.8,12.8-11.8,3.1-5,4.6-10.7,4.6-17.2s-1.5-13-4.6-18.2c-3.1-5.2-7.4-9.3-12.8-12.3-5.5-3-11.8-4.5-18.9-4.5h-25.5c-2.1,0-3.8.7-5.3,2.1-1.4,1.4-2.1,3.1-2.1,5.3v96.1c0,2.1.7,3.8,2.1,5.3,1.4,1.4,3.2,2.1,5.3,2.1s3.9-.7,5.3-2.1c1.4-1.4,2.1-3.2,2.1-5.3v-35.3h18.2c.9,0,1.8,0,2.6,0l24.4,39.2c.8,1.2,1.7,2.1,2.8,2.7,1.1.6,2.3.9,3.6.9,3,0,5.2-1.2,6.4-3.6,1.2-2.4,1-5-.7-7.7l-21.7-34.9ZM890.6,97.9v-40.9h18.2c4.4,0,8.2.9,11.5,2.7,3.3,1.8,5.9,4.3,7.8,7.5,1.9,3.2,2.8,6.9,2.8,11.1s-.9,7.2-2.8,10.1c-1.9,3-4.5,5.3-7.8,7-3.3,1.7-7.1,2.5-11.5,2.5h-18.2Z" />
      <path
        d="M986.4,68.1c3.7-4,8.1-7.1,13-9.4,4.9-2.3,10.2-3.4,15.8-3.4s11.1.8,14.8,2.4c3.7,1.6,7.4,3.9,10.9,7,1.6,1.3,3.3,1.9,5.2,1.8,1.8,0,3.4-.8,4.7-2,1.3-1.2,1.9-2.7,1.9-4.5s0-1.6-.2-2.2c-.1-.6-.4-1.2-.9-1.8-.4-.6-1-1.2-1.8-1.8-5.3-4.4-10.6-7.5-15.8-9.4-5.3-1.9-11.5-2.8-18.8-2.8s-15,1.5-21.6,4.4c-6.6,2.9-12.4,7-17.4,12.1-5,5.2-8.8,11.2-11.6,18-2.8,6.9-4.2,14.3-4.2,22.2s1.4,15.5,4.2,22.4c2.8,6.9,6.7,12.9,11.6,18.1,5,5.2,10.8,9.2,17.5,12.1,6.7,2.9,13.8,4.3,21.5,4.3s12.6-1,18.5-3.1c5.9-2,11.3-5.1,16.3-9.3.9-.8,1.4-1.6,1.8-2.5.3-.9.5-1.8.5-2.8v-33.9c0-2.2-.7-4-2-5.3-1.3-1.4-3.1-2.1-5.3-2.1h-26.5c-2.1,0-3.8.6-5.3,1.8-1.4,1.2-2.1,2.8-2.1,4.7s.7,3.5,2.1,4.7c1.4,1.2,3.2,1.8,5.3,1.8h19.6v25.2c-3,1.9-6,3.4-9.2,4.6-4.3,1.7-8.9,2.5-13.7,2.5s-10.8-1.1-15.8-3.3c-4.9-2.2-9.2-5.3-13-9.3-3.7-4-6.6-8.6-8.7-13.8-2.1-5.3-3.1-10.9-3.1-17s1-11.6,3.1-16.8c2.1-5.3,5-9.9,8.7-13.8Z" />
      <path
        d="M1160.1,43.4c-2.1,0-3.8.7-5.3,2.1-1.4,1.4-2.1,3.1-2.1,5.3v66.3c0,5.1-1.3,9.6-3.9,13.6-2.6,3.9-6.2,7-10.8,9.2-4.6,2.2-9.9,3.3-15.8,3.3s-11.6-1.1-16.4-3.3c-4.8-2.2-8.5-5.3-11.2-9.2-2.7-3.9-4-8.4-4-13.6V50.8c0-2.2-.7-3.9-2.1-5.3-1.4-1.4-3.1-2.1-5.3-2.1s-3.8.7-5.3,2.1c-1.4,1.4-2.1,3.1-2.1,5.3v66.3c0,7.7,2,14.5,5.9,20.4,3.9,6,9.4,10.6,16.4,14,7,3.4,15,5,24.1,5s16.6-1.7,23.4-5,12.1-8,16-14,5.7-12.8,5.7-20.4V50.8c0-2.2-.7-3.9-2-5.3-1.3-1.4-3.1-2.1-5.3-2.1Z" />
      <path
        d="M1261.3,100.9c-6.3-5.7-15.1-9.2-26.3-10.3-7.4-.8-13-2.1-17-4-3.9-1.9-6.6-4.1-8.1-6.7-1.5-2.6-2.2-5.3-2.2-8.2,0-5.6,2.4-9.7,7.1-12.4,4.7-2.7,10.6-4,17.6-3.9,4,0,7.4.5,10.4,1.6,2.9,1.1,5.5,2.6,7.7,4.5,2.2,1.9,4,4.2,5.5,7,1,1.8,2.6,3,4.7,3.7,2.1.7,4,.4,5.8-.7,1.6-1,2.5-2.5,2.8-4.3.2-1.8-.3-3.8-1.6-5.9-2.4-3.9-5.2-7.2-8.4-10.1-3.2-2.8-7-5.1-11.3-6.7-4.3-1.6-9.3-2.4-15.1-2.4s-14.1,1.1-20.1,3.4c-6,2.3-10.8,5.6-14.3,9.9-3.5,4.4-5.3,9.7-5.3,15.9s3.4,15.7,10.1,21.4c6.7,5.8,15.9,9.2,27.7,10.4,9,.9,15.4,3.4,19.4,7.4,3.9,4,5.9,8.5,5.9,13.5s-1.2,7.3-3.5,10c-2.4,2.7-5.5,4.8-9.3,6.2s-8,2.1-12.6,2.1-7.9-.6-11.6-1.8c-3.7-1.2-6.8-2.8-9.4-4.8-2.6-2-4.5-4.2-5.6-6.5-.9-1.8-2.1-3.1-3.8-4-1.7-.9-3.3-1.2-5-.8-2.4.5-4,1.6-5,3.3-1,1.7-1,3.5,0,5.5,1.9,4.4,4.9,8.4,8.9,11.8,4.1,3.4,8.8,6.1,14.3,7.9,5.5,1.9,11.3,2.8,17.3,2.8s10.1-.7,14.8-2c4.8-1.3,9-3.3,12.8-6,3.7-2.7,6.7-6,8.9-10,2.2-4,3.3-8.7,3.3-14.1,0-9.4-3.1-16.9-9.4-22.6Z" />
      <path
        d="M1385.2,57.9c-5-5.1-11-9-17.8-11.8-6.9-2.8-14.5-4.2-22.8-4.2s-15.9,1.4-22.9,4.2c-6.9,2.8-12.8,6.7-17.8,11.8-5,5.1-8.8,11-11.6,18-2.7,6.9-4.1,14.5-4.1,22.9s1.4,16,4.1,22.9c2.7,7,6.6,13,11.6,18,5,5.1,10.9,9,17.8,11.8,6.9,2.8,14.5,4.2,22.9,4.2s15.9-1.4,22.8-4.2c6.9-2.8,12.8-6.7,17.8-11.8,5-5.1,8.9-11.1,11.6-18,2.7-7,4.1-14.6,4.1-22.9s-1.4-15.9-4.1-22.9c-2.7-6.9-6.6-12.9-11.6-18ZM1383.7,115.9c-2,5.3-4.9,9.9-8.7,13.8-3.8,3.9-8.3,7-13.4,9.2-5.2,2.2-10.8,3.3-17,3.3s-11.8-1.1-17-3.3c-5.2-2.2-9.6-5.3-13.3-9.2-3.7-3.9-6.6-8.5-8.7-13.8-2.1-5.3-3.1-11-3.1-17.2s1-11.9,3.1-17.2c2.1-5.3,5-9.9,8.7-13.8,3.7-3.9,8.2-7,13.3-9.2,5.2-2.2,10.8-3.3,17-3.3s11.8,1.1,17,3.3c5.2,2.2,9.6,5.2,13.4,9.2,3.8,3.9,6.7,8.5,8.7,13.8,2,5.3,3.1,11,3.1,17.2s-1,11.9-3.1,17.2Z" />
      <path
        d="M1511.5,45.5c-1.3-1.4-3.1-2.1-5.3-2.1s-3.8.7-5.3,2.1c-1.4,1.4-2.1,3.1-2.1,5.3v77.6l-61.9-82.3c-1.5-1.8-3.4-2.7-5.7-2.7s-3.8.7-5.2,2.1c-1.4,1.4-2.1,3.1-2.1,5.3v96.1c0,2.1.7,3.8,2.1,5.3,1.4,1.4,3.1,2.1,5.2,2.1s4-.7,5.3-2.1c1.4-1.4,2.1-3.2,2.1-5.3v-77.5l61.9,82.3c.7.9,1.5,1.5,2.6,1.9,1.1.4,2.1.6,3.1.6,2.2,0,3.9-.7,5.3-2.1,1.3-1.4,2-3.2,2-5.3V50.8c0-2.2-.7-3.9-2-5.3Z" />
    </g>
  </g>
</svg>