<?xml version="1.0" encoding="utf-8"?>
<!-- Generator: Adobe Illustrator 19.2.0, SVG Export Plug-In . SVG Version: 6.00 Build 0)  -->
<svg version="1.1" xmlns="http://www.w3.org/2000/svg" xmlns:xlink="http://www.w3.org/1999/xlink" x="0px" y="0px"
	 viewBox="0 0 809 369" style="enable-background:new 0 0 809 369;" xml:space="preserve">
<style type="text/css">
	.st0{fill:url(#SVGID_1_);}
	.st1{fill:url(#outer-shadow_1_);}
	.st2{fill:url(#ring_2_);}
	.st3{fill:url(#inner-shadow_1_);}
	.st4{fill:url(#face_4_);}
	.st5{fill:url(#face_5_);}
	.st6{opacity:0.34;clip-path:url(#face_6_);fill:#1E1E1E;}
	.st7{opacity:0.15;}
	.st8{fill:url(#SVGID_2_);}
</style>
<g id="ring_1_">
	<linearGradient id="SVGID_1_" gradientUnits="userSpaceOnUse" x1="404.5" y1="369" x2="404.5" y2="-1.816079e-08">
		<stop  offset="5.102041e-03" style="stop-color:#1C1C1C"/>
		<stop  offset="1" style="stop-color:#3F3F40"/>
	</linearGradient>
	<rect class="st0" width="809" height="369"/>
	<g>
		<linearGradient id="outer-shadow_1_" gradientUnits="userSpaceOnUse" x1="127.02" y1="5.02" x2="480.9805" y2="358.9805">
			<stop  offset="0" style="stop-color:#737373"/>
			<stop  offset="1" style="stop-color:#121212"/>
		</linearGradient>
		<path id="outer-shadow" class="st1" d="M304,432.3c-66.9,0-129.7-26-177-73.3c-47.3-47.3-73.3-110.1-73.3-177S79.7,52.3,127,5
			c47.3-47.3,110.1-73.3,177-73.3S433.7-42.3,481,5c47.3,47.3,73.3,110.1,73.3,177s-26,129.7-73.3,177S370.9,432.3,304,432.3z"/>
		<linearGradient id="ring_2_" gradientUnits="userSpaceOnUse" x1="129.1413" y1="7.1413" x2="478.8587" y2="356.8587">
			<stop  offset="0" style="stop-color:#2B2B2B"/>
			<stop  offset="1" style="stop-color:#242424"/>
		</linearGradient>
		<circle id="ring" class="st2" cx="304" cy="182" r="247.3"/>
		<linearGradient id="inner-shadow_1_" gradientUnits="userSpaceOnUse" x1="138.3014" y1="16.3014" x2="469.699" y2="347.699">
			<stop  offset="0" style="stop-color:#1A1A1A"/>
			<stop  offset="1" style="stop-color:#4D4D4D"/>
		</linearGradient>
		<path id="inner-shadow" class="st3" d="M304,416.3c-62.6,0-121.4-24.4-165.7-68.6C94,303.4,69.7,244.6,69.7,182
			c0-62.6,24.4-121.4,68.6-165.7S241.4-52.3,304-52.3c62.6,0,121.4,24.4,165.7,68.6C514,60.6,538.3,119.4,538.3,182
			c0,62.6-24.4,121.4-68.6,165.7C425.4,392,366.6,416.3,304,416.3z"/>
	</g>
	<linearGradient id="face_4_" gradientUnits="userSpaceOnUse" x1="140.8013" y1="18.8013" x2="467.1992" y2="345.1992">
		<stop  offset="0" style="stop-color:#FFFFFF"/>
		<stop  offset="1" style="stop-color:#C7C7C7"/>
	</linearGradient>
	<path id="face_2_" class="st4" d="M304,412.8c-61.6,0-119.6-24-163.2-67.6C97.2,301.6,73.2,243.6,73.2,182s24-119.6,67.6-163.2
		C184.4-24.8,242.4-48.8,304-48.8s119.6,24,163.2,67.6c43.6,43.6,67.6,101.6,67.6,163.2s-24,119.6-67.6,163.2S365.6,412.8,304,412.8
		z"/>
</g>
<g id="face">
	<linearGradient id="face_5_" gradientUnits="userSpaceOnUse" x1="140.8013" y1="18.8013" x2="467.1992" y2="345.1992">
		<stop  offset="0" style="stop-color:#FFFFFF"/>
		<stop  offset="1" style="stop-color:#C7C7C7"/>
	</linearGradient>
	<path id="face_1_" class="st5" d="M304,412.8c-61.6,0-119.6-24-163.2-67.6C97.2,301.6,73.2,243.6,73.2,182s24-119.6,67.6-163.2
		C184.4-24.8,242.4-48.8,304-48.8s119.6,24,163.2,67.6c43.6,43.6,67.6,101.6,67.6,163.2s-24,119.6-67.6,163.2S365.6,412.8,304,412.8
		z"/>
</g>
<g id="shadow">
	<g>
		<defs>
			<path id="face_3_" d="M304,412.8c-61.6,0-119.6-24-163.2-67.6C97.2,301.6,73.2,243.6,73.2,182s24-119.6,67.6-163.2
				C184.4-24.8,242.4-48.8,304-48.8s119.6,24,163.2,67.6c43.6,43.6,67.6,101.6,67.6,163.2s-24,119.6-67.6,163.2
				S365.6,412.8,304,412.8z"/>
		</defs>
		<clipPath id="face_6_">
			<use xlink:href="#face_3_"  style="overflow:visible;"/>
		</clipPath>
		<polygon class="st6" points="597.4,103 304.5,181.9 304.5,-111 597.4,-111 		"/>
	</g>
	<path id="face-shadow" class="st7" d="M80.2,189c0-61.6,24-119.6,67.6-163.2C191.4-17.8,249.4-41.8,311-41.8
		c60,0,116.5,22.7,159.7,64.1c-1.1-1.2-2.3-2.4-3.5-3.5C423.6-24.8,365.6-48.8,304-48.8s-119.6,24-163.2,67.6
		C97.2,62.4,73.2,120.4,73.2,182s24,119.6,67.6,163.2c1.2,1.2,2.4,2.3,3.5,3.5C102.9,305.5,80.2,249,80.2,189z"/>
</g>
<g id="arm">
	<path id="arm_1_" d="M308.4,196.3c-8,2.1-16.3-2.6-18.4-10.6c-2.1-8,2.6-16.3,10.6-18.4c6.4-1.7,198.3-53.1,198.3-53.1l15.3,11.5
		l-7.5,17.6C506.6,143.2,314.8,194.6,308.4,196.3z"/>
	<linearGradient id="SVGID_2_" gradientUnits="userSpaceOnUse" x1="294.0833" y1="181.9341" x2="314.9167" y2="181.9341">
		<stop  offset="0" style="stop-color:#FFFFFF"/>
		<stop  offset="1" style="stop-color:#C7C7C7"/>
	</linearGradient>
	<circle class="st8" cx="304.5" cy="181.9" r="10.4"/>
</g>
<g id="guides">
</g>
</svg>
