<?xml version="1.0" encoding="utf-8"?>
<!-- Generator: Adobe Illustrator 19.2.0, SVG Export Plug-In . SVG Version: 6.00 Build 0)  -->
<svg version="1.1" id="Layer_2" xmlns="http://www.w3.org/2000/svg" xmlns:xlink="http://www.w3.org/1999/xlink" x="0px" y="0px"
	 viewBox="0 0 909 500" style="enable-background:new 0 0 909 500;" xml:space="preserve">
<style type="text/css">
	.st0{fill:url(#SVGID_1_);}
	.st1{fill:none;stroke:#000000;stroke-width:8;stroke-linecap:round;stroke-linejoin:round;stroke-miterlimit:10;}
	.st2{fill:url(#SVGID_2_);stroke:#000000;stroke-width:3;stroke-linecap:round;stroke-linejoin:round;stroke-miterlimit:10;}
	.st3{fill:#939393;stroke:#000000;stroke-width:3;stroke-linecap:round;stroke-linejoin:round;stroke-miterlimit:10;}
	.st4{fill:none;stroke:#000000;stroke-width:3;stroke-linecap:round;stroke-linejoin:round;stroke-miterlimit:10;}
	.st5{fill:#FDFDFF;stroke:#000000;stroke-width:3;stroke-linecap:round;stroke-linejoin:round;stroke-miterlimit:10;}
	.st6{fill:url(#SVGID_3_);stroke:#000000;stroke-width:3;stroke-linecap:round;stroke-linejoin:round;stroke-miterlimit:10;}
</style>
<linearGradient id="SVGID_1_" gradientUnits="userSpaceOnUse" x1="454.5" y1="500" x2="454.5" y2="-2.040542e-08">
	<stop  offset="0" style="stop-color:#C1C0C1"/>
	<stop  offset="1" style="stop-color:#E5E5E5"/>
</linearGradient>
<rect class="st0" width="909" height="500"/>
<g>
	<path class="st1" d="M359,273.1c17.8-21.8,28.5-50,28.5-80.9c0-68.9-53.3-124.7-119-124.7s-119,55.8-119,124.7
		c0,30.9,10.7,59.1,28.5,80.9c21.8,26.8,49.9,41.9,49.9,82.5c0,0,0.2,0.3,0.7,0.8c-0.1,0-0.1-0.1-0.2-0.1c-1.6-1-3.7,0.2-3.7,2.1
		l2.1,36.6l-0.1,0c0,0,0,0,0.1,0l0.9,15.5c0,0.8,0.4,1.5,1,2c1.8,1.3,5.2,4,11.3,6.4c1.1,1.6,11.6,16.9,22.3,23.5
		c1.3,0.8,6,0.9,6,0.9s4.3,0,6-0.9c11.3-7,22.9-23.7,22.9-23.7h-0.3c6.1-2.3,9.6-4.9,11.4-6.2c0.7-0.5,1.1-1.2,1.1-2l0.9-15.5
		c0,0,0,0,0,0l0,0l1.3-22.3l0,0h0l0.8-14.4c0-1.9-2-3.1-3.7-2.1c-0.1,0-0.1,0.1-0.2,0.1c0.4-0.4,0.6-0.7,0.6-0.7
		C309.1,314.9,337.2,299.8,359,273.1z"/>
	<g>
		<path d="M297.2,418.7c0,0-11.6,16.7-22.9,23.7c-1.7,0.9-6,0.9-6,0.9s-4.7-0.1-6-0.9c-11.3-7-22.4-23.7-22.4-23.7H297.2z"/>
		<linearGradient id="SVGID_2_" gradientUnits="userSpaceOnUse" x1="268.5" y1="371.9761" x2="268.5" y2="67.4722">
			<stop  offset="0" style="stop-color:#D6D5D6"/>
			<stop  offset="1" style="stop-color:#FFFFFF"/>
		</linearGradient>
		<path class="st2" d="M309.1,355.5c0-40.6,28.1-55.7,49.9-82.5c17.8-21.8,28.5-50,28.5-80.9c0-68.9-53.3-124.7-119-124.7
			s-119,55.8-119,124.7c0,30.9,10.7,59.1,28.5,80.9c21.8,26.8,49.9,41.9,49.9,82.5c0,0,12.2,16.4,39.5,16.4
			C294.6,372,309.1,355.5,309.1,355.5z"/>
		<g>
			<path class="st3" d="M309.3,410.4c0,0.8-0.4,1.6-1.1,2c-3.8,2.6-14.7,10.9-40.3,10.9c-25.5,0-35.8-8.3-39.3-10.9
				c-0.6-0.5-1-1.2-1-2l-3-52.1c0-1.9,2.1-3.1,3.7-2.1c5.8,3.4,18.5,9.1,39.6,9.1c21.4,0,34.7-5.8,40.7-9.2c1.6-0.9,3.7,0.2,3.7,2.1
				L309.3,410.4z"/>
			<path class="st4" d="M297.2,379.4c7.8-2.5,12.6-5.5,14.3-6.8"/>
			<path class="st4" d="M258.3,383.2c3,0.3,6.3,0.4,9.7,0.4c2.3,0,4.4-0.1,6.5-0.2"/>
			<path class="st4" d="M225.5,372.6c1.5,1.1,5.2,3.6,11.3,5.9"/>
			<path class="st4" d="M297.2,400.8c6.4-2.1,10.7-4.4,13.1-5.9"/>
			<path class="st4" d="M256.5,404.5c3.5,0.4,7.3,0.6,11.5,0.6c4.2,0,8.2-0.2,11.8-0.6"/>
			<path class="st4" d="M226.7,394.9c2.3,1.5,6.6,4,13.1,6.1"/>
		</g>
		<g>
			<path class="st5" d="M355.5,196.8c1.3-2.2,2-4.8,2-7.6c0-8.5-6.9-15.3-15.3-15.3c-1.9,0-3.8,0.4-5.5,1c0.2-1.2,0.3-2.5,0.3-3.8
				c0-13.2-9.8-23.9-21.9-23.9c-2.2,0-4.4,0.4-6.4,1c0.3-2.2,0.5-4.5,0.5-6.9c0-22.1-15.8-40.1-35.4-40.1
				c-15.4,0-28.5,11.1-33.3,26.6c-1.7-0.3-3.5-0.5-5.3-0.5c-17.1,0-31,15.8-31,35.2c0,1.9,0.1,3.7,0.4,5.5c-1.9-0.6-3.9-0.9-6-0.9
				c-11.2,0-20.2,9.1-20.2,20.2c0,3.3,0.8,6.4,2.2,9.1H355.5z"/>
			<line class="st4" x1="213.6" y1="211.2" x2="206.6" y2="219.4"/>
			<line class="st4" x1="229.5" y1="211.2" x2="222.5" y2="219.4"/>
			<line class="st4" x1="245.4" y1="211.2" x2="238.4" y2="219.4"/>
			<line class="st4" x1="261.3" y1="211.2" x2="254.3" y2="219.4"/>
			<line class="st4" x1="277.2" y1="211.2" x2="270.2" y2="219.4"/>
			<line class="st4" x1="293.1" y1="211.2" x2="286.1" y2="219.4"/>
			<line class="st4" x1="309" y1="211.2" x2="302" y2="219.4"/>
			<line class="st4" x1="216.5" y1="225.5" x2="209.5" y2="233.6"/>
			<line class="st4" x1="232.4" y1="225.5" x2="225.4" y2="233.6"/>
			<line class="st4" x1="248.3" y1="225.5" x2="241.3" y2="233.6"/>
			<line class="st4" x1="264.2" y1="225.5" x2="257.2" y2="233.6"/>
			<line class="st4" x1="280.1" y1="225.5" x2="273.1" y2="233.6"/>
			<line class="st4" x1="296" y1="225.5" x2="289" y2="233.6"/>
			<line class="st4" x1="311.9" y1="225.5" x2="304.9" y2="233.6"/>
			<line class="st4" x1="220.5" y1="239.7" x2="213.5" y2="247.9"/>
			<line class="st4" x1="252.3" y1="239.7" x2="245.3" y2="247.9"/>
			<line class="st4" x1="284.1" y1="239.7" x2="277.1" y2="247.9"/>
		</g>
	</g>
</g>
<g>
	<path class="st1" d="M718,273.1c17.8-21.8,28.5-50,28.5-80.9c0-68.9-53.3-124.7-119-124.7s-119,55.8-119,124.7
		c0,30.9,10.7,59.1,28.5,80.9c21.8,26.8,49.9,41.9,49.9,82.5c0,0,0.2,0.3,0.7,0.8c-0.1,0-0.1-0.1-0.2-0.1c-1.6-1-3.7,0.2-3.7,2.1
		l2.1,36.6l-0.1,0c0,0,0,0,0.1,0l0.9,15.5c0,0.8,0.4,1.5,1,2c1.8,1.3,5.2,4,11.3,6.4c1.1,1.6,11.6,16.9,22.3,23.5
		c1.3,0.8,6,0.9,6,0.9s4.3,0,6-0.9c11.3-7,22.9-23.7,22.9-23.7h-0.3c6.1-2.3,9.6-4.9,11.4-6.2c0.7-0.5,1.1-1.2,1.1-2l0.9-15.5
		c0,0,0,0,0,0l0,0l1.3-22.3l0,0h0l0.8-14.4c0-1.9-2-3.1-3.7-2.1c-0.1,0-0.1,0.1-0.2,0.1c0.4-0.4,0.6-0.7,0.6-0.7
		C668.1,314.9,696.2,299.8,718,273.1z"/>
	<g>
		<path d="M656.2,418.7c0,0-11.6,16.7-22.9,23.7c-1.7,0.9-6,0.9-6,0.9s-4.7-0.1-6-0.9c-11.3-7-22.4-23.7-22.4-23.7H656.2z"/>
		<linearGradient id="SVGID_3_" gradientUnits="userSpaceOnUse" x1="627.5" y1="371.9761" x2="627.5" y2="67.4722">
			<stop  offset="0" style="stop-color:#D6D5D6"/>
			<stop  offset="1" style="stop-color:#FFFFFF"/>
		</linearGradient>
		<path class="st6" d="M668.1,355.5c0-40.6,28.1-55.7,49.9-82.5c17.8-21.8,28.5-50,28.5-80.9c0-68.9-53.3-124.7-119-124.7
			s-119,55.8-119,124.7c0,30.9,10.7,59.1,28.5,80.9c21.8,26.8,49.9,41.9,49.9,82.5c0,0,12.2,16.4,39.5,16.4S668.1,355.5,668.1,355.5
			z"/>
		<g>
			<path class="st3" d="M668.3,410.4c0,0.8-0.4,1.6-1.1,2c-3.8,2.6-14.7,10.9-40.3,10.9c-25.5,0-35.8-8.3-39.3-10.9
				c-0.6-0.5-1-1.2-1-2l-3-52.1c0-1.9,2.1-3.1,3.7-2.1c5.8,3.4,18.5,9.1,39.6,9.1c21.4,0,34.7-5.8,40.7-9.2c1.6-0.9,3.7,0.2,3.7,2.1
				L668.3,410.4z"/>
			<path class="st4" d="M656.2,379.4c7.8-2.5,12.6-5.5,14.3-6.8"/>
			<path class="st4" d="M617.3,383.2c3,0.3,6.3,0.4,9.7,0.4c2.3,0,4.4-0.1,6.5-0.2"/>
			<path class="st4" d="M584.5,372.6c1.5,1.1,5.2,3.6,11.3,5.9"/>
			<path class="st4" d="M656.2,400.8c6.4-2.1,10.7-4.4,13.1-5.9"/>
			<path class="st4" d="M615.5,404.5c3.5,0.4,7.3,0.6,11.5,0.6c4.2,0,8.2-0.2,11.8-0.6"/>
			<path class="st4" d="M585.7,394.9c2.3,1.5,6.6,4,13.1,6.1"/>
		</g>
		<g>
			
				<ellipse transform="matrix(0.9286 -0.3711 0.3711 0.9286 -27.4466 246.4849)" class="st5" cx="626.8" cy="194.6" rx="42.4" ry="42.4"/>
			<line class="st4" x1="602.2" y1="134.1" x2="607.1" y2="146.5"/>
			<line class="st4" x1="652.1" y1="134.5" x2="646.9" y2="146.7"/>
			<line class="st4" x1="687.2" y1="170" x2="674.8" y2="174.9"/>
			<line class="st4" x1="686.9" y1="219.9" x2="674.7" y2="214.6"/>
			<line class="st4" x1="651.4" y1="255" x2="646.4" y2="242.6"/>
			<line class="st4" x1="601.5" y1="254.7" x2="606.7" y2="242.4"/>
			<line class="st4" x1="566.4" y1="219.2" x2="578.8" y2="214.2"/>
			<line class="st4" x1="566.7" y1="169.2" x2="578.9" y2="174.5"/>
			<line class="st4" x1="626.4" y1="136" x2="626.4" y2="143.3"/>
			<line class="st4" x1="667.9" y1="152.9" x2="662.7" y2="158"/>
			<line class="st4" x1="685.4" y1="194.1" x2="678" y2="194.1"/>
			<line class="st4" x1="668.5" y1="235.7" x2="663.3" y2="230.5"/>
			<line class="st4" x1="627.2" y1="253.1" x2="627.2" y2="245.8"/>
			<line class="st4" x1="585.7" y1="236.3" x2="590.9" y2="231.1"/>
			<line class="st4" x1="568.2" y1="195" x2="575.6" y2="195"/>
			<line class="st4" x1="585.1" y1="153.4" x2="590.3" y2="158.6"/>
		</g>
	</g>
</g>
</svg>
