<?xml version="1.0" encoding="UTF-8"?>
<svg id="Layer_1" data-name="Layer 1" xmlns="http://www.w3.org/2000/svg" version="1.1" viewBox="0 0 122.3 122.3">
  <polygon fill="currentcolor" points="56.8 63 0 119.7 0 63 56.8 63" />
  <polygon fill="currentcolor" points="0 59.3 0 2.6 56.8 59.3 0 59.3" />
  <polygon fill="currentcolor" points="119.7 0 63 56.8 63 0 119.7 0" />
  <polygon fill="currentcolor" points="59.3 56.8 2.6 0 59.3 0 59.3 56.8" />
  <polygon fill="currentcolor" points="65.5 59.3 122.3 2.6 122.3 59.3 65.5 59.3" />
  <polygon fill="currentcolor" points="122.3 63 122.3 119.7 65.5 63 122.3 63" />
  <polygon fill="currentcolor" points="59.3 65.5 2.6 122.3 59.3 122.3 59.3 65.5" />
  <polygon fill="currentcolor" points="63 65.5 63 122.3 119.7 122.3 63 65.5" />
</svg>