<?xml version="1.0" encoding="UTF-8"?>
<svg xmlns="http://www.w3.org/2000/svg" version="1.1" viewBox="0 0 158.2 117.2">
  <g style="fill: currentcolor;">
    <path
      d="M104.8,61.6c2.6,2.1,5.7,3.6,8.6,5.4,5.5-2.6,11.2-6.3,17.4-9.7,7.5-4.2,17.3-7.5,21.3-14.7,5-9.1-1.2-19.9-9.9-20.7-8.3-.8-14.3,3.7-17.5,8.2-1.4,2-2.8,5.3-3,7.8-.3,3.7,1.2,8,.2,11.2-1.1,3.6-4.9,5.1-8,7-3.2,1.9-6.1,3.7-9.1,5.5ZM147.8,36.6c-.5,3.1-3.8,5.7-6.9,7.4-2.5,1.4-7.8,4.4-10.7,2.5-2.3-1.5-2.6-6.2-1.6-9.2,1.6-5,7.2-10,13.7-8.8,3.4.6,6.3,2.9,5.5,8.1Z" />
    <path
      d="M88,72.4c-20.3,12.1-32.9,19.9-53,32.2,4.2,2.1,18.5,3,23.6.7,3.9-1.7,7.8-5.2,11.7-7.9,11.2-7.8,16-11.7,27.1-19.1-2.8-2.3-6.3-4-9.4-5.9Z" />
    <path
      d="M68.5,39.8c2.6,2.1,5.7,3.6,8.6,5.4,5.5-2.6,11.2-6.3,17.4-9.7,7.5-4.2,17.3-7.5,21.3-14.7,5-9.1-1.2-19.9-9.9-20.7-8.3-.8-14.3,3.7-17.5,8.2-1.4,2-2.8,5.3-3,7.8-.3,3.7,1.2,8,.2,11.2-1.1,3.6-4.9,5.1-8,7-3.2,2-6,3.8-9.1,5.5ZM111.6,14.8c-.5,3.1-3.8,5.7-6.9,7.4-2.5,1.4-7.8,4.4-10.7,2.5-2.3-1.5-2.6-6.2-1.6-9.2,1.6-5,7.2-10,13.7-8.8,3.3.7,6.2,2.9,5.5,8.1Z" />
    <path
      d="M51.7,50.6C31.4,62.7,18.8,70.5-1.3,82.8c4.2,2.1,18.5,3,23.6.7,3.9-1.7,7.8-5.2,11.7-7.9,11.2-7.8,16-11.7,27.1-19.1-2.8-2.3-6.3-3.9-9.4-5.9Z" />
    <path
      d="M148.1,91.4c-4.9-3.1-9.6-5.3-14-7.7-18.5-10.5-35.7-21.9-53.9-32.9-4.4-2.7-34.9-21-39.4-23.7-8.3-5.1-15.8-10.8-27.9-11.6-5-.3-8.9.7-12.4,1.9,18.9,11.6,65.4,38.3,85.1,49.8,6.5,3.8,13,8.3,19.6,11.5,3.1,1.5,6.3,2.1,7.5,5.2,1.3,3.5-.3,9.7,1.1,13.9,2.8,9.1,15.7,18.6,26.2,19.3,8,.6,11.6-2.2,15-6.9,1.5-2,3.2-4.4,3.2-7.1,0-4.7-6.1-9.2-10.1-11.7ZM64.7,50.7c-1.5,0-2.7-1.2-2.7-2.7s1.1-2.8,2.6-2.8,2.7,1.2,2.7,2.7-1.1,2.8-2.6,2.8ZM101.7,73c-1.5,0-2.7-1.2-2.7-2.7s1.1-2.8,2.6-2.8,2.7,1.2,2.7,2.7-1.2,2.8-2.6,2.8ZM144.3,110.3c-10.1.8-19.8-6.8-23.4-12.7-.8-1.2-2.9-5.6-2-8.3.8-2.3,5.1-3.2,6.8-2.9.3,0,.3.1.4.2,3.2,1.7,7.5,3.9,11.7,6.3,4.3,2.4,11.9,5.2,13,10.7,1,4.8-2.6,6.4-6.5,6.7Z" />
  </g>
</svg>