<?xml version="1.0" encoding="UTF-8"?>
<svg id="Layer_1" data-name="Layer 1" xmlns="http://www.w3.org/2000/svg" version="1.1" viewBox="0 0 224.3 224.6">
  <path fill="currentcolor"
    d="M127.6,78.4c2.9,1.9,8.2-1.1,10.7-2.5,3.1-1.7,6.4-4.3,6.9-7.4.7-5.2-2.2-7.4-5.5-8.1-6.5-1.2-12.1,3.8-13.7,8.8-1,3-.7,7.7,1.6,9.2Z" />
  <path fill="currentcolor"
    d="M163.8,100.2c2.9,1.9,8.2-1.1,10.7-2.5,3.1-1.7,6.4-4.3,6.9-7.4.8-5.2-2.1-7.5-5.5-8.1-6.5-1.2-12.1,3.8-13.7,8.8-1,3-.7,7.7,1.6,9.2Z" />
  <path fill="currentcolor" d="M98.2,98.9c-1.5,0-2.6,1.3-2.6,2.8s1.2,2.7,2.7,2.7,2.6-1.3,2.6-2.8-1.2-2.7-2.7-2.7Z" />
  <path fill="currentcolor"
    d="M171.4,146.6c-4.2-2.4-8.5-4.6-11.7-6.3,0,0,0-.2-.4-.2-1.7-.3-6,.6-6.8,2.9-.9,2.7,1.2,7.1,2,8.3,3.6,5.9,13.3,13.5,23.4,12.7,3.9-.3,7.5-1.9,6.5-6.7-1.1-5.5-8.7-8.3-13-10.7Z" />
  <path fill="currentcolor" d="M135.2,121.2c-1.5,0-2.6,1.3-2.6,2.8s1.2,2.7,2.7,2.7,2.6-1.3,2.6-2.8-1.2-2.7-2.7-2.7Z" />
  <path fill="currentcolor"
    d="M112,0C50,0-.3,50.3-.3,112.3s50.3,112.3,112.3,112.3,112.3-50.3,112.3-112.3S174,0,112,0ZM155.3,91.6c.2-2.5,1.6-5.8,3-7.8,3.2-4.5,9.2-9,17.5-8.2,8.7.8,14.9,11.6,9.9,20.7-4,7.2-13.8,10.5-21.3,14.7-6.2,3.4-11.9,7.1-17.4,9.7-2.9-1.8-6-3.3-8.6-5.4,3-1.8,5.9-3.6,9.1-5.5,3.1-1.9,6.9-3.4,8-7,1-3.2-.5-7.5-.2-11.2ZM111.2,88c3.1-1.9,6.9-3.4,8-7,1-3.2-.5-7.5-.2-11.2.2-2.5,1.6-5.8,3-7.8,3.2-4.5,9.2-9,17.5-8.2,8.7.8,14.9,11.6,9.9,20.7-4,7.2-13.8,10.5-21.3,14.7-6.2,3.4-11.9,7.1-17.4,9.7-2.9-1.8-6-3.3-8.6-5.4,3.1-1.7,5.9-3.5,9.1-5.5ZM55.9,137.2c-5.1,2.3-19.4,1.4-23.6-.7,20.1-12.3,32.7-20.1,53-32.2,3.1,2,6.6,3.6,9.4,5.9-11.1,7.4-15.9,11.3-27.1,19.1-3.9,2.7-7.8,6.2-11.7,7.9ZM103.9,151.1c-3.9,2.7-7.8,6.2-11.7,7.9-5.1,2.3-19.4,1.4-23.6-.7,20.1-12.3,32.7-20.1,53-32.2,3.1,1.9,6.6,3.6,9.4,5.9-11.1,7.4-15.9,11.3-27.1,19.1ZM188.6,163.9c-3.4,4.7-7,7.5-15,6.9-10.5-.7-23.4-10.2-26.2-19.3-1.4-4.2.2-10.4-1.1-13.9-1.2-3.1-4.4-3.7-7.5-5.2-6.6-3.2-13.1-7.7-19.6-11.5-19.7-11.5-66.2-38.2-85.1-49.8,3.5-1.2,7.4-2.2,12.4-1.9,12.1.8,19.6,6.5,27.9,11.6,4.5,2.7,35,21,39.4,23.7,18.2,11,35.4,22.4,53.9,32.9,4.4,2.4,9.1,4.6,14,7.7h0c4,2.5,10.1,7,10.1,11.7s-1.7,5.1-3.2,7.1Z" />
</svg>