<svg xmlns="http://www.w3.org/2000/svg" xmlns:xlink="http://www.w3.org/1999/xlink" x="0px" y="0px" viewBox="0 0 394 394"
	xml:space="preserve" fill="currentcolor">
	<path d="M262,157.3h68.5V170h-27.2v66.6h-13.6V170H262V157.3z M149,157.3V170H94v20.4h44.3V203H94v21h55v12.6H80.5v-79.3h68.7H149z
	 M183.3,157.3h-17.8l63.8,79.4h17.9l-32-39.7l32-39.6h-17.9l-23,28.6L183.3,157.3L183.3,157.3z M201.6,214l-9-11l-27.1,33.7h17.8
	L201.6,214z" />
	<path d="M81,236.6l-64-79.3H0v79.3h13.6v-62.3l50.2,62.3H81z M333.6,236.2c-1,0-1.8-0.4-2.5-1s-1.1-1.6-1.1-2.6s0.3-1.8,1-2.5
	c0.7-0.7,1.6-1,2.6-1s1.8,0.3,2.5,1c1.2,1.1,1.5,2.9,0.6,4.3c-0.6,1.1-1.8,1.7-3,1.8H333.6z M356.8,202.8h6V226c0,2.1-0.4,4-1.3,5.5
	c-0.9,1.5-2.2,2.7-3.8,3.5c-1.6,0.8-3.5,1.3-5.7,1.3c-2,0-3.7-0.4-5.3-1c-1.6-0.6-2.8-1.8-3.7-3.2c-0.9-1.3-1.4-3-1.4-5h6
	c0.1,0.8,0.3,1.6,0.7,2.2c0.4,0.6,1,1.2,1.6,1.5c0.7,0.4,1.5,0.5,2.4,0.5c1,0,1.8-0.2,2.4-0.6c0.7-0.4,1.3-1,1.6-1.8
	c0.3-0.8,0.5-1.8,0.5-3v-23.1L356.8,202.8z M387.7,211.9c-0.1-1.3-0.9-2.6-2-3.3c-1.3-0.8-2.8-1.2-4.3-1.1c-1.3,0-2.4,0.2-3.3,0.5
	c-0.9,0.4-1.6,1-2,1.6c-0.9,1.1-1,2.7-0.3,4c0.3,0.5,0.7,0.9,1.3,1.2l1.8,1l2,0.5l3.2,0.8c1.3,0.3,2.5,0.7,3.7,1.2
	c1.1,0.4,2.2,1.1,3.2,1.8c2,1.6,3.1,4,3,6.5c0,2-0.5,3.7-1.5,5.1c-1.1,1.6-2.6,2.8-4.4,3.5c-1.8,0.8-4.1,1.2-6.8,1.2
	c-2.6,0-4.9-0.4-6.8-1.2c-2-0.8-3.4-2-4.5-3.5c-1.1-1.7-1.7-3.6-1.7-5.6h6c0.1,2.1,1.5,4,3.5,4.6c1,0.4,2.2,0.6,3.4,0.6
	c1.3,0,2.5-0.2,3.5-0.6s1.8-1,2.4-1.7c0.5-0.7,0.8-1.5,0.8-2.4c0-0.9-0.2-1.6-0.7-2.2c-0.6-0.5-1.3-1-2.1-1.4l-3.2-1l-3.8-1
	c-2.8-0.7-5-1.7-6.6-3.2c-1.6-1.4-2.5-3.5-2.4-5.7c0-1.8,0.6-3.6,1.7-5c1.1-1.5,2.6-2.8,4.3-3.5c2-0.8,4-1.2,6.4-1.2
	c2.3,0,4.4,0.4,6.2,1.2c1.8,0.8,3.2,2,4.3,3.4c1,1.4,1.5,3,1.5,5L387.7,211.9L387.7,211.9z" />
</svg>