<?xml version="1.0" encoding="UTF-8"?>
<svg id="Layer_1" data-name="Layer 1" xmlns="http://www.w3.org/2000/svg" version="1.1" viewBox="0 0 247.8 248.3">
  <path fill="currentcolor"
    d="M124.5,33.9c1.3,0,0-4.7-2-14-2.7,9.3-3.3,14-2.7,14h4.7ZM121.9,53.9l-8,.7-12,8c-17.3,9.3-29.9,18.6-37.9,29.3l-5.3,6c14-10,34.6-15.3,63.2-15.3s23.3,3.3,37.2,8.7c12,4.7,20,9.3,24.6,13.3l-4.7-6c-11.3-14-24.6-25.3-40.6-35.9l-10.6-8-6-.7h0Z" />
  <path fill="currentcolor"
    d="M120.6,87.1c-28.6.7-49.9,6-63.9,16-6.7,5.3-10,10-10,14l.7,2.7c3.3-8.7,12.6-15.3,27.3-20.6,14.6-5.3,29.9-7.3,45.9-6.6,14,0,27.9,3.3,40.6,8.7,14,5.3,23.3,12.6,29.9,20.6-.7-4-1.3-7.3-2.7-8.7-8.6-8-19.3-14.6-32.6-19.3-12-4-23.3-6.7-35.3-6.7h0Z" />
  <path fill="currentcolor"
    d="M52.7,142.3l6.7.7v8l-6,6v13.3l3.3-2.7c3.4-2.2,7.3-3.5,11.3-4l10,1.3,10-6.6,13.3-3.3c10.6-.7,18,2,23.3,6.7,4.7-5.3,12-7.3,21.3-6.7,7.3.7,14,3.3,19.3,8.7l-2.7-19.3-3.3-3.3v-9.3l9.3-4,7.3,2c-10-10-27.9-16-53.9-16.6-19.3-.7-34.6,2-47.2,8-12,5.3-19.3,12-21.9,21.3h0ZM121.9,134.3c3.3,0,4.7,1.3,4.7,4s-1.3,4.7-4.7,4.7-4-1.3-4-4.7,1.3-4,4-4ZM80.6,147.7c-2.7,0-3.3-1.3-3.3-3.3s.7-4,3.3-4,3.3,1.3,3.3,4-1.3,3.3-3.3,3.3Z" />
  <g>
    <path fill="currentcolor"
      d="M180.4,127.7l10.6,2.7-2.7-5.3c-13.3-16.6-35.3-25.3-66.5-27.9h0s-33.9,3.3-33.9,3.3c-9.3,2-17.3,4.7-22.6,7.3-4,2-8,4.7-11.3,8.6-4.7,5.3-6.7,9.3-6,14,0,4,.7,5.3,2,3.3,6.7-8.7,14-14.6,22.6-18.6,16-6,31.9-9.3,49.2-8,27.3,1.3,47.2,8,58.5,20.6Z" />
    <polygon fill="currentcolor"
      points="127.9 49.9 125.2 43.9 124.5 38.6 119.9 38.6 119.9 38.6 118.6 40.6 117.9 43.9 115.2 49.9 121.9 49.2 127.9 49.9" />
    <polygon fill="currentcolor" points="118.6 210.2 130.5 210.2 130.5 196.2 117.9 196.2 118.6 210.2" />
    <path fill="currentcolor"
      d="M212,36.3C187.4,11.8,158.6-.2,123.9-.2S60.3,11.8,35.8,36.3C12,60.1,0,89.5,0,123.7h0c0,34.5,11.7,63.3,35.8,88,0,0,0,0,0,0,25.2,24.5,54,36.4,88,36.4s62.8-11.9,88-36.4c0,0,0,0,0,0,24.1-24.8,35.8-53.5,35.8-88s-12-63.7-35.8-87.4ZM90.1,235.2l.5-17.7-7.3-3.3-12,2,.4,11.7c-1.7-.9-3.4-1.8-5.1-2.8v-9.6l-14.6-4-1.9,2c-.6-.5-1.2-1-1.8-1.5l3.8-3.8,2.7-12,1.3-3.3,2.7-2.7,3.3-.7h2.7l3.3,2,2,2.7,1.3,4,12.3-2.6,8.3,3.9.6,36.3c-.8-.2-1.6-.4-2.4-.7ZM112.6,239.4c-5.7-.5-11.2-1.4-16.6-2.7v-14.6h16.6v17.3ZM112.6,217.5h-16.6v-21.9c0-4,3.3-6,8.7-5.3,4.7,0,7.3,2,7.3,6l.7,5.3v16ZM169.1,143v4.7h0l7.3-2,57.9,13.8c-.7,2.4-1.5,4.7-2.4,7l-54.1-14.8-8,2.7h0v6l8.6-2,51.3,13.5c-.6,1.3-1.2,2.7-1.9,4l-46.7-12.8h0v37.2h1.3c7.3-18.6,18.6-26.6,33.9-22.6,3.5,1,6.6,2,8.8,3.3-.5.9-1,1.7-1.5,2.6-2.5-2.1-5.8-3.4-9.9-3.9-13.3-3.3-22.6,4-28.6,21.9h0s14.6,4,14.6,4l.7-5.3c2.7-4.7,6-6.6,10-6,1.8.4,3.5.7,4.8,1.3-.4.5-.8,1-1.3,1.6-1.5-.6-3.2-.9-4.9-.9l-6,4.7,6-.7,1.5.9c-1.4,1.6-2.9,3.2-4.5,4.8-1.9,1.8-3.8,3.6-5.7,5.2v-3l-30.6-4.7-4-2-10.6,3.3.7,13.3,9.3-2,5.3,1.3,18.7,2.5c-.8.5-1.6,1.1-2.4,1.6l-10.3-2.1-5.3.7-6-1.3v13.8c-.7.3-1.3.5-2,.8v-14.6l-8,2v15.1c-.7.2-1.3.3-2,.5v-34.3l4-.7v-.3c-.1,0,6-1.7,6-1.7v-4.7l-2-4-4-5.3-4.7-2.7-6-.7c-2.7,0-5.3,1.3-8,4l10.6,1.3,5.3,6.7.4,2.1-3.7,1.9v23.9l-20-6v-3.3h-12.6v23.3l12.6.7v-15.6l19.3,5.6v10.3c-8.5,1.9-17.3,2.9-26.6,2.9s-4.9,0-7.3-.2v-37.5h0c.6-4.1-.1-8.3-2-12h0c-1-3-2.4-5.3-4.7-6.7-2.7-2.6-6-3.3-9.3-3.3l-7.3,1.3c-1.8,1.1-3.7,2.4-5.2,3.8l.5-1.2c4-4,8.7-6.7,14-6,4.7,0,8.7,2,11.3,6l2,4,1.3,6h13.3l2-4.7,2-3.3,2.7-2.7,3.3-2,3.3-1.3h6l4.7,1.3,4,2.7,2.7,2.7,2,3.3,1.3,2,1.3,3.3v4l4,2,8.6-2v-36.6l-8,3.3v8.7c-6-8.7-14-13.3-23.9-14-7.3-.7-14,2-21.3,8.6-6-6-14-8.6-24.6-8.6-9.3.7-17.3,4.7-25.3,12.6-3.3-2.7-7.3-3.3-12-2.7-6,1.3-10.6,6-14.6,13.3v-8.6h0s-8.7-.7-8.7-.7v29.3c-.9-1-1.8-1.9-2.7-2.9v-25.1l-11.8,9.5c-1-1.5-1.9-3-2.7-4.5l15.2-11,10,1.3v-5.3l-10.6-2-17,12.2c-.8-1.6-1.6-3.2-2.3-4.8l18-12.8,10.6,2h0v-5.3l4-4.7v-4.7l-16.6-.7-20.4,14.7c-3.6-11.4-5.4-23.6-5.4-36.6h0c0-32,11.2-59.4,33.4-81.5C64.6,19.3,91.5,8.1,123.9,8.1s59.3,11.1,82.2,34c22.1,22.1,33.4,49.6,33.4,81.5s-.8,16.7-2.3,24.5l-62.7-15.2-7.3,2.7v5.3l2,2Z" />
    <polygon fill="currentcolor" points="71.3 200.2 71.3 213.5 84 210.8 90 214.2 90.6 201.5 83.3 198.2 71.3 200.2" />
    <path fill="currentcolor"
      d="M64.7,204.9c-.7,1.3-.7,3.3-.7,4.7l3.3,1.3.7-7.3.7-2.7v-3.3l-2.7,2c-.7,2-1.3,3.3-1.3,5.3Z" />
  </g>
</svg>