<?xml version="1.0" encoding="UTF-8"?>
<svg id="Layer_1" data-name="Layer 1" xmlns="http://www.w3.org/2000/svg" version="1.1" viewBox="0 0 97.3 97.3"
  fill="currentcolor">
  <path
    d="M48.7,0C21.8,0,0,21.8,0,48.7s21.8,48.7,48.7,48.7,48.7-21.8,48.7-48.7S75.5,0,48.7,0ZM42.8,20h.6v.8c0,0-.7.3-.7.3l.2-1.1ZM41.2,21.7l1.3-.3v.6c0,0-.4.2-.4.2h-1v-.5ZM42,22.7l-.2.5h-.5c0,0,.1-.3.1-.3l.6-.2ZM41.1,23.3l.3.4-.5.2v.3l-.9.3v-.3c-.1,0,.7-.9.7-.9h.3ZM75.2,41.3h-.6c0,0,.3.7.3.7l-.4,1.3h-.3c0,0-.7,2.7-.7,2.7l-.4.3-1.6,4.1-.2,2.4.3,1.2v.7c0,0-1.3,1.1-1.3,1.1l.2,1.1-.5,1.8.2.9.2,2.1-.6,2.4-.9,2.9.6.9-.2.2.5,1-.3.6.6.5v1.6l.7.9-.2,1.7.2,2.3-26.4,1.6-.7-1.6-1.9-.4-1.6-.9-1.2-3.2v-1.4c0,0,1-1.9,1-1.9l-.3-.6-1.2-.9v-1.5c-.1,0-.7-2.6-.7-2.6v-1.7c-.1,0-1.4-1.7-1.4-1.7l-1.6-.4-3-2.1-.3-1.9-3.6-1.8v-.7h-2l-1.3-1.5-1.2-.7.4-2.9-.5-.9.3-3.1.6-1-.2-1.6-.7-.7-1-.2v-1l1.6-3.3,3.4-2.2-.2-7.5.5.2.3-.3v-.6c0,0,.6-.3.6-.3l.8.7h.4c0,0,1.5,0,1.5,0l3.9-1.5.2-.6h.7l.4-.7.2.5,1-.5,1-1,.2.3.6-.6,1.3.9-.5.9-.7.8.3.9-.8.9.2.5,1.3-.6v-.8l1.9,1.1,1.1.4,1.1.4,1.7,2.2,9.8,2.2.8.6,2.3.5.4.3h1.6c0-.1,2.8.3,2.8.3l.8.9-.6.6.5.5,2.2.4.7.7v2.5c0,0-.7,1.6-.7,1.6h1.2c0,0,.6-.4.6-.4l.5.5-.6,1.8.6.9.7.2-.2,1.7-1.7.5v1.3c.1,0-1.3,2-1.3,2v1.8c-.1,0,.2.4.2.4l.5-.4.3-.9,1.2-.6.9-2.4,2-.6.5-1.9.4-.5.2-1.2,1-.6v-.9l.6-.5h.8v1.2ZM75.8,40.3l-.7-1,.2-.7,1.2-.2-.6,1.9Z" />
</svg>