<svg id="Layer_1" data-name="Layer 1" xmlns="http://www.w3.org/2000/svg" viewBox="0 0 500 500"><defs><style>.cls-1{fill:#fff;}</style></defs><title>swirl</title><path d="M249.92,252.11l-2.87,1.51,3.12-.82,0.56-.61Z"/><path d="M251,251.9l-0.35-.17-0.73.38,0.82,0.08Z"/><path d="M250.18,252.8c-0.56.61-1.29,1.41-2.18,2.4,1.08-.76,2-1.37,2.65-1.84l0.32-.76Z"/><path d="M251.13,252.23l-0.39,0-0.56.61,0.8-.2Z"/><path d="M251,251.9l-0.27.29,0.39,0,0.1-.22Z"/><path d="M251.29,251.85l-0.12-.12-0.17.18,0.22,0.11Z"/><path d="M250.65,253.36c-0.32.77-.73,1.77-1.23,3,0.75-1.08,1.38-2,1.86-2.64,0-.31,0-0.58,0-0.82Z"/><path d="M251.35,252.5l-0.38.09-0.32.76,0.68-.46Z"/><path d="M251.13,252.23l-0.15.36,0.38-.09v-0.24Z"/><path d="M251.38,252.09l-0.15-.08-0.1.22,0.24,0v-0.17Z"/><path d="M251.29,251.85l-0.07.16,0.15,0.08v-0.14Z"/><path d="M251.39,251.83l0-.11-0.05.13,0.09,0.1v-0.12Z"/><path d="M251.29,253.72c0,0.83-.08,1.92-0.13,3.24,0.34-1.27.63-2.32,0.85-3.12l-0.24-.79Z"/><path d="M251.66,252.68l-0.33.22c0,0.24,0,.51,0,0.82l0.48-.67Z"/><path d="M251.35,252.5l0,0.39,0.33-.22-0.07-.23Z"/><path d="M251.54,252.28l-0.17,0v0.24l0.23-.06Z"/><path d="M251.38,252.09v0.17l0.17,0,0-.13Z"/><path d="M251.46,252l-0.08-.08v0.14l0.12,0.06Z"/><path d="M251.39,251.83v0.12l0.08,0.08,0-.1Z"/><path d="M252,251.72h-0.6v0.11l0,0.1Z"/><path d="M252,253.84c0.25,0.79.58,1.83,1,3.09-0.12-1.31-.2-2.39-0.27-3.22l-0.5-.66Z"/><path d="M252,252.74l-0.23.32,0.24,0.79,0.22-.79Z"/><path d="M251.66,252.68l0.12,0.38,0.23-.32-0.15-.19Z"/><path d="M251.75,252.4l-0.17,0,0.07,0.23,0.2-.13Z"/><path d="M251.54,252.28l0,0.17,0.17,0-0.08-.11Z"/><path d="M251.6,252.2l-0.1-.05,0,0.13,0.13,0Z"/><path d="M251.46,252l0,0.11,0.1,0.05-0.06-.09Z"/><path d="M252,251.72h0l-0.57.2,0,0.1,0.07,0.08Z"/><path d="M252.74,253.71c0.51,0.66,1.17,1.52,2,2.56-0.56-1.19-1-2.18-1.35-2.93l-0.69-.45Z"/><path d="M252.35,252.67l-0.11.38,0.5,0.66-0.06-.82Z"/><path d="M252,252.74l0.24,0.31,0.11-.38-0.2-.13Z"/><path d="M252,252.45l-0.14.1,0.15,0.19,0.14-.19Z"/><path d="M251.75,252.4l0.1,0.14,0.14-.1-0.11-.08Z"/><path d="M251.79,252.31h-0.12l0.08,0.11,0.13,0Z"/><path d="M251.6,252.2l0.07,0.09h0.12l-0.09-.06Z"/><path d="M252,251.72h0l-0.46.39,0.06,0.09,0.1,0Z"/><path d="M253.84,252.77l-0.8-.18,0.34,0.75,2.74,1.73C255.18,254.13,254.42,253.36,253.84,252.77Z"/><path d="M252.65,252.5l0,0.39,0.69,0.45-0.34-.75Z"/><path d="M252.35,252.67l0.33,0.21,0-.39-0.24-.06Z"/><path d="M252.25,252.4l-0.1.14,0.2,0.13,0.07-.23Z"/><path d="M252,252.45l0.14,0.1,0.1-.14-0.13,0Z"/><path d="M252,252.34l-0.11,0,0.11,0.08,0.11-.08Z"/><path d="M251.79,252.31l0.1,0.06,0.11,0-0.11,0h-0.11Z"/><path d="M252,251.72h0l-0.3.52,0.09,0.06h0.11Z"/><path d="M253.84,252.77l3.17,0.69-2.92-1.38-0.82.1Z"/><path d="M252.88,252.23l0.16,0.36,0.8,0.18-0.57-.59Z"/><path d="M252.64,252.26l0,0.24,0.38,0.09-0.16-.36Z"/><path d="M252.47,252.28l0,0.17,0.24,0.06,0-.24Z"/><path d="M252.25,252.4l0.17,0,0-.17-0.14,0Z"/><path d="M252.21,252.31l-0.1.06,0.13,0,0.08-.11h-0.12Z"/><path d="M252,252.34l0.11,0,0.1-.06H252.1Z"/><path d="M252,251.72h0l-0.11.59,0.11,0,0.1,0Z"/><path d="M253,251.9l0.27,0.28,0.82-.1-0.74-.36Z"/><path d="M252.88,252.23l0.39,0L253,251.9l-0.22.11Z"/><path d="M252.63,252.09v0.17l0.24,0-0.1-.22Z"/><path d="M252.5,252.15l0,0.13,0.17,0v-0.17Z"/><path d="M252.4,252.2l-0.07.09,0.14,0,0-.13Z"/><path d="M252.21,252.31h0.12l0.07-.09-0.1,0Z"/><path d="M252,251.72l0.1,0.59h0.11l0.09-.06Z"/><rect x="252" y="251.72"/><polygon points="252 251.72 252 251.72 252 251.72 252 251.72"/><path d="M252.71,251.85l0.07,0.16,0.22-.11-0.17-.17Z"/><path d="M252.63,252.09l0.15-.08-0.07-.16-0.09.1v0.14Z"/><path d="M252.61,251.83V252l0.09-.1-0.05-.12Z"/><path d="M482.07,295.66a136.63,136.63,0,0,1-32.73,10.65A164.7,164.7,0,0,1,415.05,309l-4.25-.12-4.23-.25c-2.82-.13-5.61-0.47-8.39-0.7-5.55-.64-11-1.37-16.42-2.37a277.6,277.6,0,0,1-31-7.45c-9.84-2.92-19.15-6.24-27.84-9.65s-16.75-6.93-24.08-10.37c-14.68-6.87-26.46-13.38-34.58-18.12-3.38-2-6.12-3.64-8.17-4.92,1.7,1.69,4,3.91,6.79,6.57,6.79,6.4,16.71,15.32,29.24,25.15,6.26,4.92,13.16,10.06,20.64,15.19s15.52,10.28,24,15.12a261.33,261.33,0,0,0,26.85,13.43c4.65,2,9.42,3.82,14.2,5.52,2.42,0.77,4.8,1.65,7.24,2.33l3.63,1.08,3.65,1a140.66,140.66,0,0,0,29.07,4.39,108.67,108.67,0,0,0,27.21-2.37,96.75,96.75,0,0,0,23.26-8.6,99.23,99.23,0,0,0,9.71-5.83,240.29,240.29,0,0,0,9.09-37C487.94,292.67,485,294.22,482.07,295.66Z"/><path d="M340,66.86a164.7,164.7,0,0,1-3.3,34.23l-0.86,4.17-1,4.12c-0.62,2.75-1.43,5.44-2.15,8.14-1.59,5.36-3.26,10.64-5.18,15.76a277.59,277.59,0,0,1-12.71,29.2c-4.59,9.19-9.47,17.78-14.33,25.74s-9.73,15.29-14.4,21.92c-9.32,13.26-17.77,23.73-23.85,30.91-2.53,3-4.65,5.39-6.26,7.2,2-1.38,4.54-3.23,7.65-5.55,7.48-5.58,18-13.8,29.84-24.43,5.93-5.31,12.2-11.21,18.55-17.69s12.82-13.5,19.07-21.06A261.32,261.32,0,0,0,349,155.42c2.81-4.23,5.4-8.61,7.91-13,1.18-2.24,2.46-4.44,3.55-6.72l1.69-3.39,1.57-3.43A140.66,140.66,0,0,0,373.1,101a108.67,108.67,0,0,0,2.39-27.21,96.75,96.75,0,0,0-4.43-24.4,99.23,99.23,0,0,0-4-10.56,240.62,240.62,0,0,0-34.86-15.42c1.13,3.07,2.17,6.19,3.07,9.39A136.62,136.62,0,0,1,340,66.86Z"/><path d="M438.26,166.7a164.7,164.7,0,0,1-24.53,24.1l-3.34,2.64L407,196c-2.24,1.71-4.6,3.24-6.88,4.85-4.66,3.08-9.34,6.05-14.1,8.74a277.59,277.59,0,0,1-28.51,14.2c-9.42,4.09-18.68,7.53-27.53,10.5s-17.29,5.46-25.12,7.53c-15.66,4.17-28.87,6.75-38.14,8.35-3.86.66-7,1.14-9.42,1.49,2.39,0.21,5.56.45,9.43,0.67,9.31,0.53,22.65,1,38.56.47,8-.25,16.55-0.75,25.58-1.63s18.5-2.1,28.14-3.87a261.32,261.32,0,0,0,29.2-7c4.87-1.43,9.67-3.13,14.43-4.89,2.35-1,4.74-1.82,7-2.87l3.47-1.51,3.41-1.62a140.65,140.65,0,0,0,25.09-15.32A108.67,108.67,0,0,0,461,194.78a96.75,96.75,0,0,0,12.29-21.54A99.24,99.24,0,0,0,477,162.53a241,241,0,0,0-16.81-34.16c-1.1,3.07-2.31,6.12-3.67,9.13A136.63,136.63,0,0,1,438.26,166.7Z"/><path d="M405.09,74.45A136.62,136.62,0,0,1,398,108.12a164.71,164.71,0,0,1-14.81,31l-2.23,3.62-2.33,3.54c-1.52,2.38-3.21,4.62-4.81,6.92-3.33,4.49-6.71,8.88-10.26,13a277.6,277.6,0,0,1-21.93,23.09c-7.45,7.06-15,13.47-22.27,19.29s-14.38,11-21,15.67c-13.29,9.28-24.82,16.22-33,20.89-3.4,1.94-6.21,3.48-8.35,4.62,2.32-.63,5.37-1.48,9.09-2.59,8.94-2.68,21.62-6.82,36.4-12.75,7.39-3,15.3-6.37,23.48-10.28s16.66-8.3,25.12-13.27a261.34,261.34,0,0,0,25.06-16.53c4.09-3,8-6.25,11.88-9.53,1.88-1.7,3.83-3.34,5.63-5.1l2.75-2.61,2.65-2.69a140.65,140.65,0,0,0,18.34-23,108.67,108.67,0,0,0,11.55-24.75,96.75,96.75,0,0,0,4.18-24.44,99.16,99.16,0,0,0-.19-11.21,243.4,243.4,0,0,0-27.49-26.45C405.42,67.89,405.33,71.16,405.09,74.45Z"/><path d="M418.77,370.52a164.7,164.7,0,0,1-33.14-9.19l-4-1.57-3.89-1.69c-2.6-1.09-5.11-2.36-7.65-3.53-5-2.5-9.91-5.06-14.62-7.84A277.58,277.58,0,0,1,329,329.11c-8.25-6.11-15.86-12.41-22.86-18.59s-13.37-12.24-19.08-18c-11.44-11.48-20.29-21.63-26.3-28.85-2.5-3-4.5-5.51-6-7.42,1,2.17,2.39,5,4.13,8.5,4.2,8.33,10.47,20.11,18.87,33.63,4.2,6.76,8.92,14,14.2,21.34s11.06,15,17.43,22.44A261.33,261.33,0,0,0,330,364c3.67,3.5,7.54,6.81,11.45,10,2,1.55,3.95,3.19,6,4.66l3,2.25,3.11,2.14a140.65,140.65,0,0,0,25.82,14.07,108.67,108.67,0,0,0,26.38,7.08,96.75,96.75,0,0,0,24.8-.13,99.17,99.17,0,0,0,11-2.14,242.36,242.36,0,0,0,21.28-31.66c-3.21.58-6.46,1.06-9.75,1.39A136.63,136.63,0,0,1,418.77,370.52Z"/><path d="M368.08,420.39a164.7,164.7,0,0,1-28-20l-3.18-2.83-3.08-2.91c-2.08-1.91-4-4-6-5.93-3.84-4.06-7.58-8.15-11.05-12.37a277.57,277.57,0,0,1-18.93-25.61c-5.66-8.57-10.66-17.09-15.12-25.28s-8.38-16.08-11.78-23.43c-6.83-14.7-11.67-27.26-14.85-36.11-1.32-3.69-2.35-6.72-3.1-9,0.21,2.39.53,5.55,1,9.4,1.09,9.27,3,22.48,6.23,38.06,1.63,7.79,3.61,16.17,6,24.91s5.28,17.85,8.7,27a261.33,261.33,0,0,0,11.93,27.55c2.25,4.55,4.76,9,7.33,13.36,1.35,2.15,2.62,4.35,4,6.43l2.09,3.16,2.19,3.08A140.65,140.65,0,0,0,322,432a108.67,108.67,0,0,0,22.37,15.67A96.75,96.75,0,0,0,367.71,456a99.18,99.18,0,0,0,11.13,1.77,242.72,242.72,0,0,0,30.75-22.48c-3.2-.55-6.4-1.21-9.6-2A136.63,136.63,0,0,1,368.08,420.39Z"/><path d="M98.92,429a136.62,136.62,0,0,1,7.14-33.67,164.7,164.7,0,0,1,14.81-31l2.23-3.62,2.33-3.54c1.52-2.38,3.21-4.62,4.81-6.92,3.33-4.49,6.71-8.88,10.26-13a277.59,277.59,0,0,1,21.93-23.09c7.45-7.06,15-13.47,22.27-19.29s14.38-11,21-15.67c13.29-9.28,24.82-16.22,33-20.89,3.4-1.94,6.21-3.48,8.35-4.62-2.32.63-5.37,1.48-9.09,2.59C229,258.9,216.34,263,201.57,269c-7.39,3-15.3,6.37-23.48,10.28s-16.66,8.3-25.12,13.27A261.32,261.32,0,0,0,127.91,309c-4.09,3-8,6.25-11.88,9.53-1.88,1.7-3.83,3.33-5.63,5.1l-2.75,2.61L105,329a140.65,140.65,0,0,0-18.34,23A108.67,108.67,0,0,0,75.1,376.71a96.75,96.75,0,0,0-4.18,24.44,99.16,99.16,0,0,0,.19,11.21,243.4,243.4,0,0,0,27.49,26.45C98.58,435.56,98.67,432.29,98.92,429Z"/><path d="M303.39,449.92a164.71,164.71,0,0,1-19.48-28.35l-2-3.74L280,414c-1.3-2.51-2.4-5.09-3.59-7.62-2.22-5.12-4.34-10.25-6.16-15.4a277.58,277.58,0,0,1-9-30.54c-2.39-10-4.17-19.7-5.57-28.93s-2.37-18-3.06-26c-1.39-16.15-1.64-29.61-1.6-39,0-3.92.09-7.12,0.17-9.54-0.62,2.32-1.4,5.4-2.3,9.17-2.14,9.08-4.91,22.13-7.16,37.89-1.13,7.88-2.14,16.43-2.84,25.48s-1.15,18.58-1.07,28.39a261.35,261.35,0,0,0,1.79,30c0.56,5,1.4,10.06,2.32,15.06,0.54,2.48,1,5,1.6,7.43l0.88,3.68,1,3.64A140.65,140.65,0,0,0,256.13,445a108.67,108.67,0,0,0,15.66,22.38,96.75,96.75,0,0,0,19.08,15.84,99.22,99.22,0,0,0,9.9,5.49,240,240,0,0,0,36.61-10.6c-2.84-1.62-5.64-3.35-8.39-5.22A136.63,136.63,0,0,1,303.39,449.92Z"/><path d="M456.11,235.53a164.7,164.7,0,0,1-31.3,14.26l-4,1.34-4.06,1.21c-2.69.84-5.43,1.48-8.13,2.21-5.43,1.3-10.84,2.49-16.24,3.39a277.58,277.58,0,0,1-31.65,3.59c-10.25.62-20.13,0.69-29.46,0.46s-18.11-.78-26.18-1.51c-16.14-1.44-29.44-3.53-38.69-5.2-3.85-.7-7-1.33-9.36-1.83,2.18,1,5.07,2.32,8.63,3.86,8.57,3.69,20.94,8.68,36.07,13.63,7.56,2.48,15.81,5,24.6,7.22s18.1,4.35,27.77,6a261.33,261.33,0,0,0,29.82,3.44c5.06,0.32,10.16.37,15.23,0.34,2.53-.1,5.08-0.09,7.6-0.29l3.78-.23,3.76-.36a140.65,140.65,0,0,0,28.82-5.82,108.67,108.67,0,0,0,24.76-11.54,96.75,96.75,0,0,0,18.92-16,99.16,99.16,0,0,0,7.07-8.72,242.74,242.74,0,0,0-4-37.94c-2.08,2.51-4.27,5-6.58,7.34A136.63,136.63,0,0,1,456.11,235.53Z"/><path d="M271.5,47.9a164.7,164.7,0,0,1,8.61,33.3l0.62,4.21,0.48,4.21c0.36,2.8.51,5.6,0.76,8.39,0.34,5.58.57,11.11,0.52,16.58a277.6,277.6,0,0,1-2,31.79c-1.17,10.2-2.82,19.94-4.67,29.09s-3.92,17.7-6,25.52c-4.22,15.65-8.59,28.38-11.84,37.2-1.36,3.67-2.52,6.66-3.42,8.9,1.37-2,3.17-4.59,5.3-7.83,5.12-7.8,12.18-19.12,19.69-33.16,3.76-7,7.63-14.71,11.38-23s7.43-17.07,10.72-26.31a261.32,261.32,0,0,0,8.57-28.77c1.2-4.93,2.13-9.94,3-14.94,0.34-2.51.79-5,1-7.53l0.43-3.76,0.3-3.76a140.65,140.65,0,0,0-.72-29.39,108.67,108.67,0,0,0-7.06-26.39,96.75,96.75,0,0,0-12.51-21.41,99.2,99.2,0,0,0-7.39-8.51A243.88,243.88,0,0,0,252,9.78c-0.91,0-1.81,0-2.72,0,2.09,2.47,4.12,5,6,7.71A136.63,136.63,0,0,1,271.5,47.9Z"/><path d="M65.74,336.75a164.7,164.7,0,0,1,24.53-24.1L93.61,310l3.4-2.52c2.24-1.71,4.6-3.25,6.88-4.85,4.66-3.08,9.34-6.05,14.1-8.74a277.59,277.59,0,0,1,28.51-14.2c9.42-4.09,18.68-7.53,27.53-10.5s17.29-5.46,25.12-7.53c15.66-4.17,28.87-6.75,38.14-8.35,3.86-.66,7-1.14,9.42-1.49-2.39-.21-5.56-0.45-9.43-0.67-9.31-.53-22.65-1-38.56-0.47-8,.25-16.55.75-25.58,1.63s-18.5,2.1-28.14,3.87a261.34,261.34,0,0,0-29.2,7c-4.87,1.43-9.67,3.13-14.43,4.89-2.35,1-4.74,1.82-7,2.87l-3.47,1.51L87.43,274a140.65,140.65,0,0,0-25.09,15.32A108.67,108.67,0,0,0,43,308.67a96.75,96.75,0,0,0-12.29,21.54A99.24,99.24,0,0,0,27,340.92a241,241,0,0,0,16.81,34.16c1.1-3.07,2.31-6.12,3.67-9.13A136.63,136.63,0,0,1,65.74,336.75Z"/><path d="M164,436.59a164.7,164.7,0,0,1,3.3-34.23l0.86-4.17,1-4.12c0.62-2.75,1.43-5.44,2.15-8.14,1.59-5.36,3.26-10.64,5.18-15.76A277.57,277.57,0,0,1,189.16,341c4.59-9.19,9.47-17.78,14.33-25.74s9.73-15.29,14.4-21.92c9.32-13.26,17.77-23.73,23.85-30.91,2.53-3,4.65-5.39,6.26-7.2-2,1.38-4.54,3.23-7.65,5.55-7.48,5.58-18,13.8-29.84,24.43-5.93,5.31-12.2,11.21-18.55,17.69s-12.82,13.5-19.07,21.06A261.33,261.33,0,0,0,155,348c-2.81,4.23-5.4,8.61-7.91,13-1.18,2.24-2.46,4.44-3.55,6.72l-1.69,3.39-1.57,3.43a140.65,140.65,0,0,0-9.37,27.87,108.67,108.67,0,0,0-2.39,27.21,96.75,96.75,0,0,0,4.43,24.4,99.24,99.24,0,0,0,4,10.56,240.61,240.61,0,0,0,34.86,15.42c-1.13-3.07-2.17-6.19-3.07-9.39A136.63,136.63,0,0,1,164,436.59Z"/><path d="M135.92,83.06a164.7,164.7,0,0,1,28,20l3.18,2.83,3.08,2.91c2.08,1.91,4,4,6,5.93,3.84,4.06,7.58,8.15,11.05,12.37a277.6,277.6,0,0,1,18.93,25.61c5.66,8.57,10.66,17.09,15.12,25.28S229.64,194,233,201.39c6.83,14.7,11.67,27.26,14.85,36.11,1.32,3.69,2.35,6.72,3.1,9-0.21-2.39-.53-5.55-1-9.4-1.09-9.27-3-22.48-6.23-38.06-1.63-7.79-3.61-16.17-6-24.91s-5.28-17.85-8.7-27a261.34,261.34,0,0,0-11.93-27.55c-2.25-4.55-4.76-9-7.33-13.36-1.35-2.15-2.62-4.35-4-6.43l-2.09-3.16-2.19-3.08A140.65,140.65,0,0,0,182,71.48a108.67,108.67,0,0,0-22.37-15.67,96.75,96.75,0,0,0-23.34-8.36,99.18,99.18,0,0,0-11.13-1.77A242.73,242.73,0,0,0,94.4,68.16c3.2,0.55,6.4,1.21,9.6,2A136.62,136.62,0,0,1,135.92,83.06Z"/><path d="M232.5,455.55a164.7,164.7,0,0,1-8.61-33.3L223.28,418l-0.48-4.21c-0.36-2.8-.51-5.6-0.76-8.39-0.34-5.58-.57-11.11-0.52-16.58a277.6,277.6,0,0,1,2-31.79c1.17-10.2,2.82-19.94,4.67-29.09s3.92-17.7,6-25.52c4.22-15.65,8.59-28.38,11.84-37.2,1.36-3.67,2.52-6.66,3.42-8.9-1.37,2-3.17,4.59-5.3,7.83C239,272,232,283.3,224.44,297.34c-3.76,7-7.63,14.71-11.38,23s-7.43,17.07-10.72,26.31a261.33,261.33,0,0,0-8.57,28.77c-1.2,4.93-2.13,9.94-3,14.94-0.34,2.51-.79,5-1,7.53l-0.43,3.76L189,405.4a140.65,140.65,0,0,0,.72,29.39,108.67,108.67,0,0,0,7.06,26.39,96.75,96.75,0,0,0,12.51,21.41,99.2,99.2,0,0,0,7.39,8.51A243.87,243.87,0,0,0,252,493.67c0.91,0,1.81,0,2.72,0-2.09-2.47-4.12-5-6-7.71A136.62,136.62,0,0,1,232.5,455.55Z"/><path d="M85.24,132.93a164.71,164.71,0,0,1,33.14,9.19l4,1.57,3.89,1.69c2.6,1.09,5.11,2.36,7.65,3.53,5,2.5,9.91,5.06,14.62,7.84A277.6,277.6,0,0,1,175,174.34c8.25,6.11,15.86,12.41,22.86,18.59s13.37,12.24,19.08,18c11.44,11.48,20.29,21.63,26.3,28.85,2.5,3,4.5,5.51,6,7.42-1-2.17-2.39-5-4.13-8.5-4.2-8.33-10.47-20.11-18.87-33.63-4.2-6.76-8.92-14-14.2-21.34s-11.06-15-17.43-22.44A261.34,261.34,0,0,0,174,139.47c-3.67-3.5-7.54-6.81-11.45-10-2-1.55-3.95-3.19-6-4.66l-3-2.25-3.11-2.14a140.65,140.65,0,0,0-25.82-14.07A108.67,108.67,0,0,0,98.2,99.22a96.75,96.75,0,0,0-24.8.13,99.17,99.17,0,0,0-11,2.14,242.36,242.36,0,0,0-21.28,31.66c3.21-.58,6.46-1.06,9.75-1.39A136.63,136.63,0,0,1,85.24,132.93Z"/><path d="M47.89,267.92a164.7,164.7,0,0,1,31.3-14.26l4-1.34,4.06-1.21c2.69-.84,5.43-1.48,8.13-2.21,5.43-1.3,10.84-2.49,16.24-3.39a277.58,277.58,0,0,1,31.65-3.59c10.25-.62,20.13-0.69,29.46-0.46s18.11,0.78,26.18,1.51c16.14,1.44,29.44,3.53,38.69,5.2,3.85,0.7,7,1.33,9.36,1.83-2.18-1-5.07-2.32-8.63-3.86-8.57-3.69-20.94-8.68-36.07-13.63-7.56-2.48-15.81-5-24.6-7.22s-18.1-4.35-27.77-6a261.32,261.32,0,0,0-29.82-3.44c-5.06-.32-10.16-0.37-15.23-0.34-2.53.1-5.08,0.09-7.6,0.29l-3.78.23-3.76.36a140.65,140.65,0,0,0-28.82,5.82,108.67,108.67,0,0,0-24.76,11.54,96.75,96.75,0,0,0-18.92,16,99.19,99.19,0,0,0-7.07,8.72,242.74,242.74,0,0,0,4,37.94c2.08-2.51,4.27-5,6.58-7.34A136.63,136.63,0,0,1,47.89,267.92Z"/><path d="M54.66,197.13a164.7,164.7,0,0,1,34.29-2.69l4.25,0.12,4.23,0.25c2.82,0.13,5.61.47,8.39,0.7,5.55,0.64,11,1.37,16.42,2.37a277.6,277.6,0,0,1,31,7.45c9.84,2.92,19.15,6.24,27.84,9.65s16.75,6.93,24.08,10.37c14.68,6.87,26.46,13.38,34.58,18.12,3.38,2,6.12,3.64,8.17,4.92-1.7-1.69-4-3.91-6.79-6.58-6.79-6.4-16.71-15.32-29.24-25.15-6.26-4.92-13.16-10.06-20.64-15.19s-15.52-10.28-24-15.12a261.33,261.33,0,0,0-26.85-13.43c-4.65-2-9.42-3.82-14.2-5.52-2.42-.77-4.8-1.65-7.24-2.33L115.25,164l-3.65-1a140.65,140.65,0,0,0-29.07-4.39A108.67,108.67,0,0,0,55.31,161a96.75,96.75,0,0,0-23.26,8.6,99.22,99.22,0,0,0-9.71,5.83,240.3,240.3,0,0,0-9.09,37c2.81-1.64,5.7-3.2,8.68-4.64A136.63,136.63,0,0,1,54.66,197.13Z"/><path d="M200.61,53.53a164.71,164.71,0,0,1,19.48,28.35l2,3.74,1.9,3.79c1.3,2.51,2.4,5.09,3.59,7.62,2.22,5.12,4.34,10.25,6.16,15.4a277.58,277.58,0,0,1,9,30.54c2.39,10,4.17,19.7,5.57,28.93s2.37,18,3.06,26c1.39,16.15,1.64,29.61,1.6,39,0,3.91-.09,7.12-0.17,9.54,0.62-2.32,1.4-5.4,2.3-9.17,2.14-9.08,4.91-22.13,7.16-37.89,1.13-7.88,2.14-16.43,2.84-25.48s1.15-18.58,1.07-28.39a261.35,261.35,0,0,0-1.79-30c-0.56-5-1.4-10.06-2.32-15.06-0.54-2.48-1-5-1.6-7.43l-0.88-3.68-1-3.64a140.65,140.65,0,0,0-10.73-27.37A108.67,108.67,0,0,0,232.21,36a96.75,96.75,0,0,0-19.08-15.84,99.24,99.24,0,0,0-9.9-5.49,240.05,240.05,0,0,0-36.61,10.59c2.84,1.62,5.64,3.35,8.39,5.22A136.63,136.63,0,0,1,200.61,53.53Z"/><path d="M253.35,250.09c0.32-.77.73-1.77,1.23-3-0.75,1.08-1.38,2-1.86,2.64,0,0.31,0,.58,0,0.82Z"/><path d="M252.71,249.73c0-.83.08-1.92,0.13-3.24-0.34,1.27-.63,2.32-0.85,3.12l0.24,0.79Z"/><path d="M252.35,250.77l0.33-.22c0-.24,0-0.51,0-0.82l-0.48.67Z"/><path d="M252,249.61c-0.25-.79-0.58-1.83-1-3.09,0.12,1.31.2,2.39,0.27,3.22l0.5,0.66Z"/><path d="M252,250.71l0.23-.32-0.24-.79-0.22.79Z"/><path d="M252.35,250.77l-0.12-.38-0.23.32,0.15,0.19Z"/><path d="M251.26,249.74c-0.51-.66-1.17-1.52-2-2.56,0.56,1.19,1,2.18,1.35,2.93l0.69,0.45Z"/><path d="M251.65,250.78l0.11-.38-0.5-.66,0.06,0.82Z"/><path d="M252,250.71l-0.24-.31-0.11.38,0.2,0.13Z"/><path d="M252,251l0.14-.1-0.15-.19-0.14.19Z"/><path d="M250.63,250.11l-2.74-1.73c0.93,0.93,1.69,1.7,2.27,2.29l0.8,0.18Z"/><path d="M251.35,251l0-.39-0.69-.45,0.34,0.75Z"/><path d="M251.65,250.78l-0.33-.21,0,0.39,0.24,0.06Z"/><path d="M251.76,251l0.1-.14-0.2-.13-0.07.23Z"/><path d="M252,251l-0.14-.1-0.1.14,0.13,0Z"/><path d="M250.16,250.68L247,250l2.92,1.38,0.82-.1Z"/><path d="M251.12,251.22l-0.16-.36-0.8-.18,0.57,0.59Z"/><path d="M251.35,251l-0.38-.09,0.16,0.36,0.24,0Z"/><path d="M251.54,251.17l0-.17-0.24-.06,0,0.24Z"/><path d="M251.76,251l-0.17,0,0,0.17,0.14,0Z"/><path d="M251.79,251.14l0.1-.06-0.13,0-0.08.11h0.12Z"/><path d="M249.92,251.37l-3.21.44,3.22,0.3,0.73-.38Z"/><path d="M251,251.55l-0.27-.28-0.82.1,0.74,0.36Z"/><path d="M251.12,251.22l-0.39,0,0.27,0.28,0.22-.11Z"/><path d="M251.38,251.36v-0.17l-0.24,0,0.1,0.22Z"/><path d="M251.54,251.17l-0.17,0v0.17l0.12-.06Z"/><path d="M251.61,251.25l0.07-.09-0.14,0,0,0.13Z"/><path d="M251.79,251.14h-0.12l-0.07.09,0.1,0Z"/><path d="M251,251.55l-0.35.18L251,251.9l0.17-.18Z"/><path d="M251.29,251.6l-0.07-.16-0.22.11,0.17,0.17Z"/><path d="M251.38,251.36l-0.15.08,0.07,0.16,0.09-.1v-0.14Z"/><path d="M251.47,251.41l0-.11-0.12.06v0.14Z"/><path d="M251.61,251.25l-0.11.05,0,0.11,0.08-.08Z"/><path d="M252,251.72l-0.3-.52-0.1,0-0.06.09Z"/><path d="M251.29,251.6l-0.12.13,0.12,0.12,0.05-.13Z"/><path d="M251.39,251.62V251.5l-0.09.1,0.05,0.12Z"/><path d="M251.47,251.41l-0.08.09v0.12l0-.1Z"/><path d="M252,251.72h0l-0.46-.39-0.08.08,0,0.1Z"/><path d="M251.39,251.62l0,0.11,0,0.11v-0.22Z"/><path d="M252,251.72h0l-0.57-.21,0,0.1v0.11H252Z"/><path d="M254.09,252.08l3.21-.44-3.22-.3-0.73.38Z"/><path class="cls-1" d="M307.18,42.27a108.67,108.67,0,0,1,7.06,26.39A140.65,140.65,0,0,1,315,98.05l-0.3,3.76-0.43,3.76c-0.25,2.52-.69,5-1,7.53-0.85,5-1.78,10-3,14.94a261.32,261.32,0,0,1-8.57,28.77c-3.29,9.24-7,18.05-10.72,26.31s-7.62,16-11.38,23c-7.51,14-14.57,25.36-19.69,33.16-2.13,3.24-3.92,5.86-5.3,7.83-0.49,1.23-.9,2.23-1.23,3,0.68-.47,1.58-1.08,2.65-1.84,1.62-1.8,3.73-4.21,6.26-7.2,6.07-7.18,14.53-17.65,23.85-30.91,4.66-6.63,9.54-14,14.4-21.92s9.75-16.55,14.33-25.74a277.59,277.59,0,0,0,12.71-29.2c1.92-5.12,3.59-10.4,5.18-15.76,0.72-2.7,1.53-5.39,2.15-8.14l1-4.12,0.86-4.17A164.7,164.7,0,0,0,340,66.86a136.62,136.62,0,0,0-4.81-34.08c-0.9-3.19-1.94-6.32-3.07-9.39a240.31,240.31,0,0,0-44.87-11,99.2,99.2,0,0,1,7.39,8.51A96.75,96.75,0,0,1,307.18,42.27Z"/><path class="cls-1" d="M232.21,36a108.67,108.67,0,0,1,15.66,22.38,140.65,140.65,0,0,1,10.73,27.37l1,3.64,0.88,3.68c0.63,2.45,1.07,5,1.6,7.43,0.91,5,1.75,10,2.32,15.06a261.35,261.35,0,0,1,1.79,30c0.07,9.81-.37,19.35-1.07,28.39s-1.7,17.6-2.84,25.48c-2.25,15.76-5,28.81-7.16,37.89-0.89,3.77-1.68,6.85-2.3,9.17,0,1.32-.09,2.41-0.13,3.24,0.48-.67,1.11-1.56,1.86-2.64,0.9-2.25,2.07-5.23,3.42-8.9,3.25-8.82,7.62-21.56,11.84-37.2,2.12-7.82,4.19-16.37,6-25.52s3.5-18.89,4.67-29.09a277.6,277.6,0,0,0,2-31.79c0.05-5.47-.18-11-0.52-16.58-0.25-2.79-.4-5.59-0.76-8.39l-0.48-4.21-0.62-4.21a164.7,164.7,0,0,0-8.61-33.3,136.63,136.63,0,0,0-16.18-30.38c-1.92-2.67-4-5.23-6-7.71a242.88,242.88,0,0,0-46,4.88,99.24,99.24,0,0,1,9.9,5.49A96.75,96.75,0,0,1,232.21,36Z"/><path class="cls-1" d="M159.63,55.81A108.67,108.67,0,0,1,182,71.48a140.65,140.65,0,0,1,19.45,22.05l2.19,3.08,2.09,3.16c1.43,2.09,2.7,4.29,4,6.43,2.57,4.38,5.07,8.81,7.33,13.36A261.34,261.34,0,0,1,229,147.11c3.42,9.19,6.27,18.31,8.7,27s4.42,17.12,6,24.91c3.27,15.58,5.14,28.79,6.23,38.06,0.45,3.85.76,7,1,9.4,0.41,1.26.74,2.29,1,3.09,0.22-.8.51-1.84,0.85-3.12,0.08-2.42.15-5.62,0.17-9.54,0-9.4-.21-22.86-1.6-39-0.69-8.07-1.66-16.82-3.06-26S245.17,153,242.78,143a277.58,277.58,0,0,0-9-30.54c-1.82-5.16-3.93-10.28-6.16-15.4-1.19-2.53-2.29-5.11-3.59-7.62l-1.9-3.79-2-3.74a164.71,164.71,0,0,0-19.48-28.35,136.63,136.63,0,0,0-25.59-23c-2.75-1.87-5.55-3.6-8.39-5.22a241,241,0,0,0-41.47,20.38,99.18,99.18,0,0,1,11.13,1.77A96.75,96.75,0,0,1,159.63,55.81Z"/><path class="cls-1" d="M98.2,99.22a108.67,108.67,0,0,1,26.38,7.08,140.65,140.65,0,0,1,25.82,14.07l3.11,2.14,3,2.25c2.06,1.47,4,3.11,6,4.66,3.91,3.24,7.78,6.55,11.45,10a261.34,261.34,0,0,1,20.63,21.81c6.36,7.47,12.15,15.06,17.43,22.44s10,14.58,14.2,21.34c8.41,13.52,14.68,25.3,18.87,33.63,1.74,3.47,3.11,6.33,4.13,8.5,0.82,1,1.48,1.9,2,2.56-0.06-.83-0.15-1.9-0.27-3.22-0.75-2.3-1.78-5.34-3.1-9-3.18-8.85-8-21.41-14.85-36.11-3.41-7.35-7.31-15.24-11.78-23.43s-9.46-16.72-15.12-25.28a277.6,277.6,0,0,0-18.93-25.61c-3.47-4.22-7.21-8.31-11.05-12.37-2-2-3.9-4-6-5.93l-3.08-2.91L163.92,103a164.7,164.7,0,0,0-28-20A136.62,136.62,0,0,0,104,70.18c-3.2-.81-6.4-1.47-9.6-2a243.38,243.38,0,0,0-32,33.32,99.17,99.17,0,0,1,11-2.14A96.75,96.75,0,0,1,98.2,99.22Z"/><path class="cls-1" d="M55.31,161a108.67,108.67,0,0,1,27.21-2.37A140.65,140.65,0,0,1,111.6,163l3.65,1,3.63,1.08c2.44,0.68,4.82,1.55,7.24,2.33,4.78,1.71,9.55,3.49,14.2,5.52a261.33,261.33,0,0,1,26.85,13.43c8.53,4.84,16.57,10,24,15.12s14.39,10.27,20.64,15.19c12.52,9.83,22.44,18.75,29.24,25.15,2.82,2.66,5.09,4.88,6.79,6.58l2.74,1.73c-0.34-.76-0.79-1.74-1.35-2.93-1.5-1.9-3.5-4.4-6-7.42-6-7.23-14.86-17.38-26.3-28.85-5.72-5.74-12.08-11.82-19.08-18S183.28,180.45,175,174.34a277.6,277.6,0,0,0-26.55-17.59c-4.71-2.78-9.62-5.35-14.62-7.84-2.54-1.18-5-2.44-7.65-3.53l-3.89-1.69-4-1.57a164.71,164.71,0,0,0-33.14-9.19,136.63,136.63,0,0,0-34.4-1.18c-3.29.33-6.55,0.81-9.75,1.39a240.59,240.59,0,0,0-18.74,42.31,99.22,99.22,0,0,1,9.71-5.83A96.75,96.75,0,0,1,55.31,161Z"/><path class="cls-1" d="M36.15,233.76a108.67,108.67,0,0,1,24.76-11.54,140.65,140.65,0,0,1,28.82-5.82l3.76-.36,3.78-.23c2.52-.19,5.06-0.19,7.6-0.29,5.08,0,10.17,0,15.23.34a261.32,261.32,0,0,1,29.82,3.44c9.67,1.63,19,3.72,27.77,6s17,4.73,24.6,7.22c15.13,5,27.5,9.94,36.07,13.63,3.56,1.54,6.45,2.84,8.63,3.86l3.17,0.69c-0.58-.59-1.34-1.36-2.27-2.29-2.06-1.28-4.79-2.94-8.17-4.92-8.12-4.73-19.91-11.25-34.58-18.12-7.34-3.44-15.39-7-24.08-10.37s-18-6.72-27.84-9.65a277.6,277.6,0,0,0-31-7.45c-5.37-1-10.87-1.73-16.42-2.37-2.79-.24-5.57-0.57-8.39-0.7l-4.23-.25-4.25-.12a164.7,164.7,0,0,0-34.29,2.69,136.63,136.63,0,0,0-32.73,10.65c-3,1.44-5.87,3-8.68,4.64a243.58,243.58,0,0,0-3.19,39.3c0,2.27,0,4.54.1,6.79a99.19,99.19,0,0,1,7.07-8.72A96.75,96.75,0,0,1,36.15,233.76Z"/><path class="cls-1" d="M43,308.67a108.67,108.67,0,0,1,19.32-19.31A140.65,140.65,0,0,1,87.43,274l3.41-1.62,3.47-1.51c2.3-1,4.69-1.91,7-2.87,4.76-1.77,9.56-3.46,14.43-4.89a261.34,261.34,0,0,1,29.2-7c9.65-1.78,19.12-3,28.14-3.87s17.63-1.38,25.58-1.63c15.91-.52,29.25-0.06,38.56.47,3.87,0.23,7,.47,9.43.67l3.21-.44L247,250c-2.37-.5-5.51-1.13-9.36-1.83-9.25-1.67-22.55-3.76-38.69-5.2-8.07-.73-16.85-1.29-26.18-1.51s-19.21-.16-29.46.46a277.58,277.58,0,0,0-31.65,3.59c-5.39.9-10.8,2.09-16.24,3.39-2.7.73-5.43,1.37-8.13,2.21l-4.06,1.21-4,1.34a164.7,164.7,0,0,0-31.3,14.26,136.63,136.63,0,0,0-27.11,21.21c-2.31,2.37-4.49,4.83-6.58,7.34A240.14,240.14,0,0,0,27,340.92a99.24,99.24,0,0,1,3.69-10.72A96.75,96.75,0,0,1,43,308.67Z"/><path class="cls-1" d="M70.92,401.15a96.75,96.75,0,0,1,4.18-24.44A108.67,108.67,0,0,1,86.65,352,140.65,140.65,0,0,1,105,329l2.65-2.69,2.75-2.61c1.81-1.77,3.76-3.4,5.63-5.1,3.87-3.29,7.8-6.52,11.88-9.53A261.32,261.32,0,0,1,153,292.51c8.46-5,16.94-9.36,25.12-13.27s16.09-7.32,23.48-10.28C216.34,263,229,258.9,238,256.21c3.71-1.11,6.77-2,9.09-2.59l2.87-1.51-3.22-.3c-2.4.34-5.56,0.83-9.42,1.49-9.27,1.6-22.48,4.18-38.14,8.35-7.83,2.08-16.27,4.56-25.12,7.53s-18.11,6.42-27.53,10.5A277.59,277.59,0,0,0,118,293.89c-4.76,2.69-9.44,5.66-14.1,8.74-2.29,1.61-4.64,3.14-6.88,4.85L93.61,310l-3.34,2.64a164.7,164.7,0,0,0-24.53,24.1,136.63,136.63,0,0,0-18.22,29.2c-1.36,3-2.57,6.07-3.67,9.13a242.7,242.7,0,0,0,27.26,37.28A99.16,99.16,0,0,1,70.92,401.15Z"/><path class="cls-1" d="M128.52,429.68a108.67,108.67,0,0,1,2.39-27.21,140.65,140.65,0,0,1,9.37-27.87l1.57-3.43,1.69-3.39c1.09-2.28,2.37-4.48,3.55-6.72,2.51-4.41,5.1-8.8,7.91-13a261.33,261.33,0,0,1,17.89-24.11c6.25-7.56,12.72-14.58,19.07-21.06s12.62-12.39,18.55-17.69c11.86-10.63,22.36-18.85,29.84-24.43,3.11-2.32,5.69-4.17,7.65-5.55,0.88-1,1.61-1.79,2.18-2.4l-3.12.82c-2.13,1.14-4.95,2.68-8.35,4.62-8.16,4.67-19.69,11.62-33,20.89-6.65,4.63-13.73,9.85-21,15.67S169.88,307,162.43,314.09a277.59,277.59,0,0,0-21.93,23.09c-3.55,4.15-6.93,8.54-10.26,13-1.6,2.29-3.28,4.54-4.81,6.92l-2.33,3.54-2.23,3.62a164.7,164.7,0,0,0-14.81,31A136.62,136.62,0,0,0,98.92,429c-0.24,3.29-.34,6.56-0.32,9.81A242.37,242.37,0,0,0,137,464.63a99.24,99.24,0,0,1-4-10.56A96.75,96.75,0,0,1,128.52,429.68Z"/><path class="cls-1" d="M196.83,461.18a108.67,108.67,0,0,1-7.06-26.39A140.65,140.65,0,0,1,189,405.4l0.3-3.76,0.43-3.76c0.25-2.52.69-5,1-7.53,0.85-5,1.78-10,3-14.94a261.33,261.33,0,0,1,8.57-28.77c3.29-9.24,7-18.05,10.72-26.31s7.62-16,11.38-23C232,283.3,239,272,244.13,264.19c2.13-3.24,3.92-5.86,5.3-7.83,0.49-1.23.9-2.23,1.23-3-0.68.47-1.58,1.08-2.65,1.84-1.62,1.8-3.73,4.21-6.26,7.2-6.07,7.18-14.53,17.65-23.85,30.91-4.66,6.63-9.54,14-14.4,21.92s-9.75,16.55-14.33,25.74a277.57,277.57,0,0,0-12.71,29.2c-1.92,5.12-3.59,10.4-5.18,15.76-0.72,2.7-1.53,5.39-2.15,8.14l-1,4.12-0.86,4.17a164.7,164.7,0,0,0-3.3,34.23,136.63,136.63,0,0,0,4.81,34.08c0.9,3.19,1.94,6.32,3.07,9.39a240.31,240.31,0,0,0,44.87,11,99.2,99.2,0,0,1-7.39-8.51A96.75,96.75,0,0,1,196.83,461.18Z"/><path class="cls-1" d="M271.79,467.42A108.67,108.67,0,0,1,256.13,445a140.65,140.65,0,0,1-10.73-27.37l-1-3.64-0.88-3.68c-0.63-2.45-1.07-5-1.6-7.43-0.91-5-1.75-10-2.32-15.06a261.35,261.35,0,0,1-1.79-30c-0.07-9.81.37-19.35,1.07-28.39s1.7-17.6,2.84-25.48c2.25-15.76,5-28.81,7.16-37.89,0.89-3.77,1.68-6.85,2.3-9.17,0-1.32.09-2.41,0.13-3.24-0.48.67-1.11,1.56-1.86,2.64-0.9,2.25-2.07,5.23-3.42,8.9-3.25,8.82-7.62,21.56-11.84,37.2-2.12,7.82-4.19,16.37-6,25.52s-3.5,18.89-4.67,29.09a277.6,277.6,0,0,0-2,31.79c-0.05,5.47.18,11,.52,16.58,0.25,2.79.4,5.59,0.76,8.39l0.48,4.21,0.62,4.21a164.7,164.7,0,0,0,8.61,33.3,136.62,136.62,0,0,0,16.18,30.38c1.92,2.67,4,5.23,6,7.71a242.88,242.88,0,0,0,46-4.88,99.22,99.22,0,0,1-9.9-5.49A96.75,96.75,0,0,1,271.79,467.42Z"/><path class="cls-1" d="M344.37,447.64A108.67,108.67,0,0,1,322,432a140.65,140.65,0,0,1-19.45-22.05l-2.19-3.08-2.09-3.16c-1.43-2.09-2.7-4.29-4-6.43-2.57-4.38-5.07-8.81-7.33-13.36A261.33,261.33,0,0,1,275,356.34c-3.42-9.19-6.27-18.31-8.7-27s-4.42-17.12-6-24.91c-3.27-15.58-5.14-28.79-6.23-38.06-0.45-3.85-.76-7-1-9.4-0.41-1.26-.74-2.29-1-3.09-0.22.8-.51,1.84-0.85,3.12-0.08,2.42-.15,5.62-0.17,9.54,0,9.4.21,22.86,1.6,39,0.69,8.07,1.66,16.82,3.06,26s3.17,18.95,5.57,28.93a277.58,277.58,0,0,0,9,30.54c1.82,5.16,3.93,10.28,6.16,15.4,1.19,2.53,2.29,5.11,3.59,7.62l1.9,3.79,2,3.74a164.71,164.71,0,0,0,19.48,28.35,136.63,136.63,0,0,0,25.59,23c2.75,1.87,5.55,3.6,8.39,5.22a241,241,0,0,0,41.47-20.38A99.18,99.18,0,0,1,367.71,456,96.75,96.75,0,0,1,344.37,447.64Z"/><path class="cls-1" d="M405.81,404.23a108.67,108.67,0,0,1-26.38-7.08,140.65,140.65,0,0,1-25.82-14.07l-3.11-2.14-3-2.25c-2.06-1.47-4-3.11-6-4.66-3.91-3.24-7.78-6.55-11.45-10a261.33,261.33,0,0,1-20.63-21.81c-6.36-7.47-12.15-15.06-17.43-22.44s-10-14.58-14.2-21.34c-8.41-13.52-14.68-25.3-18.87-33.63-1.74-3.47-3.11-6.33-4.13-8.5-0.82-1-1.48-1.9-2-2.56,0.06,0.83.15,1.9,0.27,3.22,0.75,2.3,1.78,5.34,3.1,9,3.18,8.85,8,21.41,14.85,36.11,3.41,7.35,7.31,15.24,11.78,23.43s9.46,16.72,15.12,25.28a277.57,277.57,0,0,0,18.93,25.61c3.47,4.22,7.21,8.31,11.05,12.37,2,2,3.9,4,6,5.93l3.08,2.91,3.18,2.83a164.7,164.7,0,0,0,28,20A136.63,136.63,0,0,0,400,433.27c3.2,0.81,6.4,1.47,9.6,2a243.39,243.39,0,0,0,32-33.32,99.17,99.17,0,0,1-11,2.14A96.75,96.75,0,0,1,405.81,404.23Z"/><path class="cls-1" d="M448.69,342.43a108.67,108.67,0,0,1-27.21,2.37,140.66,140.66,0,0,1-29.07-4.39l-3.65-1-3.63-1.08c-2.44-.68-4.82-1.55-7.24-2.33-4.78-1.71-9.55-3.49-14.2-5.52a261.33,261.33,0,0,1-26.85-13.43c-8.53-4.84-16.57-10-24-15.12s-14.39-10.27-20.64-15.19C279.62,277,269.7,268,262.91,261.64c-2.82-2.66-5.09-4.88-6.79-6.57l-2.74-1.73c0.34,0.76.79,1.74,1.35,2.93,1.5,1.9,3.5,4.4,6,7.42,6,7.23,14.86,17.38,26.3,28.85,5.72,5.74,12.08,11.82,19.08,18S320.72,323,329,329.11a277.58,277.58,0,0,0,26.55,17.59c4.71,2.78,9.62,5.35,14.62,7.84,2.54,1.18,5,2.44,7.65,3.53l3.89,1.69,4,1.57a164.7,164.7,0,0,0,33.14,9.19,136.63,136.63,0,0,0,34.4,1.18c3.29-.33,6.55-0.81,9.75-1.39A240.59,240.59,0,0,0,481.66,328a99.23,99.23,0,0,1-9.71,5.83A96.75,96.75,0,0,1,448.69,342.43Z"/><path class="cls-1" d="M467.85,269.69a108.67,108.67,0,0,1-24.76,11.54A140.65,140.65,0,0,1,414.27,287l-3.76.36-3.78.23c-2.52.19-5.06,0.19-7.6,0.29-5.08,0-10.17,0-15.23-.34a261.33,261.33,0,0,1-29.82-3.44c-9.67-1.63-19-3.72-27.77-6s-17-4.73-24.6-7.22c-15.13-5-27.5-9.94-36.07-13.63-3.56-1.54-6.45-2.84-8.63-3.86l-3.17-.69c0.58,0.59,1.34,1.36,2.27,2.29,2.06,1.28,4.79,2.94,8.17,4.92,8.12,4.73,19.91,11.25,34.58,18.12,7.34,3.44,15.39,7,24.08,10.37s18,6.72,27.84,9.65a277.6,277.6,0,0,0,31,7.45c5.37,1,10.87,1.73,16.42,2.37,2.79,0.24,5.57.57,8.39,0.7l4.23,0.25,4.25,0.12a164.7,164.7,0,0,0,34.29-2.69,136.63,136.63,0,0,0,32.73-10.65c3-1.44,5.87-3,8.68-4.64a243.57,243.57,0,0,0,3.19-39.3c0-2.27,0-4.54-.1-6.79a99.16,99.16,0,0,1-7.07,8.72A96.75,96.75,0,0,1,467.85,269.69Z"/><path class="cls-1" d="M461,194.78a108.67,108.67,0,0,1-19.32,19.31,140.65,140.65,0,0,1-25.09,15.32L413.16,231l-3.47,1.51c-2.3,1-4.69,1.91-7,2.87-4.76,1.77-9.56,3.46-14.43,4.89a261.32,261.32,0,0,1-29.2,7c-9.65,1.78-19.12,3-28.14,3.87s-17.63,1.38-25.58,1.63c-15.91.52-29.25,0.06-38.56-.47-3.87-.23-7-0.47-9.43-0.67l-3.21.44,2.92,1.38c2.37,0.5,5.51,1.13,9.36,1.83,9.25,1.67,22.55,3.76,38.69,5.2,8.07,0.73,16.85,1.29,26.18,1.51s19.21,0.16,29.46-.46a277.58,277.58,0,0,0,31.65-3.59c5.39-.9,10.8-2.09,16.24-3.39,2.7-.73,5.43-1.37,8.13-2.21l4.06-1.21,4-1.34a164.7,164.7,0,0,0,31.3-14.26,136.63,136.63,0,0,0,27.11-21.21c2.31-2.37,4.49-4.83,6.58-7.34A240.14,240.14,0,0,0,477,162.53a99.24,99.24,0,0,1-3.69,10.72A96.75,96.75,0,0,1,461,194.78Z"/><path class="cls-1" d="M433.08,102.3a96.75,96.75,0,0,1-4.18,24.44,108.67,108.67,0,0,1-11.55,24.75,140.65,140.65,0,0,1-18.34,23l-2.65,2.69-2.75,2.61c-1.81,1.77-3.76,3.4-5.63,5.1-3.87,3.29-7.8,6.52-11.88,9.53A261.34,261.34,0,0,1,351,210.94c-8.46,5-16.94,9.36-25.12,13.27s-16.09,7.32-23.48,10.28c-14.78,5.93-27.46,10.06-36.4,12.75-3.72,1.11-6.77,2-9.09,2.59l-2.87,1.51,3.22,0.3c2.4-.34,5.56-0.83,9.42-1.49,9.27-1.6,22.48-4.18,38.14-8.35,7.83-2.08,16.27-4.56,25.12-7.53s18.11-6.42,27.53-10.5A277.59,277.59,0,0,0,386,209.56c4.76-2.69,9.44-5.66,14.1-8.74,2.29-1.61,4.64-3.14,6.88-4.85l3.4-2.52,3.34-2.64a164.7,164.7,0,0,0,24.53-24.1,136.63,136.63,0,0,0,18.22-29.2c1.36-3,2.57-6.07,3.67-9.13A242.7,242.7,0,0,0,432.9,91.08,99.16,99.16,0,0,1,433.08,102.3Z"/><path class="cls-1" d="M375.49,73.77A108.67,108.67,0,0,1,373.1,101a140.66,140.66,0,0,1-9.37,27.87l-1.57,3.43-1.69,3.39c-1.09,2.28-2.37,4.48-3.55,6.72-2.51,4.41-5.1,8.8-7.91,13a261.32,261.32,0,0,1-17.89,24.11c-6.25,7.56-12.72,14.58-19.07,21.06S299.43,213,293.5,218.28c-11.86,10.63-22.36,18.85-29.84,24.43-3.11,2.32-5.69,4.17-7.65,5.55-0.88,1-1.61,1.79-2.18,2.4l3.12-.82c2.13-1.14,4.95-2.68,8.35-4.62,8.16-4.67,19.69-11.62,33-20.89,6.65-4.63,13.73-9.85,21-15.67s14.82-12.22,22.27-19.29a277.6,277.6,0,0,0,21.93-23.09c3.55-4.15,6.93-8.54,10.26-13,1.6-2.29,3.28-4.54,4.81-6.92l2.33-3.54,2.23-3.62a164.71,164.71,0,0,0,14.81-31,136.62,136.62,0,0,0,7.14-33.67c0.24-3.29.34-6.56,0.32-9.81A242.37,242.37,0,0,0,367,38.82a99.23,99.23,0,0,1,4,10.56A96.75,96.75,0,0,1,375.49,73.77Z"/><path d="M253.83,250.65c0.56-.61,1.29-1.41,2.18-2.4-1.08.76-2,1.37-2.65,1.84l-0.32.76Z"/><path d="M252.65,250.95l0.38-.09,0.32-.76-0.68.46Z"/><path d="M252.65,250.95l0-.39-0.33.22,0.07,0.23Z"/><path d="M252.25,251l0.17,0-0.07-.23-0.2.13Z"/><path d="M252.25,251l-0.1-.14L252,251l0.11,0.08Z"/><path d="M252,251.11l0.11,0L252,251l-0.11.08Z"/><path d="M252,251.11l-0.11,0-0.1.06h0.11Z"/><path d="M252,251.72h0l-0.1-.59h-0.11l-0.09.06Z"/><path d="M254.08,251.34l2.87-1.51-3.12.82-0.56.61Z"/><path d="M252.88,251.22l0.39,0,0.56-.61-0.8.2Z"/><path d="M252.88,251.22l0.15-.36-0.38.09v0.24Z"/><path d="M252.47,251.17l0.17,0v-0.24l-0.23.06Z"/><path d="M252.47,251.17l0-.17-0.17,0,0.08,0.11Z"/><path d="M252.21,251.14h0.12l-0.08-.11-0.13,0Z"/><path d="M252.21,251.14l-0.1-.06-0.11,0,0.11,0h0.11Z"/><path d="M252,251.72h0l0.11-.59-0.11,0-0.1,0Z"/><path d="M253,251.55l0.35,0.17,0.73-.38-0.82-.08Z"/><path d="M253,251.55l0.27-.29-0.39,0-0.1.22Z"/><path d="M252.63,251.36l0.15,0.08,0.1-.22-0.24,0v0.17Z"/><path d="M252.63,251.36v-0.17l-0.17,0,0,0.13Z"/><path d="M252.4,251.25l0.1,0.05,0-.13-0.13,0Z"/><path d="M252.4,251.25l-0.07-.09h-0.12l0.09,0.06Z"/><path d="M252,251.72l0.3-.52-0.09-.06h-0.11Z"/><path d="M253,251.9l0.35-.18-0.35-.17-0.17.18Z"/><path d="M252.71,251.6l0.12,0.12,0.17-.18-0.22-.11Z"/><path d="M252.71,251.6l0.07-.16-0.15-.08v0.14Z"/><path d="M252.54,251.42l0.08,0.08v-0.14l-0.12-.06Z"/><path d="M252.54,251.42l0-.11-0.1-.05,0.06,0.09Z"/><path d="M252,251.72h0l0.46-.39-0.06-.09-0.1,0Z"/><path d="M252.71,251.85l0.12-.13-0.12-.12-0.05.13Z"/><path d="M252.61,251.62l0,0.11,0.05-.13-0.09-.1v0.12Z"/><path d="M252.61,251.62V251.5l-0.08-.08,0,0.1Z"/><path d="M252,251.72h0l0.57-.2,0-.1-0.07-.08Z"/><path d="M252.61,251.83l0-.11,0-.11v0.22Z"/><path d="M252,251.72h0.6v-0.11l0-.1Z"/><path d="M252.54,252l0,0.11,0.12-.06V252Z"/><path d="M252.54,252l0.08-.09v-0.12l0,0.1Z"/><path d="M252,251.72h0l0.57,0.21,0-.1v-0.11H252Z"/><path d="M252.46,252.11l-0.06.09,0.11-.05,0-.11Z"/><path d="M252,251.72h0l0.46,0.39,0.08-.08,0-.1Z"/><path d="M252,251.72h0l0.3,0.52,0.1,0,0.06-.09Z"/></svg>