<?xml version="1.0" encoding="utf-8"?>
<svg version="1.1" id="Layer_1" xmlns="http://www.w3.org/2000/svg" xmlns:xlink="http://www.w3.org/1999/xlink" x="0px" y="0px"
	 viewBox="0 0 500 313" style="enable-background:new 0 0 500 313;" xml:space="preserve">
	 <title>Robert Ferguson: Web Engineer</title>
<style type="text/css">
	.st0{fill-rule:evenodd;clip-rule:evenodd;}
</style>
<g>
	<path d="M46.9,85.3L35.2,58.6h-9.3v26.7H0.2V0.5h45.3C65.3,0.5,76,13.7,76,29.6c0,14.6-8.5,22.4-15.3,25.7l15.4,30H46.9z
		 M49.9,29.5c0-4.6-4.1-6.6-8.4-6.6H25.9v13.4h15.7C45.8,36.2,49.9,34.2,49.9,29.5z"/>
	<path d="M81.9,43c0-26.1,20.2-43.9,46.4-43.9c26.2,0,46.4,17.8,46.4,43.9c0,26.1-20.2,43.9-46.4,43.9C102.1,86.9,81.9,69,81.9,43z
		 M148.7,43c0-11.8-8-21.3-20.4-21.3c-12.3,0-20.4,9.4-20.4,21.3c0,11.8,8,21.3,20.4,21.3C140.6,64.2,148.7,54.8,148.7,43z"/>
	<path d="M183.9,85.3V0.5h51.5c17.6,0,25.2,11.7,25.2,21.6c0,10.6-6.2,17.7-14.5,19.5c9.2,1.4,16.2,9.8,16.2,20.7
		c0,11.8-8,23-25.1,23H183.9z M234.6,26.7c0-2.9-2.4-4.8-5.1-4.8h-19.9v9.9h19.9C232.1,31.8,234.6,29.7,234.6,26.7z M236.2,58.6
		c0-3.1-2.3-5.5-6-5.5h-20.6V64h20.6C233.9,64,236.2,61.8,236.2,58.6z"/>
	<path d="M272.6,85.3V0.5H337v22.4h-38.7v8.4h37.8v22.4h-37.8v9.3H337v22.4H272.6z"/>
	<path d="M395.1,85.3l-11.7-26.7h-9.3v26.7h-25.7V0.5h45.3c19.9,0,30.5,13.2,30.5,29.1c0,14.6-8.5,22.4-15.3,25.7l15.4,30H395.1z
		 M398.2,29.5c0-4.6-4.1-6.6-8.4-6.6h-15.7v13.4h15.7C394.1,36.2,398.2,34.2,398.2,29.5z"/>
	<path d="M451.6,85.3V22.8h-22.8V0.5H500v22.4h-22.6v62.5H451.6z"/>
</g>
<g>
	<path d="M0.1,159.3V97.4h47v16.3H18.9v6.1h27.6v16.3H18.9v23.1H0.1z"/>
	<path d="M55.2,159.3V97.4h47v16.3H73.9v6.1h27.6v16.3H73.9v6.8h28.2v16.3H55.2z"/>
	<path d="M144.6,159.3l-8.5-19.5h-6.8v19.5h-18.8V97.4h33.1c14.5,0,22.3,9.7,22.3,21.3c0,10.7-6.2,16.3-11.1,18.8l11.2,21.9H144.6z
		 M146.8,118.6c0-3.3-3-4.8-6.1-4.8h-11.4v9.8h11.4C143.9,123.5,146.8,122,146.8,118.6z"/>
	<path d="M170.2,128.4c0-19.9,15.3-32,34.1-32c14.8,0,23.3,8.2,27.2,16.2l-15.8,8.1c-1.8-3.8-5.9-7.7-11.4-7.7c-9,0-15,6.9-15,15.5
		c0,8.6,6,15.5,15,15.5c3.5,0,7.7-1.3,9.7-2.8v-2.2h-11.5v-16.3h30.2v25.4c-6.9,7.6-16.2,12.5-28.3,12.5
		C185.5,160.4,170.2,148.2,170.2,128.4z"/>
	<path d="M241,133.9V97.4h19v35.8c0,5.9,3.9,10.7,11.6,10.7c7.6,0,11.5-4.7,11.5-10.7V97.4h19v36.4c0,15.4-9.7,26.7-30.6,26.7
		S241,149.2,241,133.9z"/>
	<path d="M307.5,150.6l9.8-13.9c4.6,4.5,11.6,8,20,8c3.5,0,6.9-0.9,6.9-3.3c0-5.9-34.5,0.1-34.5-24.3c0-10.5,8.7-20.5,25.7-20.5
		c10.1,0,19.2,2.9,26.3,8.6l-10,13.3c-5.4-4.1-12.3-6.1-18.2-6.1c-3.7,0-4.7,1.2-4.7,2.8c0,5.8,34.5,0.8,34.5,23.9
		c0,13.7-10.1,21.5-26.7,21.5C323.1,160.4,314.1,156.5,307.5,150.6z"/>
	<path d="M365.9,128.4c0-19,14.8-32,33.9-32c19.1,0,33.9,13,33.9,32c0,19-14.8,32-33.9,32C380.6,160.4,365.9,147.4,365.9,128.4z
		 M414.6,128.4c0-8.6-5.8-15.5-14.9-15.5c-9,0-14.9,6.9-14.9,15.5c0,8.6,5.9,15.5,14.9,15.5C408.8,143.9,414.6,137,414.6,128.4z"/>
	<path d="M482,159.3l-22.8-31.4v31.4h-18.8V97.4h19.3l21.5,29.3V97.4H500v61.9H482z"/>
</g>
<g class="scissors">
	<path class="st0" d="M259.6,253.8c2.6,2.1,5.7,3.6,8.6,5.4c5.5-2.6,11.2-6.3,17.4-9.7c7.5-4.2,17.3-7.5,21.3-14.7
		c5-9.1-1.2-19.9-9.9-20.7c-8.3-0.8-14.3,3.7-17.5,8.2c-1.4,2-2.8,5.3-3,7.8c-0.3,3.7,1.2,8,0.2,11.2c-1.1,3.6-4.9,5.1-8,7
		C265.5,250.2,262.6,252,259.6,253.8z M302.6,228.8c-0.5,3.1-3.8,5.7-6.9,7.4c-2.5,1.4-7.8,4.4-10.7,2.5c-2.3-1.5-2.6-6.2-1.6-9.2
		c1.6-5,7.2-10,13.7-8.8C300.5,221.3,303.4,223.6,302.6,228.8z"/>
	<path class="st0" d="M242.8,264.6c-20.3,12.1-32.9,19.9-53,32.2c4.2,2.1,18.5,3,23.6,0.7c3.9-1.7,7.8-5.2,11.7-7.9
		c11.2-7.8,16-11.7,27.1-19.1C249.4,268.2,245.9,266.5,242.8,264.6z"/>
	<path class="st0" d="M223.3,232c2.6,2.1,5.7,3.6,8.6,5.4c5.5-2.6,11.2-6.3,17.4-9.7c7.5-4.2,17.3-7.5,21.3-14.7
		c5-9.1-1.2-19.9-9.9-20.7c-8.3-0.8-14.3,3.7-17.5,8.2c-1.4,2-2.8,5.3-3,7.8c-0.3,3.7,1.2,8,0.2,11.2c-1.1,3.6-4.9,5.1-8,7
		C229.2,228.5,226.4,230.3,223.3,232z M266.4,207c-0.5,3.1-3.8,5.7-6.9,7.4c-2.5,1.4-7.8,4.4-10.7,2.5c-2.3-1.5-2.6-6.2-1.6-9.2
		c1.6-5,7.2-10,13.7-8.8C264.2,199.6,267.1,201.8,266.4,207z"/>
	<path class="st0" d="M206.5,242.8c-20.3,12.1-32.9,19.9-53,32.2c4.2,2.1,18.5,3,23.6,0.7c3.9-1.7,7.8-5.2,11.7-7.9
		c11.2-7.8,16-11.7,27.1-19.1C213.1,246.4,209.6,244.8,206.5,242.8z"/>
	<path class="st0" d="M302.9,283.6c-4.9-3.1-9.6-5.3-14-7.7C270.4,265.4,253.2,254,235,243c-4.4-2.7-34.9-21-39.4-23.7
		c-8.3-5.1-15.8-10.8-27.9-11.6c-5-0.3-8.9,0.7-12.4,1.9c18.9,11.6,65.4,38.3,85.1,49.8c6.5,3.8,13,8.3,19.6,11.5
		c3.1,1.5,6.3,2.1,7.5,5.2c1.3,3.5-0.3,9.7,1.1,13.9c2.8,9.1,15.7,18.6,26.2,19.3c8,0.6,11.6-2.2,15-6.9c1.5-2,3.2-4.4,3.2-7.1
		C313,290.6,306.9,286.1,302.9,283.6z M219.5,242.9c-1.5,0-2.7-1.2-2.7-2.7c0-1.5,1.1-2.8,2.6-2.8c1.5,0,2.7,1.2,2.7,2.7
		C222.1,241.6,221,242.9,219.5,242.9z M256.5,265.2c-1.5,0-2.7-1.2-2.7-2.7c0-1.5,1.1-2.8,2.6-2.8c1.5,0,2.7,1.2,2.7,2.7
		C259.1,263.9,257.9,265.2,256.5,265.2z M299.1,302.5c-10.1,0.8-19.8-6.8-23.4-12.7c-0.8-1.2-2.9-5.6-2-8.3c0.8-2.3,5.1-3.2,6.8-2.9
		c0.3,0,0.3,0.1,0.4,0.2c3.2,1.7,7.5,3.9,11.7,6.3c4.3,2.4,11.9,5.2,13,10.7C306.6,300.6,303,302.2,299.1,302.5z"/>
</g>
</svg>
