<?xml version="1.0" encoding="utf-8"?>
<!-- Generator: Adobe Illustrator 25.4.1, SVG Export Plug-In . SVG Version: 6.00 Build 0)  -->
<svg version="1.1" id="Layer_1" xmlns="http://www.w3.org/2000/svg" xmlns:xlink="http://www.w3.org/1999/xlink" x="0px" y="0px"
	 viewBox="0 0 128 128" style="enable-background:new 0 0 128 128;" xml:space="preserve">
<style type="text/css">
	.st0{fill:#336791;}
</style>
<path d="M0,0"/>
<path class="st0" d="M0,0"/>
<path d="M75.2,121.8c-8.2,0-10.8-6.5-11.9-9.2c-1.6-3.9-1.9-19.1-1.6-31.5c0-0.9,0.8-1.6,1.6-1.6c0,0,0,0,0,0c0.9,0,1.6,0.8,1.6,1.6
	c0,0,0,0,0,0c-0.4,14.3,0.2,27.3,1.3,30.2c1.8,4.5,4.5,8.5,12.3,6.8c7.3-1.6,10.1-4.4,11.3-11.5c0.9-5.4,2.8-21,3-24
	c0.1-0.9,0.8-1.5,1.7-1.5c0,0,0,0,0,0c0.9,0.1,1.5,0.8,1.5,1.7c-0.2,3.2-2.1,18.7-3.1,24.3c-1.4,8.4-5.2,12.2-13.8,14
	C77.8,121.6,76.4,121.8,75.2,121.8z M30.6,89.9c-0.7,0-1.4-0.1-2.1-0.3C23.1,87.8,18,79.1,13.3,63.7C9.8,52,7.5,39.8,7.3,35.8
	C6.7,24,9.7,15.7,16.3,11c13-9.2,34.9-0.4,35.8-0.1c0.8,0.3,1.2,1.3,0.9,2.1c-0.3,0.8-1.3,1.2-2.1,0.9c-0.2-0.1-21.2-8.5-32.8-0.3
	c-5.6,4-8.2,11.4-7.7,22c0.2,3.3,2.3,15.3,5.9,27.1c4.2,13.7,9,22.4,13.1,23.8c0.6,0.2,2.6,0.9,5.4-2.5c3.3-3.9,6.7-7.8,10.2-11.5
	c0.6-0.6,1.6-0.6,2.3,0c0.6,0.6,0.6,1.6,0,2.2c0,0.1-4.8,5.1-10.1,11.4C34.9,89.1,32.5,89.9,30.6,89.9z M100,76.5
	c-0.9,0-1.6-0.7-1.6-1.6c0-0.3,0.1-0.6,0.3-0.9c14.9-22.1,20.1-48.7,15.6-54.4c-5.6-7.2-13.6-10.9-23.6-11.2
	c-7.4-0.2-13.3,1.7-14.3,2.1l-0.2,0.1c-1,0.3-1.7-0.2-2-0.8c-0.3-0.7-0.1-1.6,0.6-2c0,0,0.2-0.1,0.4-0.2l0,0l0,0
	c1.6-0.6,7.6-2.4,15.1-2.3c11.1,0.1,20.3,4.4,26.5,12.4c3,3.8,3,12.5,0,23.9c-3,11.6-8.7,24.1-15.5,34.3
	C101,76.3,100.5,76.5,100,76.5z M100.8,86.7c-2.5,0-4.8-0.4-6.2-1.2c-1.4-0.8-1.7-2-1.7-2.6c-0.4-6.7,3.3-7.9,5.2-8.4
	c-0.3-0.4-0.6-0.9-1-1.3c-1.1-1.4-2.6-3.3-3.8-6.1c-0.2-0.4-0.8-1.5-1.4-2.6c-3.6-6.4-11-19.8-6.2-26.6c2.2-3.2,6.6-4.4,13.1-3.7
	c-1.9-5.8-11-24-32.6-24.4c-6.5-0.1-11.8,1.9-15.8,5.9c-9,9-8.6,25.4-8.6,25.6c0,0.9-0.7,1.6-1.6,1.6c-0.9,0-1.6-0.7-1.6-1.6l0,0
	c0-0.7-0.4-17.9,9.6-27.9c4.6-4.7,10.7-7,18.1-6.9C80,6.8,88.9,13.8,94,19.7c5.5,6.4,8.2,13.4,8.4,15.8c0.2,1.7-1.1,2.1-1.3,2.1
	l-0.6,0c-6.4-1-10.5-0.3-12.2,2.1c-3.6,5.2,3.4,17.8,6.4,23.2c0.8,1.4,1.3,2.4,1.6,3c1,2.4,2.3,4,3.3,5.3c0.9,1.1,1.7,2.1,2,3.3
	c0.1,0.2,2,3,13,0.7c2.8-0.6,4.4-0.1,4.9,1.4c1,3-4.6,6.5-7.7,8C109,85.9,104.6,86.7,100.8,86.7z M96.1,82.7c0.3,0.4,2.1,1,5.7,0.8
	c3.2-0.1,6.6-0.8,8.7-1.8c2.6-1.2,4.4-2.6,5.3-3.5l-0.5,0.1c-7.1,1.5-12,1.3-14.8-0.6c-0.2-0.1-0.4-0.3-0.5-0.4
	c-0.3,0.1-0.6,0.2-0.8,0.3C97.5,78,95.9,78.5,96.1,82.7z M50.5,91.6c-1.8,0-3.6-0.2-5.5-0.7c-2-0.5-5.2-2-5.2-4.4
	c0.1-2.7,4-3.5,5.5-3.8c5.4-1.1,5.7-1.5,7.4-3.7c0.5-0.6,1.1-1.4,1.9-2.3c1.2-1.4,2.6-2.1,4-2.1c1,0,1.8,0.3,2.3,0.6
	c1.7,0.7,3.1,2.4,3.7,4.5c0.5,1.8,0.3,3.6-0.7,5C60.7,89.2,56.1,91.6,50.5,91.6z M43.3,86.7c0.5,0.4,1.4,0.9,2.5,1.1
	c1.6,0.4,3.2,0.6,4.7,0.6c4.5,0,8.2-1.9,10.8-5.6c0.6-0.8,0.4-1.8,0.2-2.3c-0.3-1.1-1.1-2.1-1.9-2.4c-0.4-0.2-0.8-0.3-1.1-0.3
	c-0.2,0-0.7,0-1.6,1c-0.6,0.7-1.2,1.4-1.8,2.2c-2.1,2.6-3,3.5-9.2,4.8C44.5,86.1,43.7,86.5,43.3,86.7z M55.6,79.3
	c-0.8,0-1.5-0.6-1.6-1.4c0-0.3-0.1-0.5-0.1-0.8c-4.1-0.1-8-1.8-11-4.9c-3.8-3.9-5.5-9.4-4.7-14.9c0.8-6,0.5-11.4,0.4-14.2
	c0-0.8-0.1-1.4-0.1-1.8c0-0.5,0-1.8,4.5-4.1c1.6-0.8,4.8-2.2,8.3-2.6c5.8-0.6,9.6,2,10.7,7.2c3.1,14.2,0.2,20.5-1.8,25.1
	c-0.4,0.9-0.7,1.7-1,2.4l-0.3,0.7c-1.1,2.9-2,5.5-1.7,7.4c0.1,0.9-0.5,1.7-1.3,1.8c0,0,0,0,0,0C55.8,79.3,55.6,79.3,55.6,79.3z
	 M41.7,41.7l0.1,1.1c0.2,3,0.5,8.5-0.4,14.9c-0.6,4.6,0.8,9.1,3.8,12.3c2.4,2.5,5.6,3.9,8.9,3.9h0.1c0.4-1.6,1-3.2,1.6-5l0.3-0.7
	c0.3-0.9,0.7-1.7,1.1-2.6c2-4.4,4.5-9.9,1.6-23.1c-0.6-2.6-1.9-4.1-4.2-4.6C50.1,36.9,43.2,40.4,41.7,41.7z M54.2,43.9l-0.4,0
	c-0.9-0.1-1.8-0.7-2.4-1.5c-0.2-0.3-0.6-0.9-0.5-1.4c0.1-0.7,1-1.2,2.4-1.2c0.3,0,0.6,0,1,0.1c0.8,0.1,1.5,0.3,2,0.6
	c0.9,0.5,1,1.1,0.9,1.4C57,42.7,55.7,43.9,54.2,43.9z M92.7,42.5c-1.4,0-2.6-1.1-2.7-1.8c-0.1-0.8,1.3-1.5,2.7-1.7
	c0.3,0,0.6-0.1,0.9-0.1c1.2,0,2.1,0.4,2.1,0.9c0.1,0.4-0.2,1-0.7,1.5c-0.3,0.3-1,0.9-2,1.1L92.7,42.5z M97.6,72.3
	c-0.9,0-1.6-0.7-1.6-1.6c0-0.3,0.1-0.6,0.3-0.9c3.4-5.1,2.8-10.2,2.2-15.3c-0.3-2.1-0.5-4.3-0.5-6.5c0.1-2.2,0.3-4,0.6-5.7
	c0.3-2.1,0.6-4,0.5-6.3c0-0.9,0.6-1.6,1.5-1.7c0.9,0,1.6,0.6,1.7,1.5l0,0c0.1,2.6-0.2,4.8-0.5,7c-0.3,1.6-0.5,3.3-0.6,5.3
	c-0.1,1.9,0.2,3.9,0.4,6c0.6,5.3,1.4,11.4-2.7,17.4C98.6,72,98.1,72.3,97.6,72.3L97.6,72.3z"/>
</svg>
