<svg xmlns="http://www.w3.org/2000/svg" xmlns:xlink="http://www.w3.org/1999/xlink" x="0px" y="0px" viewBox="0 0 213 213"
    style="enable-background:new 0 0 213 213;" xml:space="preserve">
    <path d="M193,0H20C9,0,0,9,0,20v173c0,11,9,20,20,20h173c11,0,20-9,20-20V20C213,9,204,0,193,0z M121.7,115.2H94V194
	H72.1v-78.8H44.6V97.6h77V115.2z M192.5,180.4c-2,3.6-4.8,6.6-8.3,8.9c-3.5,2.3-7.6,3.9-12.2,4.9c-4.6,1-9.5,1.5-14.7,1.5
	c-5.3,0-10.3-0.4-15.1-1.3s-8.9-2.2-12.4-4v-21.5c3.9,3.3,8.1,5.7,12.7,7.4c4.6,1.6,9.2,2.5,13.8,2.5c2.7,0,5.1-0.2,7.2-0.7
	c2-0.5,3.7-1.2,5.1-2c1.4-0.9,2.4-1.9,3.1-3.1c0.7-1.2,1-2.5,1-3.9c0-1.9-0.5-3.6-1.6-5c-1.1-1.5-2.5-2.8-4.4-4.1
	c-1.9-1.3-4.1-2.5-6.6-3.6c-2.6-1.2-5.3-2.3-8.3-3.6c-7.5-3.1-13.1-7-16.8-11.5c-3.7-4.5-5.5-10-5.5-16.4c0-5,1-9.3,3-12.9
	c2-3.6,4.8-6.6,8.2-8.9c3.5-2.3,7.5-4,12.1-5.1c4.6-1.1,9.4-1.6,14.5-1.6c5,0,9.5,0.3,13.3,0.9c3.9,0.6,7.4,1.5,10.7,2.8v20.1
	c-1.6-1.1-3.4-2.1-5.3-3c-1.9-0.9-3.9-1.6-5.9-2.1c-2-0.6-4-1-6-1.2c-2-0.3-3.9-0.4-5.7-0.4c-2.5,0-4.7,0.2-6.7,0.7
	c-2,0.5-3.7,1.1-5.1,2c-1.4,0.9-2.5,1.9-3.2,3.1c-0.8,1.2-1.1,2.5-1.1,4c0,1.6,0.4,3.1,1.3,4.3c0.9,1.3,2.1,2.5,3.6,3.6
	c1.6,1.1,3.5,2.3,5.7,3.4c2.2,1.1,4.8,2.2,7.6,3.4c3.9,1.6,7.3,3.3,10.4,5.1c3.1,1.8,5.7,3.9,7.9,6.1c2.2,2.3,3.9,4.9,5,7.8
	c1.2,2.9,1.7,6.3,1.7,10.2C195.6,172.2,194.5,176.7,192.5,180.4z" />
</svg>